<?xml version="1.0" standalone="no"?>
<!DOCTYPE svg PUBLIC "-//W3C//DTD SVG 1.1//EN" "http://www.w3.org/Graphics/SVG/1.1/DTD/svg11.dtd" >
<svg xmlns="http://www.w3.org/2000/svg" xmlns:xlink="http://www.w3.org/1999/xlink" version="1.1">
<metadata>
Created by FontForge 20201107 at Fri Jan 17 17:53:18 2025
 By 
Copyright 2016 The Space Mono Project Authors (https://github.com/googlefonts/spacemono)
</metadata>
<defs>
<font id="SpaceMono-Regular" horiz-adv-x="612" >
  <font-face 
    font-family="Space Mono"
    font-weight="400"
    font-stretch="normal"
    units-per-em="1000"
    panose-1="2 1 5 9 3 2 2 0 2 4"
    ascent="800"
    descent="-200"
    x-height="496"
    cap-height="700"
    bbox="9 -309 624 1085"
    underline-thickness="58"
    underline-position="-104"
    unicode-range="U+0020-FB02"
  />
<missing-glyph 
d="M73 0v700h466v-700h-466zM123 52h366v596h-366v-596zM171 146l92 192v9l-85 183h52l72 -159h10l72 159h52l-85 -183v-9l92 -192h-53l-78 169h-10l-78 -169h-53z" />
    <glyph glyph-name=".notdef" 
d="M73 0v700h466v-700h-466zM123 52h366v596h-366v-596zM171 146l92 192v9l-85 183h52l72 -159h10l72 159h52l-85 -183v-9l92 -192h-53l-78 169h-10l-78 -169h-53z" />
    <glyph glyph-name=".null" horiz-adv-x="0" 
 />
    <glyph glyph-name="nonmarkingreturn" horiz-adv-x="333" 
 />
    <glyph glyph-name="space" unicode=" " 
 />
    <glyph glyph-name="exclam" unicode="!" 
d="M266 186v514h80v-514h-80zM306 -14q-28 0 -49 21t-21 49q0 29 21 49.5t49 20.5q29 0 49.5 -20.5t20.5 -49.5q0 -28 -20.5 -49t-49.5 -21z" />
    <glyph glyph-name="quotedbl" unicode="&#x22;" 
d="M370 468v111q-19 8 -31 25.5t-12 39.5q0 29 21 49.5t49 20.5q29 0 49.5 -20.5t20.5 -49.5q0 -22 -12 -39.5t-31 -25.5v-111h-54zM188 468v111q-19 8 -31 25.5t-12 39.5q0 29 21 49.5t49 20.5q29 0 49.5 -20.5t20.5 -49.5q0 -22 -12 -39.5t-31 -25.5v-111h-54z" />
    <glyph glyph-name="numbersign" unicode="#" 
d="M180 102v122h-110v72h110v108h-110v72h110v122h72v-122h108v122h72v-122h110v-72h-110v-108h110v-72h-110v-122h-72v122h-108v-122h-72zM252 296h108v108h-108v-108z" />
    <glyph glyph-name="dollar" unicode="$" 
d="M262 28v63q-58 9 -95 36.5t-55 65t-18 75.5v24h76v-12q0 -48 24.5 -77t67.5 -39v163q-74 10 -114 43.5t-40 93.5v6q0 43 21.5 72.5t56.5 46.5t76 21v62h72v-64q71 -12 112.5 -56t41.5 -100v-18h-76v12q0 33 -21.5 56t-56.5 32v-143q83 -10 126.5 -45.5t43.5 -97.5v-6
q0 -67 -46.5 -107.5t-123.5 -45.5v-61h-72zM262 399v139q-31 -5 -53.5 -22t-22.5 -46q0 -28 16.5 -45.5t59.5 -25.5zM334 161q43 5 67.5 26t24.5 55q0 35 -22 52.5t-70 24.5v-158z" />
    <glyph glyph-name="percent" unicode="%" 
d="M199 406q-38 0 -72 17.5t-54.5 51.5t-20.5 81q0 48 20.5 81.5t54.5 51t72 17.5q39 0 72.5 -17.5t54 -51t20.5 -81.5q0 -47 -20.5 -81t-54 -51.5t-72.5 -17.5zM199 460q39 0 63 26.5t24 69.5t-24 69.5t-63 26.5t-63 -26.5t-24 -69.5q0 -47 24 -71.5t63 -24.5zM82 207
l-24 46l473 241l24 -46zM414 -6q-38 0 -72 17.5t-54.5 51.5t-20.5 81q0 48 20.5 81.5t54.5 51t72 17.5q39 0 72.5 -17.5t54 -51t20.5 -81.5q0 -47 -20.5 -81t-54 -51.5t-72.5 -17.5zM414 48q39 0 63 26.5t24 69.5t-24 69.5t-63 26.5t-63 -26.5t-24 -69.5q0 -47 24 -71.5
t63 -24.5z" />
    <glyph glyph-name="ampersand" unicode="&#x26;" 
d="M259 0q-100 0 -153.5 52t-53.5 131v12q0 56 34.5 96.5t83.5 53.5v12q-49 14 -83.5 53t-34.5 96v12q0 78 53.5 130t153.5 52h128v-78h-122q-58 0 -95.5 -29.5t-37.5 -80.5v-6q0 -54 35 -85t95 -31h137v106h84v-106h97v-78h-97v-312h-224zM265 78h134v234h-137
q-60 0 -95 -32t-35 -85v-6q0 -52 37.5 -81.5t95.5 -29.5z" />
    <glyph glyph-name="quotesingle" unicode="'" 
d="M279 468v111q-19 8 -31 25.5t-12 39.5q0 29 21 49.5t49 20.5q29 0 49.5 -20.5t20.5 -49.5q0 -22 -12 -39.5t-31 -25.5v-111h-54z" />
    <glyph glyph-name="parenleft" unicode="(" 
d="M510 -156q-70 0 -133.5 26t-113 75.5t-78.5 120t-29 158.5v252q0 89 29 159t78.5 119.5t113 75.5t133.5 26h36v-74h-36q-72 0 -135 -37.5t-102 -107t-39 -165.5v-244q0 -96 39 -165.5t102 -107t135 -37.5h36v-74h-36z" />
    <glyph glyph-name="parenright" unicode=")" 
d="M66 -156v74h36q72 0 135 37.5t102 107t39 165.5v244q0 96 -39 165.5t-102 107t-135 37.5h-36v74h36q70 0 133.5 -26t113 -75.5t78.5 -119.5t29 -159v-252q0 -88 -29 -158.5t-78.5 -120t-113 -75.5t-133.5 -26h-36z" />
    <glyph glyph-name="asterisk" unicode="*" 
d="M270 102v135l14 45l-12 5l-28 -50l-88 -88l-51 51l88 88l50 28l-5 12l-45 -14h-135v72h135l45 -14l5 12l-50 28l-88 88l51 51l88 -88l28 -50l12 5l-14 45v135h72v-135l-14 -45l12 -5l28 50l88 88l51 -51l-88 -88l-50 -28l5 -12l45 14h135v-72h-135l-45 14l-5 -12l50 -28
l88 -88l-51 -51l-88 88l-28 50l-12 -5l14 -45v-135h-72z" />
    <glyph glyph-name="plus" unicode="+" 
d="M270 141v173h-173v72h173v173h72v-173h173v-72h-173v-173h-72z" />
    <glyph glyph-name="comma" unicode="," 
d="M248 -120v54h47q27 0 27 30v25q-7 -3 -17 -3q-28 0 -48.5 21t-20.5 49q0 29 21 49.5t49 20.5q29 0 49.5 -20.5t20.5 -49.5v-98q0 -34 -21.5 -56t-55.5 -22h-51z" />
    <glyph glyph-name="hyphen" unicode="-" 
d="M156 224v72h300v-72h-300z" />
    <glyph glyph-name="period" unicode="." 
d="M306 -14q-28 0 -49 21t-21 49q0 29 21 49.5t49 20.5q29 0 49.5 -20.5t20.5 -49.5q0 -28 -20.5 -49t-49.5 -21z" />
    <glyph glyph-name="slash" unicode="/" 
d="M196 -106l-71 22l292 890l70 -22z" />
    <glyph glyph-name="zero" unicode="0" 
d="M306 -14q-115 0 -180.5 73.5t-65.5 212.5v156q0 135 65.5 210.5t180.5 75.5q116 0 181 -75.5t65 -210.5v-156q0 -139 -65 -212.5t-181 -73.5zM306 62q81 0 121.5 57t40.5 159v144q0 96 -40.5 156t-121.5 60t-121.5 -60t-40.5 -156v-144q0 -102 40.5 -159t121.5 -57z
M306 286q-25 0 -44.5 19.5t-19.5 44.5q0 26 19.5 45t44.5 19q26 0 45 -19t19 -45q0 -25 -19 -44.5t-45 -19.5z" />
    <glyph glyph-name="one" unicode="1" 
d="M71 0v78h198v585h-12l-115 -263h-83v6l131 294h163v-622h198v-78h-480z" />
    <glyph glyph-name="two" unicode="2" 
d="M70 0v120q0 64 28 106t79 68.5t121 41.5q89 20 128.5 57.5t39.5 90.5v6q0 36 -16 69.5t-50.5 55t-89.5 21.5q-76 0 -119 -47t-43 -125v-44h-84v50q0 64 28 119.5t83 90t135 34.5q81 0 134 -31.5t79.5 -80.5t26.5 -103v-18q0 -79 -50 -136t-160 -81q-95 -21 -140.5 -55.5
t-45.5 -100.5v-30h390v-78h-474z" />
    <glyph glyph-name="three" unicode="3" 
d="M317 -14q-79 0 -136 31.5t-87.5 84t-30.5 116.5v54h84v-48q0 -75 48 -117.5t120 -42.5q44 0 79.5 19.5t56 52t20.5 72.5v6q0 63 -40 98.5t-100 35.5h-94v116l228 146v12h-396v78h468v-128l-228 -146v-12h40q53 0 100 -23t76.5 -66.5t29.5 -107.5v-18q0 -60 -31 -108.5
t-85 -76.5t-122 -28z" />
    <glyph glyph-name="four" unicode="4" 
d="M373 0v132h-324v116l245 452h163v-490h108v-78h-108v-132h-84zM121 210h252v454h-12l-240 -442v-12z" />
    <glyph glyph-name="five" unicode="5" 
d="M318 -14q-81 0 -137.5 31t-85.5 85t-29 122v28h84v-22q0 -82 46.5 -124t121.5 -42q54 0 90 25t54 65.5t18 87.5v6q0 41 -18 74.5t-50 53.5t-74 20t-69 -21.5t-33 -44.5h-158v370h438v-78h-356v-250h12q21 41 63.5 71.5t108.5 30.5q64 0 113.5 -27.5t78 -77.5t28.5 -117
v-18q0 -66 -28 -122.5t-83 -91t-135 -34.5z" />
    <glyph glyph-name="six" unicode="6" 
d="M306 -14q-69 0 -124 29.5t-87 81.5t-32 120v255q0 74 33 128.5t87.5 84t120.5 29.5q67 0 119.5 -26.5t83 -75.5t30.5 -116h-84q0 65 -40 104.5t-111 39.5q-67 0 -111 -46.5t-44 -121.5v-104h12q24 44 68.5 69t99.5 25q65 0 115 -27.5t78.5 -79t28.5 -123.5v-12
q0 -69 -32 -121.5t-87 -82.5t-124 -30zM306 60q73 0 116 44.5t43 113.5v12q0 47 -20.5 82.5t-56.5 55.5t-82 20q-45 0 -81 -20.5t-57 -55.5t-21 -78v-19q0 -67 43 -111t116 -44z" />
    <glyph glyph-name="seven" unicode="7" 
d="M120 0v36q0 36 15 66.5t46 77.5l287 430v12h-396v78h468v-122l-295 -446q-21 -31 -32 -54.5t-11 -47.5v-30h-82z" />
    <glyph glyph-name="eight" unicode="8" 
d="M297 -14q-70 0 -123 25t-82 68t-29 97v12q0 48 19 82.5t48.5 56t62.5 30.5v12q-45 15 -78.5 54t-33.5 97v12q0 53 28 94t78 64.5t116 23.5h6q66 0 116 -23.5t78 -64.5t28 -94v-12q0 -58 -33.5 -97t-78.5 -54v-12q33 -9 62.5 -30.5t48.5 -56t19 -82.5v-12q0 -54 -29 -97
t-81.5 -68t-123.5 -25h-18zM306 402q62 0 101.5 33.5t39.5 82.5v6q0 51 -38.5 82.5t-102.5 31.5t-102.5 -31.5t-38.5 -82.5v-6q0 -49 39.5 -82.5t101.5 -33.5zM300 62h12q68 0 110.5 35.5t42.5 90.5v6q0 62 -43.5 96t-112.5 34h-6q-69 0 -112.5 -34t-43.5 -96v-6
q0 -55 43 -90.5t110 -35.5z" />
    <glyph glyph-name="nine" unicode="9" 
d="M308 -14q-69 0 -121.5 26.5t-82 75.5t-29.5 116h84q0 -64 40.5 -104t110.5 -40q68 0 111.5 46.5t43.5 121.5v104h-12q-22 -43 -65.5 -68.5t-100.5 -25.5q-65 0 -115.5 27t-79.5 77.5t-29 122.5v12q0 69 31.5 122.5t86.5 84t125 30.5q71 0 125.5 -30t86 -83t31.5 -121
v-252q0 -74 -32 -128.5t-86.5 -84t-122.5 -29.5zM306 312q45 0 81 20t57 54t21 77v19q0 45 -19.5 80.5t-55 56.5t-84.5 21q-73 0 -116 -46t-43 -115v-12q0 -70 45 -112.5t114 -42.5z" />
    <glyph glyph-name="colon" unicode=":" 
d="M306 370q-28 0 -49 21t-21 49q0 29 21 49.5t49 20.5q29 0 49.5 -20.5t20.5 -49.5q0 -28 -20.5 -49t-49.5 -21zM306 -14q-28 0 -49 21t-21 49q0 29 21 49.5t49 20.5q29 0 49.5 -20.5t20.5 -49.5q0 -28 -20.5 -49t-49.5 -21z" />
    <glyph glyph-name="semicolon" unicode=";" 
d="M306 370q-28 0 -49 21t-21 49q0 29 21 49.5t49 20.5q29 0 49.5 -20.5t20.5 -49.5q0 -28 -20.5 -49t-49.5 -21zM248 -120v54h47q27 0 27 30v25q-7 -3 -17 -3q-28 0 -48.5 21t-20.5 49q0 29 21 49.5t49 20.5q29 0 49.5 -20.5t20.5 -49.5v-98q0 -34 -21.5 -56t-55.5 -22h-51
z" />
    <glyph glyph-name="less" unicode="&#x3c;" 
d="M515 130l-418 144v152l418 144v-84l-388 -130v-12l388 -130v-84z" />
    <glyph glyph-name="equal" unicode="=" 
d="M97 386v72h418v-72h-418zM97 242v72h418v-72h-418z" />
    <glyph glyph-name="greater" unicode="&#x3e;" 
d="M97 130v84l388 130v12l-388 130v84l418 -144v-152z" />
    <glyph glyph-name="question" unicode="?" 
d="M240 186v94q0 38 24.5 62t61.5 24h26q45 0 74.5 33t29.5 87v6q0 40 -18 72.5t-51 52t-77 19.5q-72 0 -113 -44t-41 -116v-42h-84v48q0 61 27 114t80.5 85.5t132.5 32.5q67 0 118.5 -29.5t80.5 -77.5t29 -106v-18q0 -52 -23 -96t-63.5 -70.5t-91.5 -26.5h-14
q-28 0 -28 -30v-74h-80zM281 -14q-28 0 -49 21t-21 49q0 29 21 49.5t49 20.5q29 0 49.5 -20.5t20.5 -49.5q0 -28 -20.5 -49t-49.5 -21z" />
    <glyph glyph-name="at" unicode="@" 
d="M208 -14q-49 0 -87.5 26.5t-60.5 75t-22 115.5v18q0 67 22.5 115.5t60.5 75t85 26.5q46 0 70.5 -17.5t41.5 -50.5h12v54h78v-322q0 -30 27 -30h24q27 0 27 30v276q0 65 -30.5 98.5t-95.5 33.5h-282v72h290q92 0 144 -48.5t52 -147.5v-308q0 -34 -21.5 -56t-55.5 -22h-80
q-37 0 -54 19.5t-17 46.5h-12q-12 -37 -40.5 -58.5t-75.5 -21.5zM223 60q41 0 64 19t33 51.5t10 72.5v18q0 38 -10 70.5t-33 52.5t-64 20q-50 0 -78.5 -41.5t-28.5 -101.5v-18q0 -63 28.5 -103t78.5 -40z" />
    <glyph glyph-name="A" unicode="A" 
d="M15 0l212 700h158l212 -700h-90l-51 174h-300l-51 -174h-90zM179 252h254l-121 412h-12z" />
    <glyph glyph-name="B" unicode="B" 
d="M57 0v78h60v544h-60v78h283q101 0 154 -52t53 -130v-12q0 -57 -34 -96t-84 -53v-12q50 -13 84 -53.5t34 -96.5v-12q0 -79 -53 -131t-154 -52h-283zM201 390h136q60 0 95 31t35 85v6q0 51 -37 80.5t-96 29.5h-133v-232zM201 78h133q59 0 96 29.5t37 81.5v6q0 53 -35 85
t-95 32h-136v-234z" />
    <glyph glyph-name="C" unicode="C" 
d="M310 -14q-115 0 -180.5 73.5t-65.5 212.5v156q0 135 65.5 210.5t180.5 75.5q80 0 135 -34t83 -91.5t28 -128.5v-12h-84v12q-1 46 -17.5 86t-52 65t-92.5 25q-81 0 -121.5 -59t-40.5 -155v-144q0 -102 40.5 -158t121.5 -56q57 0 93 25t52.5 65t16.5 86v12h84v-12
q0 -71 -28 -128.5t-83 -91.5t-135 -34z" />
    <glyph glyph-name="D" unicode="D" 
d="M73 0v79h60v543h-60v78h230q129 0 189.5 -62.5t60.5 -197.5v-180q0 -135 -60.5 -197.5t-189.5 -62.5h-230zM217 78h74q61 0 100.5 16.5t58.5 57.5t19 114v168q0 73 -19 114t-58.5 57.5t-100.5 16.5h-74v-544z" />
    <glyph glyph-name="E" unicode="E" 
d="M94 0v700h424v-78h-340v-232h334v-78h-334v-234h346v-78h-430z" />
    <glyph glyph-name="F" unicode="F" 
d="M95 0v700h430v-78h-346v-232h340v-78h-340v-312h-84z" />
    <glyph glyph-name="G" unicode="G" 
d="M301 -14q-112 0 -177 73.5t-65 212.5v156q0 135 65.5 210.5t180.5 75.5q80 0 135 -34t83 -91.5t28 -128.5v-12h-84v12q0 46 -16.5 86t-52.5 65t-93 25q-81 0 -121.5 -59t-40.5 -155v-144q0 -102 41 -158t123 -56q74 0 117 48.5t43 133.5v12h-228v78h312v-336h-78v84h-12
q-16 -43 -59.5 -70.5t-100.5 -27.5z" />
    <glyph glyph-name="H" unicode="H" 
d="M73 0v700h84v-310h298v310h84v-700h-84v312h-298v-312h-84z" />
    <glyph glyph-name="I" unicode="I" 
d="M84 0v78h180v544h-180v78h444v-78h-180v-544h180v-78h-444z" />
    <glyph glyph-name="J" unicode="J" 
d="M295 -14q-102 0 -162 58t-60 166v54h84v-54q0 -66 34 -106t104 -40t98 40t28 106v412h-72v78h216v-78h-60v-412q0 -108 -54 -166t-156 -58z" />
    <glyph glyph-name="K" unicode="K" 
d="M89 0v700h84v-310h23l269 310h104v-6l-290 -338v-12l302 -338v-6h-106l-279 312h-23v-312h-84z" />
    <glyph glyph-name="L" unicode="L" 
d="M87 0v700h84v-622h366v-78h-450z" />
    <glyph glyph-name="M" unicode="M" 
d="M46 0v700h160l94 -664h12l94 664h160v-700h-78v664h-12l-94 -664h-152l-94 664h-12v-664h-78z" />
    <glyph glyph-name="N" unicode="N" 
d="M73 0v700h168l202 -664h12v664h84v-700h-168l-202 664h-12v-664h-84z" />
    <glyph glyph-name="O" unicode="O" 
d="M306 -14q-115 0 -180.5 73.5t-65.5 212.5v156q0 135 65.5 210.5t180.5 75.5q116 0 181 -75.5t65 -210.5v-156q0 -139 -65 -212.5t-181 -73.5zM306 64q81 0 121.5 56t40.5 158v144q0 96 -40.5 155t-121.5 59t-121.5 -59t-40.5 -155v-144q0 -102 40.5 -158t121.5 -56z" />
    <glyph glyph-name="P" unicode="P" 
d="M85 0v700h250q72 0 119.5 -26.5t71 -69.5t23.5 -94v-30q0 -51 -24 -95t-71.5 -70.5t-118.5 -26.5h-166v-288h-84zM169 366h156q140 0 140 120v18q0 53 -34.5 85.5t-105.5 32.5h-156v-256z" />
    <glyph glyph-name="Q" unicode="Q" 
d="M344 -156q-34 0 -55.5 22t-21.5 56v66q-98 12 -152.5 84.5t-54.5 199.5v156q0 135 65.5 210.5t180.5 75.5q116 0 181 -75.5t65 -210.5v-156q0 -127 -54.5 -200t-152.5 -84v-42q0 -30 27 -30h84v-72h-112zM306 64q81 0 121.5 56t40.5 158v144q0 96 -40.5 155t-121.5 59
t-121.5 -59t-40.5 -155v-144q0 -102 40.5 -158t121.5 -56z" />
    <glyph glyph-name="R" unicode="R" 
d="M85 0v700h250q72 0 119.5 -26.5t71 -69.5t23.5 -94v-30q0 -39 -21.5 -78t-66.5 -60v-12q30 -4 47 -23.5t17 -54.5v-252h-84v234q0 26 -12 40t-42 14h-218v-288h-84zM169 366h156q140 0 140 120v18q0 53 -34.5 85.5t-105.5 32.5h-156v-256z" />
    <glyph glyph-name="S" unicode="S" 
d="M320 -14q-90 0 -151 33.5t-92.5 91.5t-31.5 131v30h84v-24q0 -91 51 -137.5t140 -46.5q78 0 117.5 35t39.5 91v6q0 55 -40.5 84t-131.5 42q-105 15 -167.5 59.5t-62.5 134.5v12q0 55 29.5 96.5t81.5 65.5t120 24q79 0 134.5 -29t85 -76.5t29.5 -104.5v-42h-84v36
q0 46 -23 76.5t-61 46t-82 15.5q-38 0 -71.5 -13t-54 -37.5t-20.5 -60.5v-6q0 -58 47 -84.5t141 -40.5q110 -16 162 -64t52 -128v-12q0 -91 -61.5 -147.5t-179.5 -56.5z" />
    <glyph glyph-name="T" unicode="T" 
d="M264 0v622h-204v78h492v-78h-204v-622h-84z" />
    <glyph glyph-name="U" unicode="U" 
d="M306 -14q-111 0 -175.5 64.5t-64.5 185.5v464h84v-464q0 -84 40 -128t116 -44q77 0 116.5 44t39.5 128v464h84v-464q0 -121 -64.5 -185.5t-175.5 -64.5z" />
    <glyph glyph-name="V" unicode="V" 
d="M225 0l-198 700h90l183 -664h12l183 664h90l-198 -700h-162z" />
    <glyph glyph-name="W" unicode="W" 
d="M82 0l-71 700h76l67 -664h12l63 664h154l63 -664h12l67 664h76l-71 -700h-153l-65 664h-12l-65 -664h-153z" />
    <glyph glyph-name="X" unicode="X" 
d="M48 0l175 345v12l-175 343h92l157 -310h18l157 310h92l-175 -343v-12l175 -345h-92l-157 312h-18l-157 -312h-92z" />
    <glyph glyph-name="Y" unicode="Y" 
d="M264 0v246h-18l-219 454h94l179 -382h12l179 382h94l-219 -454h-18v-246h-84z" />
    <glyph glyph-name="Z" unicode="Z" 
d="M53 0v126l420 484v12h-396v78h468v-126l-420 -484v-12h432v-78h-504z" />
    <glyph glyph-name="bracketleft" unicode="[" 
d="M341 -156q-34 0 -55.5 22t-21.5 56v856q0 34 21.5 56t55.5 22h97v-72h-69q-27 0 -27 -30v-808q0 -30 27 -30h69v-72h-97z" />
    <glyph glyph-name="backslash" unicode="\" 
d="M416 -106l-291 890l70 22l292 -890z" />
    <glyph glyph-name="bracketright" unicode="]" 
d="M174 -156v72h69q27 0 27 30v808q0 30 -27 30h-69v72h97q34 0 55.5 -22t21.5 -56v-856q0 -34 -21.5 -56t-55.5 -22h-97z" />
    <glyph glyph-name="asciicircum" unicode="^" 
d="M72 424l158 276h152l158 -276h-92l-136 246h-12l-136 -246h-92z" />
    <glyph glyph-name="underscore" unicode="_" 
d="M73 -120v72h466v-72h-466z" />
    <glyph glyph-name="grave" unicode="`" 
d="M312 570l-84 118h90l66 -118h-72z" />
    <glyph glyph-name="a" unicode="a" 
d="M279 -14q-65 0 -117.5 29.5t-83.5 86t-31 138.5v16q0 81 31 138t83.5 86.5t115.5 29.5q51 0 92.5 -22.5t65.5 -69.5h12v78h78v-394q0 -30 27 -30h25v-72h-53q-31 0 -54 20t-23 64h-12q-24 -49 -66.5 -73.5t-89.5 -24.5zM287 60q70 0 115 50t45 132v12q0 53 -21 94
t-57 64.5t-82 23.5t-82 -22.5t-57 -63t-21 -94.5v-16q0 -84 45 -132t115 -48z" />
    <glyph glyph-name="b" unicode="b" 
d="M329 -14q-48 0 -96 22.5t-74 67.5h-12v-76h-78v700h78v-282h12q26 45 72 68.5t100 23.5q61 0 113 -29.5t83.5 -86t31.5 -136.5v-20q0 -81 -31 -137t-83.5 -85.5t-115.5 -29.5zM313 60q71 0 118.5 48t47.5 130v20q0 53 -22 93t-59.5 62.5t-84.5 22.5q-46 0 -83.5 -23.5
t-60 -64.5t-22.5 -94v-12q0 -55 22 -96t60 -63.5t84 -22.5z" />
    <glyph glyph-name="c" unicode="c" 
d="M315 -14q-69 0 -127 29.5t-93.5 86.5t-35.5 138v12q0 80 35.5 138t93.5 89t127 31q63 0 112.5 -24.5t81 -67.5t40.5 -98l-78 -18q-4 35 -23 65.5t-52.5 49.5t-82.5 19q-48 0 -87.5 -23.5t-63 -65t-23.5 -95.5v-12q0 -56 23.5 -96.5t63.5 -62t89 -21.5t82.5 19.5t52 50
t23.5 64.5l78 -18q-10 -55 -41 -98t-80.5 -67.5t-114.5 -24.5z" />
    <glyph glyph-name="d" unicode="d" 
d="M297 -14q-66 0 -120 29.5t-86 86.5t-32 138v16q0 81 32.5 137.5t86 86.5t117.5 30q51 0 95.5 -22.5t68.5 -69.5h12v282h78v-700h-78v76h-12q-24 -46 -70.5 -68t-91.5 -22zM305 60q47 0 84.5 22.5t59.5 63.5t22 96v12q0 53 -22.5 94t-60 64.5t-83.5 23.5
q-47 0 -84.5 -22.5t-59.5 -63t-22 -94.5v-16q0 -55 21.5 -95.5t59.5 -62.5t85 -22z" />
    <glyph glyph-name="e" unicode="e" 
d="M308 -14q-71 0 -125.5 32.5t-85.5 90t-31 133.5v24q0 70 32 125t87.5 87t124.5 32q61 0 105.5 -22t73 -56t42 -72.5t13.5 -71.5v-64h-400q3 -73 46.5 -118.5t119.5 -45.5q71 0 106 30t48 72l74 -20q-21 -69 -77.5 -112.5t-152.5 -43.5zM146 296h320q-2 43 -24.5 74.5
t-57.5 48.5t-74 17q-66 0 -111 -40t-53 -100z" />
    <glyph glyph-name="f" unicode="f" 
d="M235 0v424h-153v72h153v126q0 34 21.5 56t55.5 22h196v-72h-168q-27 0 -27 -30v-102h207v-72h-207v-424h-78z" />
    <glyph glyph-name="g" unicode="g" 
d="M142 -200v72h295q27 0 27 30v174h-12q-24 -45 -65.5 -67.5t-90.5 -22.5q-66 0 -121.5 29.5t-89 86.5t-33.5 138v16q0 81 34 137.5t89 86.5t119 30q54 0 95 -23.5t63 -68.5h12v78h78v-618q0 -34 -21.5 -56t-55.5 -22h-323zM298 60q47 0 84.5 22.5t59.5 63.5t22 96v12
q0 53 -22.5 94t-60 64.5t-83.5 23.5q-47 0 -84.5 -22.5t-59.5 -63t-22 -94.5v-16q0 -55 21.5 -95.5t59 -62.5t85.5 -22z" />
    <glyph glyph-name="h" unicode="h" 
d="M87 0v700h78v-294h12q23 48 64.5 76t101.5 28q81 0 131.5 -53.5t50.5 -160.5v-296h-78v280q0 78 -35 117t-95 39q-70 0 -111 -48.5t-41 -129.5v-258h-78z" />
    <glyph glyph-name="i" unicode="i" 
d="M311 574q-28 0 -49 21t-21 49q0 29 21 49.5t49 20.5q29 0 49.5 -20.5t20.5 -49.5q0 -28 -20.5 -49t-49.5 -21zM99 0v72h174v352h-156v72h234v-424h162v-72h-414z" />
    <glyph glyph-name="j" unicode="j" 
d="M377 574q-28 0 -49 21t-21 49q0 29 21 49.5t49 20.5q29 0 49.5 -20.5t20.5 -49.5q0 -28 -20.5 -49t-49.5 -21zM117 -200v72h195q27 0 27 30v522h-198v72h276v-618q0 -34 -21.5 -56t-55.5 -22h-223z" />
    <glyph glyph-name="k" unicode="k" 
d="M137 0v700h78v-410h17l189 206h96v-6l-206 -227v-18l230 -239v-6h-96l-211 218h-19v-218h-78z" />
    <glyph glyph-name="l" unicode="l" 
d="M87 0v72h180v556h-174v72h252v-628h180v-72h-438z" />
    <glyph glyph-name="m" unicode="m" 
d="M48 0v496h78v-54h12q13 35 38 51.5t59 16.5q36 0 59.5 -19t32.5 -49h12q34 68 108 68q56 0 86.5 -35.5t30.5 -92.5v-382h-78v356q0 35 -16 57.5t-51 22.5q-33 0 -53.5 -25t-20.5 -75v-336h-78v360q0 33 -18 54.5t-48 21.5q-36 0 -55.5 -26t-19.5 -68v-342h-78z" />
    <glyph glyph-name="n" unicode="n" 
d="M87 0v496h78v-84h12q46 98 160 98q86 0 137 -53.5t51 -160.5v-296h-78v280q0 78 -35 117t-95 39q-70 0 -111 -48.5t-41 -129.5v-258h-78z" />
    <glyph glyph-name="o" unicode="o" 
d="M306 -14q-66 0 -122.5 30t-91.5 87t-35 139v12q0 81 35 138.5t91.5 87.5t122.5 30t122.5 -30t91.5 -87.5t35 -138.5v-12q0 -82 -35 -139t-91.5 -87t-122.5 -30zM306 60q48 0 86 22t60.5 63t22.5 97v12q0 54 -22.5 95t-61 64t-85.5 23t-85.5 -23t-61 -64t-22.5 -95v-12
q0 -56 22.5 -97t61 -63t85.5 -22z" />
    <glyph glyph-name="p" unicode="p" 
d="M69 -200v696h78v-78h12q26 45 72 68.5t100 23.5q61 0 113 -29.5t83.5 -86t31.5 -136.5v-20q0 -81 -31 -137t-83.5 -85.5t-115.5 -29.5q-48 0 -96 22.5t-74 67.5h-12v-276h-78zM313 60q71 0 118.5 48t47.5 130v20q0 53 -22 93t-59.5 62.5t-84.5 22.5q-46 0 -83.5 -23.5
t-60 -64.5t-22.5 -94v-12q0 -55 22 -96t60 -63.5t84 -22.5z" />
    <glyph glyph-name="q" unicode="q" 
d="M467 -200v276h-12q-25 -45 -71 -67.5t-91 -22.5q-66 0 -120 29.5t-86 86.5t-32 138v16q0 81 32.5 137.5t86 86.5t117.5 30q51 0 95 -23.5t69 -68.5h12v78h78v-696h-78zM301 60q47 0 84.5 22.5t59.5 63.5t22 96v12q0 53 -22.5 94t-60 64.5t-83.5 23.5q-47 0 -84.5 -22.5
t-59.5 -63t-22 -94.5v-16q0 -55 21.5 -95.5t59 -62.5t85.5 -22z" />
    <glyph glyph-name="r" unicode="r" 
d="M47 0v72h114v352h-102v72h180v-66h12q19 41 54.5 60.5t79.5 19.5q74 0 120.5 -49t49.5 -143l-82 -12q0 69 -33 99.5t-81 30.5q-61 0 -90.5 -44.5t-29.5 -109.5v-210h126v-72h-318z" />
    <glyph glyph-name="s" unicode="s" 
d="M314 -14q-77 0 -126 26.5t-73 68t-27 85.5l74 18q5 -57 44.5 -91.5t103.5 -34.5q55 0 88.5 21.5t33.5 60.5q0 42 -33 60t-107 23q-85 6 -131.5 40.5t-46.5 98.5v6q0 47 26 78.5t67 47.5t87 16q66 0 109.5 -22.5t66.5 -58t28 -73.5l-74 -18q-4 48 -38 75t-88 27
q-42 0 -75 -18t-33 -54t30.5 -55t111.5 -25q86 -7 132 -41.5t46 -100.5v-6q0 -72 -54.5 -113t-141.5 -41z" />
    <glyph glyph-name="t" unicode="t" 
d="M303 0q-34 0 -55.5 22t-21.5 56v346h-156v72h156v204h78v-204h192v-72h-192v-322q0 -30 27 -30h141v-72h-169z" />
    <glyph glyph-name="u" unicode="u" 
d="M267 -14q-82 0 -134 54t-52 160v296h78v-286q0 -78 32 -114t98 -36q71 0 111.5 48.5t40.5 129.5v258h78v-496h-78v90h-12q-24 -48 -63 -76t-99 -28z" />
    <glyph glyph-name="v" unicode="v" 
d="M228 0l-173 496h92l152 -460h12l152 460h92l-173 -496h-154z" />
    <glyph glyph-name="w" unicode="w" 
d="M96 0l-78 496h80l66 -460h12l58 460h144l58 -460h12l66 460h80l-78 -496h-144l-60 460h-12l-60 -460h-144z" />
    <glyph glyph-name="x" unicode="x" 
d="M71 0l158 248v12l-146 236h89l125 -206h18l125 206h89l-146 -236v-12l158 -248h-91l-135 218h-18l-135 -218h-91z" />
    <glyph glyph-name="y" unicode="y" 
d="M165 -200v72h255q27 0 27 30v188h-12q-24 -48 -63 -76t-99 -28q-82 0 -134 54t-52 160v296h78v-286q0 -78 32 -114t98 -36q71 0 111.5 48.5t40.5 129.5v258h78v-618q0 -34 -21.5 -56t-55.5 -22h-283z" />
    <glyph glyph-name="z" unicode="z" 
d="M91 0v124l354 288v12h-348v72h414v-120l-356 -292v-12h368v-72h-432z" />
    <glyph glyph-name="braceleft" unicode="{" 
d="M355 -156q-34 0 -55.5 22t-21.5 56v345q0 29 -27 29h-51v108h51q27 0 27 29v345q0 34 21.5 56t55.5 22h97v-72h-69q-27 0 -27 -30v-320q0 -34 -21.5 -56t-56.5 -22h-12v-12h12q35 0 56.5 -22t21.5 -56v-320q0 -30 27 -30h69v-72h-97z" />
    <glyph glyph-name="bar" unicode="|" 
d="M270 -156v1012h72v-1012h-72z" />
    <glyph glyph-name="braceright" unicode="}" 
d="M160 -156v72h69q27 0 27 30v320q0 34 21.5 56t56.5 22h12v12h-12q-35 0 -56.5 22t-21.5 56v320q0 30 -27 30h-69v72h97q34 0 55.5 -22t21.5 -56v-345q0 -29 27 -29h51v-108h-51q-27 0 -27 -29v-345q0 -34 -21.5 -56t-55.5 -22h-97z" />
    <glyph glyph-name="asciitilde" unicode="~" 
d="M101 224l-38 50l123 94q15 12 31 19.5t37 7.5q38 0 56 -21.5t28 -57.5q2 -8 7.5 -16.5t15.5 -8.5q8 0 20 9l129 95l38 -50l-123 -94q-13 -10 -29 -18.5t-39 -8.5q-39 0 -56 21t-28 55q-2 9 -6.5 18.5t-16.5 9.5q-9 0 -23 -11z" />
    <glyph glyph-name="uni00A0" unicode="&#xa0;" 
 />
    <glyph glyph-name="exclamdown" unicode="&#xa1;" 
d="M306 514q29 0 49.5 -20.5t20.5 -49.5q0 -28 -20.5 -49t-49.5 -21q-28 0 -49 21t-21 49q0 29 21 49.5t49 20.5zM266 314h80v-514h-80v514z" />
    <glyph glyph-name="cent" unicode="&#xa2;" 
d="M279 28v62q-61 8 -110.5 39.5t-79 85.5t-29.5 127v12q0 73 29.5 127t79 87t110.5 41v63h72v-63q80 -10 133 -61.5t66 -125.5l-78 -18q-5 45 -35 82.5t-86 47.5v-369q56 10 86 48t37 83l78 -18q-13 -75 -65.5 -126.5t-135.5 -61.5v-62h-72zM279 165v369q-59 -12 -99 -60.5
t-40 -119.5v-12q0 -73 39.5 -119.5t99.5 -57.5z" />
    <glyph glyph-name="sterling" unicode="&#xa3;" 
d="M110 102v72h60v120h-60v72h60v74q0 83 44 127.5t122 44.5q75 0 120.5 -44.5t45.5 -127.5v-24h-78v24q0 51 -25 75.5t-63 24.5q-37 0 -62.5 -24.5t-25.5 -75.5v-74h90v-72h-90v-120h242v-72h-380z" />
    <glyph glyph-name="currency" unicode="&#xa4;" 
d="M101 88l-57 57l59 59q-22 31 -34.5 68t-12.5 78q0 82 47 146l-59 59l57 57l59 -59q31 22 68 34.5t78 12.5t78 -12.5t68 -34.5l59 59l57 -57l-59 -59q22 -31 34.5 -68t12.5 -78t-12.5 -78t-34.5 -68l59 -59l-57 -57l-59 59q-64 -47 -146 -47q-41 0 -78 12.5t-68 34.5z
M306 178q48 0 87 23t62 62t23 87t-23 87t-62 62t-87 23t-87 -23t-62 -62t-23 -87t23 -87t62 -62t87 -23z" />
    <glyph glyph-name="yen" unicode="&#xa5;" 
d="M270 102v84h-138v72h138v36h-138v72h86l-122 232h86l118 -232h12l118 232h86l-122 -232h86v-72h-138v-36h138v-72h-138v-84h-72z" />
    <glyph glyph-name="brokenbar" unicode="&#xa6;" 
d="M270 386v470h72v-470h-72zM270 -156v470h72v-470h-72z" />
    <glyph glyph-name="section" unicode="&#xa7;" 
d="M312 218q-69 0 -104.5 37t-35.5 92v12h68v-6q0 -28 18.5 -48.5t55.5 -20.5q35 0 48 15.5t13 31.5q0 20 -16.5 33t-64.5 22q-27 5 -52.5 15.5t-41.5 32.5t-16 60q0 16 5.5 28.5t12.5 22.5q-7 11 -12.5 26t-5.5 33q0 51 37.5 80.5t90.5 29.5q63 0 95 -34t32 -76v-16h-68v6
q0 21 -17 37.5t-46 16.5q-26 0 -40 -12t-14 -31q0 -18 17.5 -30t68.5 -21q52 -9 78.5 -34t26.5 -72q0 -15 -5 -27.5t-12 -25.5q17 -24 17 -59q0 -51 -36 -84.5t-97 -33.5zM374 432q1 2 1 6.5v6.5q0 18 -16.5 31.5t-64.5 22.5q-9 2 -19 4.5t-19 5.5q-2 -6 -2 -16
q0 -16 17.5 -29.5t68.5 -22.5q8 -1 17.5 -4t16.5 -5z" />
    <glyph glyph-name="dieresis" unicode="&#xa8;" 
d="M406 574q-28 0 -49 21t-21 49q0 29 21 49.5t49 20.5q29 0 49.5 -20.5t20.5 -49.5q0 -28 -20.5 -49t-49.5 -21zM206 574q-28 0 -49 21t-21 49q0 29 21 49.5t49 20.5q29 0 49.5 -20.5t20.5 -49.5q0 -28 -20.5 -49t-49.5 -21z" />
    <glyph glyph-name="copyright" unicode="&#xa9;" 
d="M306 308q-69 0 -125 33.5t-89.5 90t-33.5 124.5q0 69 33.5 125t89.5 89.5t125 33.5t125 -33.5t89.5 -89.5t33.5 -125q0 -68 -33.5 -124.5t-89.5 -90t-125 -33.5zM306 356q56 0 101 27t72 72.5t27 100.5q0 56 -27 101t-72 72t-101 27q-55 0 -100.5 -27t-72.5 -72t-27 -101
q0 -55 27 -100.5t72.5 -72.5t100.5 -27zM306 406q-49 0 -77 29.5t-28 75.5v90q0 46 28 75.5t77 29.5q50 0 76.5 -29.5t26.5 -75.5v-12h-54v18q0 22 -13 36.5t-36 14.5t-37 -14.5t-14 -36.5v-102q0 -22 14 -36.5t37 -14.5t36 14.5t13 36.5v18h54v-12q0 -46 -26.5 -75.5
t-76.5 -29.5z" />
    <glyph glyph-name="ordfeminine" unicode="&#xaa;" 
d="M289 406q-54 0 -93 39t-39 111q0 71 39.5 110.5t94.5 39.5q59 0 82 -40h6v32h66v-209q0 -17 16 -17h14v-60h-48q-19 0 -32.5 10.5t-15.5 29.5h-6q-10 -24 -33.5 -35t-50.5 -11zM301 466q32 0 55 22t23 68q0 45 -21.5 67.5t-56.5 22.5q-36 0 -57 -25.5t-21 -64.5
q0 -43 21 -66.5t57 -23.5z" />
    <glyph glyph-name="guillemotleft" unicode="&#xab;" 
d="M528 12l-234 158v156l234 158h6v-88l-210 -142v-12l210 -142v-88h-6zM312 12l-234 158v156l234 158h6v-88l-210 -142v-12l210 -142v-88h-6z" />
    <glyph glyph-name="logicalnot" unicode="&#xac;" 
d="M443 230v84h-346v72h418v-156h-72z" />
    <glyph glyph-name="registered" unicode="&#xae;" 
d="M306 308q-69 0 -125 33.5t-89.5 90t-33.5 124.5q0 69 33.5 125t89.5 89.5t125 33.5t125 -33.5t89.5 -89.5t33.5 -125q0 -68 -33.5 -124.5t-89.5 -90t-125 -33.5zM306 356q56 0 101 27t72 72.5t27 100.5q0 56 -27 101t-72 72t-101 27q-55 0 -100.5 -27t-72.5 -72t-27 -101
q0 -55 27 -100.5t72.5 -72.5t100.5 -27zM222 412v288h96q45 0 67.5 -24t22.5 -56q0 -25 -8.5 -43t-31.5 -28v-6q18 -1 26 -14t8 -27v-90h-54v83q0 11 -6.5 18t-18.5 7h-47v-108h-54zM276 568h32q23 0 34.5 12.5t11.5 31.5t-11.5 30t-34.5 11h-32v-85z" />
    <glyph glyph-name="macron" unicode="&#xaf;" 
d="M175 570v66h262v-66h-262z" />
    <glyph glyph-name="degree" unicode="&#xb0;" 
d="M306 424q-40 0 -73 19.5t-52.5 52.5t-19.5 73t19.5 73t52.5 52.5t73 19.5t73 -19.5t52.5 -52.5t19.5 -73t-19.5 -73t-52.5 -52.5t-73 -19.5zM306 496q30 0 51.5 21.5t21.5 51.5t-21.5 51.5t-51.5 21.5t-51.5 -21.5t-21.5 -51.5t21.5 -51.5t51.5 -21.5z" />
    <glyph glyph-name="plusminus" unicode="&#xb1;" 
d="M270 141v173h-173v72h173v173h72v-173h173v-72h-173v-173h-72zM97 0v72h418v-72h-418z" />
    <glyph glyph-name="uni00B2" unicode="&#xb2;" 
d="M210 412v54q0 42 24 65t72 33q33 8 40.5 22t7.5 28q0 17 -11 30.5t-35 13.5q-22 0 -36 -14t-14 -40v-18h-54v18q0 42 27.5 72t78.5 30q48 0 73 -27.5t25 -62.5q0 -36 -18 -62t-66 -36q-36 -7 -48 -19.5t-12 -32.5v-6h141v-48h-195z" />
    <glyph glyph-name="uni00B3" unicode="&#xb3;" 
d="M308 406q-48 0 -76 28.5t-28 67.5v16h54v-14q0 -22 13 -36t35 -14q23 0 35.5 12.5t12.5 31.5q0 24 -14.5 34t-31.5 10h-32v76l82 28v6h-145v48h187v-84l-82 -28v-6h6q36 0 60 -20.5t24 -59.5q0 -43 -27.5 -69.5t-72.5 -26.5z" />
    <glyph glyph-name="acute" unicode="&#xb4;" 
d="M228 570l66 118h90l-84 -118h-72z" />
    <glyph glyph-name="uni00B5" unicode="&#xb5;" 
d="M87 -200v696h78v-280q0 -78 40.5 -117t100.5 -39t100.5 39t40.5 117v280h78v-496h-78v60h-12q-10 -28 -41.5 -51t-87.5 -23q-55 0 -86.5 23t-42.5 51h-12v-260h-78z" />
    <glyph glyph-name="paragraph" unicode="&#xb6;" 
d="M269 218v206q-40 0 -73 19.5t-52.5 52.5t-19.5 73t19.5 73t52.5 52.5t73 19.5h180v-496h-72v424h-36v-424h-72zM269 496v146q-30 0 -51.5 -21.5t-21.5 -51.5t21.5 -51.5t51.5 -21.5z" />
    <glyph glyph-name="periodcentered" unicode="&#xb7;" 
d="M306 280q-28 0 -49 21t-21 49q0 29 21 49.5t49 20.5q29 0 49.5 -20.5t20.5 -49.5q0 -28 -20.5 -49t-49.5 -21z" />
    <glyph glyph-name="cedilla" unicode="&#xb8;" 
d="M323 -212q-43 0 -66 20t-31 50l48 18q3 -15 14.5 -27.5t33.5 -12.5q15 0 27.5 10t12.5 32q0 18 -10.5 28t-24.5 10q-18 0 -25 -14h-76v6l20 92h49l-15 -68h6q13 32 54 32q35 0 55.5 -25t20.5 -60q0 -41 -27 -66t-66 -25z" />
    <glyph glyph-name="uni00B9" unicode="&#xb9;" 
d="M215 412v48h78v210h-9l-22 -93h-53l32 123h106v-240h71v-48h-203z" />
    <glyph glyph-name="ordmasculine" unicode="&#xba;" 
d="M306 406q-38 0 -72 17t-55.5 50.5t-21.5 82.5t21.5 82.5t55.5 50.5t72 17t72 -17t55.5 -50.5t21.5 -82.5t-21.5 -82.5t-55.5 -50.5t-72 -17zM306 466q34 0 58.5 23.5t24.5 66.5q0 44 -24.5 67t-58.5 23t-58.5 -23t-24.5 -67q0 -43 24.5 -66.5t58.5 -23.5z" />
    <glyph glyph-name="guillemotright" unicode="&#xbb;" 
d="M294 12v88l210 142v12l-210 142v88h6l234 -158v-156l-234 -158h-6zM78 12v88l210 142v12l-210 142v88h6l234 -158v-156l-234 -158h-6z" />
    <glyph glyph-name="onequarter" unicode="&#xbc;" 
d="M82 207l-24 46l473 241l24 -46zM57 412v48h78v210h-9l-22 -93h-53l32 123h106v-240h71v-48h-203zM455 0v54h-130v66l85 168h99v-186h40v-48h-40v-54h-54zM373 102h82v156h-6l-76 -150v-6z" />
    <glyph glyph-name="onehalf" unicode="&#xbd;" 
d="M57 412v48h78v210h-9l-22 -93h-53l32 123h106v-240h71v-48h-203zM357 0v54q0 42 24 65t72 33q33 8 40.5 22t7.5 28q0 17 -11 30.5t-35 13.5q-22 0 -36 -14t-14 -40v-18h-54v18q0 42 27.5 72t78.5 30q48 0 73 -27.5t25 -62.5q0 -36 -18 -62t-66 -36q-36 -7 -48 -19.5
t-12 -32.5v-6h141v-48h-195zM82 207l-24 46l473 241l24 -46z" />
    <glyph glyph-name="threequarters" unicode="&#xbe;" 
d="M152 406q-48 0 -76 28.5t-28 67.5v16h54v-14q0 -22 13 -36t35 -14q23 0 35.5 12.5t12.5 31.5q0 24 -14.5 34t-31.5 10h-32v76l82 28v6h-145v48h187v-84l-82 -28v-6h6q36 0 60 -20.5t24 -59.5q0 -43 -27.5 -69.5t-72.5 -26.5zM82 207l-24 46l473 241l24 -46zM455 0v54
h-130v66l85 168h99v-186h40v-48h-40v-54h-54zM373 102h82v156h-6l-76 -150v-6z" />
    <glyph glyph-name="questiondown" unicode="&#xbf;" 
d="M331 516q29 0 49.5 -20.5t20.5 -49.5q0 -28 -20.5 -49t-49.5 -21q-28 0 -49 21t-21 49q0 29 21 49.5t49 20.5zM372 316v-94q0 -37 -24 -61.5t-62 -24.5h-26q-45 0 -74.5 -33t-29.5 -87v-6q0 -40 18 -72.5t51 -52t77 -19.5q72 0 113 44t41 116v42h84v-48q0 -61 -27 -114
t-80.5 -85.5t-132.5 -32.5q-67 0 -118.5 29.5t-80.5 78t-29 105.5v18q0 53 23 96.5t63.5 70t91.5 26.5h14q28 0 28 30v74h80z" />
    <glyph glyph-name="Agrave" unicode="&#xc0;" 
d="M15 0l212 700h158l212 -700h-90l-51 174h-300l-51 -174h-90zM179 252h254l-121 412h-12zM272 774l-84 118h90l66 -118h-72z" />
    <glyph glyph-name="Aacute" unicode="&#xc1;" 
d="M15 0l212 700h158l212 -700h-90l-51 174h-300l-51 -174h-90zM179 252h254l-121 412h-12zM277 774l66 118h90l-84 -118h-72z" />
    <glyph glyph-name="Acircumflex" unicode="&#xc2;" 
d="M15 0l212 700h158l212 -700h-90l-51 174h-300l-51 -174h-90zM179 252h254l-121 412h-12zM164 774l80 118h124l80 -118h-84l-52 88h-12l-52 -88h-84z" />
    <glyph glyph-name="Atilde" unicode="&#xc3;" 
d="M15 0l212 700h158l212 -700h-90l-51 174h-300l-51 -174h-90zM179 252h254l-121 412h-12zM357 755q-25 0 -42 12t-31 35q-18 34 -33 34q-5 0 -11 -2.5t-15 -13.5l-41 -49l-49 42l42 49q14 17 32.5 29.5t45.5 12.5q29 0 44 -13t28 -35q12 -19 19.5 -26t14.5 -7q5 0 10.5 3
t12.5 12l43 50l49 -42l-41 -49q-15 -18 -34.5 -30t-43.5 -12z" />
    <glyph glyph-name="Adieresis" unicode="&#xc4;" 
d="M15 0l212 700h158l212 -700h-90l-51 174h-300l-51 -174h-90zM179 252h254l-121 412h-12zM406 778q-28 0 -49 21t-21 49q0 29 21 49.5t49 20.5q29 0 49.5 -20.5t20.5 -49.5q0 -28 -20.5 -49t-49.5 -21zM206 778q-28 0 -49 21t-21 49q0 29 21 49.5t49 20.5q29 0 49.5 -20.5
t20.5 -49.5q0 -28 -20.5 -49t-49.5 -21z" />
    <glyph glyph-name="Aring" unicode="&#xc5;" 
d="M15 0l212 700h158l212 -700h-90l-51 174h-300l-51 -174h-90zM179 252h254l-121 412h-12zM306 774q-43 0 -72.5 29.5t-29.5 72.5t29.5 72.5t72.5 29.5t72.5 -29.5t29.5 -72.5t-29.5 -72.5t-72.5 -29.5zM306 834q18 0 30 12t12 30t-12 30t-30 12t-30 -12t-12 -30t12 -30
t30 -12z" />
    <glyph glyph-name="AE" unicode="&#xc6;" 
d="M15 0l212 700h313v-78h-156v-232h150v-78h-150v-234h162v-78h-246v174h-144l-51 -174h-90zM179 252h121v370h-12z" />
    <glyph glyph-name="Ccedilla" unicode="&#xc7;" 
d="M333 -212q-43 0 -66 20t-31 50l48 18q3 -15 14.5 -27.5t33.5 -12.5q15 0 27.5 10t12.5 32q0 18 -10.5 28t-24.5 10q-18 0 -25 -14h-76v6l18 83q-90 16 -140 87.5t-50 193.5v156q0 135 65.5 210.5t180.5 75.5q80 0 135 -34t83 -91.5t28 -128.5v-12h-84v12q-1 46 -17.5 86
t-52 65t-92.5 25q-81 0 -121.5 -59t-40.5 -155v-144q0 -102 40.5 -158t121.5 -56q57 0 93 25t52.5 65t16.5 86v12h84v-12q0 -71 -28 -128.5t-83 -91.5t-135 -34h-8l-12 -54h6q13 32 54 32q35 0 55.5 -25t20.5 -60q0 -41 -27 -66t-66 -25z" />
    <glyph glyph-name="Egrave" unicode="&#xc8;" 
d="M94 0v700h424v-78h-340v-232h334v-78h-334v-234h346v-78h-430zM272 774l-84 118h90l66 -118h-72z" />
    <glyph glyph-name="Eacute" unicode="&#xc9;" 
d="M94 0v700h424v-78h-340v-232h334v-78h-334v-234h346v-78h-430zM277 774l66 118h90l-84 -118h-72z" />
    <glyph glyph-name="Ecircumflex" unicode="&#xca;" 
d="M94 0v700h424v-78h-340v-232h334v-78h-334v-234h346v-78h-430zM164 774l80 118h124l80 -118h-84l-52 88h-12l-52 -88h-84z" />
    <glyph glyph-name="Edieresis" unicode="&#xcb;" 
d="M94 0v700h424v-78h-340v-232h334v-78h-334v-234h346v-78h-430zM406 778q-28 0 -49 21t-21 49q0 29 21 49.5t49 20.5q29 0 49.5 -20.5t20.5 -49.5q0 -28 -20.5 -49t-49.5 -21zM206 778q-28 0 -49 21t-21 49q0 29 21 49.5t49 20.5q29 0 49.5 -20.5t20.5 -49.5
q0 -28 -20.5 -49t-49.5 -21z" />
    <glyph glyph-name="Igrave" unicode="&#xcc;" 
d="M84 0v78h180v544h-180v78h444v-78h-180v-544h180v-78h-444zM274 774l-84 118h90l66 -118h-72z" />
    <glyph glyph-name="Iacute" unicode="&#xcd;" 
d="M84 0v78h180v544h-180v78h444v-78h-180v-544h180v-78h-444zM279 774l66 118h90l-84 -118h-72z" />
    <glyph glyph-name="Icircumflex" unicode="&#xce;" 
d="M84 0v78h180v544h-180v78h444v-78h-180v-544h180v-78h-444zM166 774l80 118h124l80 -118h-84l-52 88h-12l-52 -88h-84z" />
    <glyph glyph-name="Idieresis" unicode="&#xcf;" 
d="M84 0v78h180v544h-180v78h444v-78h-180v-544h180v-78h-444zM408 778q-28 0 -49 21t-21 49q0 29 21 49.5t49 20.5q29 0 49.5 -20.5t20.5 -49.5q0 -28 -20.5 -49t-49.5 -21zM208 778q-28 0 -49 21t-21 49q0 29 21 49.5t49 20.5q29 0 49.5 -20.5t20.5 -49.5q0 -28 -20.5 -49
t-49.5 -21z" />
    <glyph glyph-name="Eth" unicode="&#xd0;" 
d="M73 0v78h60v233h-60v78h60v233h-60v78h230q129 0 189.5 -62.5t60.5 -197.5v-180q0 -135 -60.5 -197.5t-189.5 -62.5h-230zM217 78h74q61 0 100.5 16.5t58.5 57.5t19 114v168q0 73 -19 114t-58.5 57.5t-100.5 16.5h-74v-233h108v-78h-108v-233z" />
    <glyph glyph-name="Ntilde" unicode="&#xd1;" 
d="M73 0v700h168l202 -664h12v664h84v-700h-168l-202 664h-12v-664h-84zM375 755q-25 0 -42 12t-31 35q-18 34 -33 34q-5 0 -11 -2.5t-15 -13.5l-41 -49l-49 42l42 49q14 17 32.5 29.5t45.5 12.5q29 0 44 -13t28 -35q12 -19 19.5 -26t14.5 -7q5 0 10.5 3t12.5 12l43 50
l49 -42l-41 -49q-15 -18 -34.5 -30t-43.5 -12z" />
    <glyph glyph-name="Ograve" unicode="&#xd2;" 
d="M306 -14q-115 0 -180.5 73.5t-65.5 212.5v156q0 135 65.5 210.5t180.5 75.5q116 0 181 -75.5t65 -210.5v-156q0 -139 -65 -212.5t-181 -73.5zM306 64q81 0 121.5 56t40.5 158v144q0 96 -40.5 155t-121.5 59t-121.5 -59t-40.5 -155v-144q0 -102 40.5 -158t121.5 -56z
M272 774l-84 118h90l66 -118h-72z" />
    <glyph glyph-name="Oacute" unicode="&#xd3;" 
d="M306 -14q-115 0 -180.5 73.5t-65.5 212.5v156q0 135 65.5 210.5t180.5 75.5q116 0 181 -75.5t65 -210.5v-156q0 -139 -65 -212.5t-181 -73.5zM306 64q81 0 121.5 56t40.5 158v144q0 96 -40.5 155t-121.5 59t-121.5 -59t-40.5 -155v-144q0 -102 40.5 -158t121.5 -56z
M277 774l66 118h90l-84 -118h-72z" />
    <glyph glyph-name="Ocircumflex" unicode="&#xd4;" 
d="M306 -14q-115 0 -180.5 73.5t-65.5 212.5v156q0 135 65.5 210.5t180.5 75.5q116 0 181 -75.5t65 -210.5v-156q0 -139 -65 -212.5t-181 -73.5zM306 64q81 0 121.5 56t40.5 158v144q0 96 -40.5 155t-121.5 59t-121.5 -59t-40.5 -155v-144q0 -102 40.5 -158t121.5 -56z
M164 774l80 118h124l80 -118h-84l-52 88h-12l-52 -88h-84z" />
    <glyph glyph-name="Otilde" unicode="&#xd5;" 
d="M306 -14q-115 0 -180.5 73.5t-65.5 212.5v156q0 135 65.5 210.5t180.5 75.5q116 0 181 -75.5t65 -210.5v-156q0 -139 -65 -212.5t-181 -73.5zM306 64q81 0 121.5 56t40.5 158v144q0 96 -40.5 155t-121.5 59t-121.5 -59t-40.5 -155v-144q0 -102 40.5 -158t121.5 -56z
M357 755q-25 0 -42 12t-31 35q-18 34 -33 34q-5 0 -11 -2.5t-15 -13.5l-41 -49l-49 42l42 49q14 17 32.5 29.5t45.5 12.5q29 0 44 -13t28 -35q12 -19 19.5 -26t14.5 -7q5 0 10.5 3t12.5 12l43 50l49 -42l-41 -49q-15 -18 -34.5 -30t-43.5 -12z" />
    <glyph glyph-name="Odieresis" unicode="&#xd6;" 
d="M306 -14q-115 0 -180.5 73.5t-65.5 212.5v156q0 135 65.5 210.5t180.5 75.5q116 0 181 -75.5t65 -210.5v-156q0 -139 -65 -212.5t-181 -73.5zM306 64q81 0 121.5 56t40.5 158v144q0 96 -40.5 155t-121.5 59t-121.5 -59t-40.5 -155v-144q0 -102 40.5 -158t121.5 -56z
M406 778q-28 0 -49 21t-21 49q0 29 21 49.5t49 20.5q29 0 49.5 -20.5t20.5 -49.5q0 -28 -20.5 -49t-49.5 -21zM206 778q-28 0 -49 21t-21 49q0 29 21 49.5t49 20.5q29 0 49.5 -20.5t20.5 -49.5q0 -28 -20.5 -49t-49.5 -21z" />
    <glyph glyph-name="multiply" unicode="&#xd7;" 
d="M159 152l-51 51l147 147l-147 147l51 51l147 -147l147 147l51 -51l-147 -147l147 -147l-51 -51l-147 147z" />
    <glyph glyph-name="Oslash" unicode="&#xd8;" 
d="M202 -86l-71 22l30 91q-49 34 -75 95.5t-26 149.5v156q0 135 65.5 210.5t180.5 75.5q40 0 78 -11l23 71l70 -22l-27 -81q49 -35 75.5 -96.5t26.5 -146.5v-156q0 -139 -65 -212.5t-181 -73.5q-44 0 -77 10zM189 113l170 515q-26 8 -53 8q-81 0 -121.5 -59t-40.5 -155v-144
q0 -109 45 -165zM306 64q81 0 121.5 56t40.5 158v144q0 104 -46 162l-168 -513q11 -4 24.5 -5.5t27.5 -1.5z" />
    <glyph glyph-name="Ugrave" unicode="&#xd9;" 
d="M306 -14q-111 0 -175.5 64.5t-64.5 185.5v464h84v-464q0 -84 40 -128t116 -44q77 0 116.5 44t39.5 128v464h84v-464q0 -121 -64.5 -185.5t-175.5 -64.5zM272 774l-84 118h90l66 -118h-72z" />
    <glyph glyph-name="Uacute" unicode="&#xda;" 
d="M306 -14q-111 0 -175.5 64.5t-64.5 185.5v464h84v-464q0 -84 40 -128t116 -44q77 0 116.5 44t39.5 128v464h84v-464q0 -121 -64.5 -185.5t-175.5 -64.5zM277 774l66 118h90l-84 -118h-72z" />
    <glyph glyph-name="Ucircumflex" unicode="&#xdb;" 
d="M306 -14q-111 0 -175.5 64.5t-64.5 185.5v464h84v-464q0 -84 40 -128t116 -44q77 0 116.5 44t39.5 128v464h84v-464q0 -121 -64.5 -185.5t-175.5 -64.5zM164 774l80 118h124l80 -118h-84l-52 88h-12l-52 -88h-84z" />
    <glyph glyph-name="Udieresis" unicode="&#xdc;" 
d="M306 -14q-111 0 -175.5 64.5t-64.5 185.5v464h84v-464q0 -84 40 -128t116 -44q77 0 116.5 44t39.5 128v464h84v-464q0 -121 -64.5 -185.5t-175.5 -64.5zM406 778q-28 0 -49 21t-21 49q0 29 21 49.5t49 20.5q29 0 49.5 -20.5t20.5 -49.5q0 -28 -20.5 -49t-49.5 -21z
M206 778q-28 0 -49 21t-21 49q0 29 21 49.5t49 20.5q29 0 49.5 -20.5t20.5 -49.5q0 -28 -20.5 -49t-49.5 -21z" />
    <glyph glyph-name="Yacute" unicode="&#xdd;" 
d="M264 0v246h-18l-219 454h94l179 -382h12l179 382h94l-219 -454h-18v-246h-84zM272 774l66 118h90l-84 -118h-72z" />
    <glyph glyph-name="Thorn" unicode="&#xde;" 
d="M85 0v700h84v-138h166q72 0 119.5 -26.5t71 -69.5t23.5 -94v-30q0 -51 -24 -94.5t-71.5 -70.5t-118.5 -27h-166v-150h-84zM169 228h156q140 0 140 120v18q0 53 -34.5 85.5t-105.5 32.5h-156v-256z" />
    <glyph glyph-name="germandbls" unicode="&#xdf;" 
d="M386 -14q-59 0 -97 23.5t-57 60.5t-20 76l74 12q0 -46 26.5 -73t69.5 -27q44 0 73.5 26t29.5 83q0 63 -42.5 89.5t-104.5 26.5h-54v147h22q50 0 79.5 27.5t29.5 74.5v5q0 47 -34 76t-82 29q-55 0 -89 -37t-34 -103v-502h-78v424h-60v72h60v14q0 64 26 109.5t71.5 70
t103.5 24.5q56 0 100 -21.5t69 -61t25 -94.5v-6q0 -52 -22 -87t-56.5 -53.5t-71.5 -23.5v-12h25q51 0 95.5 -21t72 -62.5t27.5 -101.5v-6q0 -53 -22.5 -93t-62.5 -62.5t-92 -22.5z" />
    <glyph glyph-name="agrave" unicode="&#xe0;" 
d="M279 -14q-65 0 -117.5 29.5t-83.5 86t-31 138.5v16q0 81 31 138t83.5 86.5t115.5 29.5q51 0 92.5 -22.5t65.5 -69.5h12v78h78v-394q0 -30 27 -30h25v-72h-53q-31 0 -54 20t-23 64h-12q-24 -49 -66.5 -73.5t-89.5 -24.5zM287 60q70 0 115 50t45 132v12q0 53 -21 94
t-57 64.5t-82 23.5t-82 -22.5t-57 -63t-21 -94.5v-16q0 -84 45 -132t115 -48zM255 570l-84 118h90l66 -118h-72z" />
    <glyph glyph-name="aacute" unicode="&#xe1;" 
d="M279 -14q-65 0 -117.5 29.5t-83.5 86t-31 138.5v16q0 81 31 138t83.5 86.5t115.5 29.5q51 0 92.5 -22.5t65.5 -69.5h12v78h78v-394q0 -30 27 -30h25v-72h-53q-31 0 -54 20t-23 64h-12q-24 -49 -66.5 -73.5t-89.5 -24.5zM287 60q70 0 115 50t45 132v12q0 53 -21 94
t-57 64.5t-82 23.5t-82 -22.5t-57 -63t-21 -94.5v-16q0 -84 45 -132t115 -48zM260 570l66 118h90l-84 -118h-72z" />
    <glyph glyph-name="acircumflex" unicode="&#xe2;" 
d="M279 -14q-65 0 -117.5 29.5t-83.5 86t-31 138.5v16q0 81 31 138t83.5 86.5t115.5 29.5q51 0 92.5 -22.5t65.5 -69.5h12v78h78v-394q0 -30 27 -30h25v-72h-53q-31 0 -54 20t-23 64h-12q-24 -49 -66.5 -73.5t-89.5 -24.5zM287 60q70 0 115 50t45 132v12q0 53 -21 94
t-57 64.5t-82 23.5t-82 -22.5t-57 -63t-21 -94.5v-16q0 -84 45 -132t115 -48zM147 570l80 118h124l80 -118h-84l-52 88h-12l-52 -88h-84z" />
    <glyph glyph-name="atilde" unicode="&#xe3;" 
d="M279 -14q-65 0 -117.5 29.5t-83.5 86t-31 138.5v16q0 81 31 138t83.5 86.5t115.5 29.5q51 0 92.5 -22.5t65.5 -69.5h12v78h78v-394q0 -30 27 -30h25v-72h-53q-31 0 -54 20t-23 64h-12q-24 -49 -66.5 -73.5t-89.5 -24.5zM287 60q70 0 115 50t45 132v12q0 53 -21 94
t-57 64.5t-82 23.5t-82 -22.5t-57 -63t-21 -94.5v-16q0 -84 45 -132t115 -48zM340 551q-25 0 -42 12t-31 35q-18 34 -33 34q-5 0 -11 -2.5t-15 -13.5l-41 -49l-49 42l42 49q14 17 32.5 29.5t45.5 12.5q29 0 44 -13t28 -35q12 -19 19.5 -26t14.5 -7q5 0 10.5 3t12.5 12l43 50
l49 -42l-41 -49q-15 -18 -34.5 -30t-43.5 -12z" />
    <glyph glyph-name="adieresis" unicode="&#xe4;" 
d="M279 -14q-65 0 -117.5 29.5t-83.5 86t-31 138.5v16q0 81 31 138t83.5 86.5t115.5 29.5q51 0 92.5 -22.5t65.5 -69.5h12v78h78v-394q0 -30 27 -30h25v-72h-53q-31 0 -54 20t-23 64h-12q-24 -49 -66.5 -73.5t-89.5 -24.5zM287 60q70 0 115 50t45 132v12q0 53 -21 94
t-57 64.5t-82 23.5t-82 -22.5t-57 -63t-21 -94.5v-16q0 -84 45 -132t115 -48zM389 574q-28 0 -49 21t-21 49q0 29 21 49.5t49 20.5q29 0 49.5 -20.5t20.5 -49.5q0 -28 -20.5 -49t-49.5 -21zM189 574q-28 0 -49 21t-21 49q0 29 21 49.5t49 20.5q29 0 49.5 -20.5t20.5 -49.5
q0 -28 -20.5 -49t-49.5 -21z" />
    <glyph glyph-name="aring" unicode="&#xe5;" 
d="M279 -14q-65 0 -117.5 29.5t-83.5 86t-31 138.5v16q0 81 31 138t83.5 86.5t115.5 29.5q51 0 92.5 -22.5t65.5 -69.5h12v78h78v-394q0 -30 27 -30h25v-72h-53q-31 0 -54 20t-23 64h-12q-24 -49 -66.5 -73.5t-89.5 -24.5zM287 60q70 0 115 50t45 132v12q0 53 -21 94
t-57 64.5t-82 23.5t-82 -22.5t-57 -63t-21 -94.5v-16q0 -84 45 -132t115 -48zM289 570q-43 0 -72.5 29.5t-29.5 72.5t29.5 72.5t72.5 29.5t72.5 -29.5t29.5 -72.5t-29.5 -72.5t-72.5 -29.5zM289 630q18 0 30 12t12 30t-12 30t-30 12t-30 -12t-12 -30t12 -30t30 -12z" />
    <glyph glyph-name="ae" unicode="&#xe6;" 
d="M246 -14q-82 0 -128 43.5t-46 104.5v12q0 47 23 80.5t63 51.5t90 18h15v141q-90 -11 -105 -107l-74 18q8 44 32.5 80.5t66 59t100.5 22.5h23q61 0 105.5 -22t73 -56t42 -72.5t13.5 -71.5v-64h-199v-162q53 8 80 35.5t39 64.5l74 -20q-21 -69 -77 -112.5t-151 -43.5h-60z
M341 296h121q-3 55 -38 90.5t-83 45.5v-136zM253 58h10v166h-6q-50 0 -79 -20t-29 -64q0 -37 27.5 -59.5t76.5 -22.5z" />
    <glyph glyph-name="ccedilla" unicode="&#xe7;" 
d="M338 -212q-43 0 -66 20t-31 50l48 18q3 -15 14.5 -27.5t33.5 -12.5q15 0 27.5 10t12.5 32q0 18 -10.5 28t-24.5 10q-18 0 -25 -14h-76v6l18 83q-56 11 -101.5 43t-72 84t-26.5 122v12q0 80 35.5 138t93.5 89t127 31q63 0 112.5 -24.5t81 -67.5t40.5 -98l-78 -18
q-4 35 -23 65.5t-52.5 49.5t-82.5 19q-48 0 -87.5 -23.5t-63 -65t-23.5 -95.5v-12q0 -56 23.5 -96.5t63.5 -62t89 -21.5t82.5 19.5t52 50t23.5 64.5l78 -18q-10 -55 -41 -98t-80.5 -67.5t-114.5 -24.5h-8l-12 -54h6q13 32 54 32q35 0 55.5 -25t20.5 -60q0 -41 -27 -66
t-66 -25z" />
    <glyph glyph-name="egrave" unicode="&#xe8;" 
d="M308 -14q-71 0 -125.5 32.5t-85.5 90t-31 133.5v24q0 70 32 125t87.5 87t124.5 32q61 0 105.5 -22t73 -56t42 -72.5t13.5 -71.5v-64h-400q3 -73 46.5 -118.5t119.5 -45.5q71 0 106 30t48 72l74 -20q-21 -69 -77.5 -112.5t-152.5 -43.5zM146 296h320q-2 43 -24.5 74.5
t-57.5 48.5t-74 17q-66 0 -111 -40t-53 -100zM272 570l-84 118h90l66 -118h-72z" />
    <glyph glyph-name="eacute" unicode="&#xe9;" 
d="M308 -14q-71 0 -125.5 32.5t-85.5 90t-31 133.5v24q0 70 32 125t87.5 87t124.5 32q61 0 105.5 -22t73 -56t42 -72.5t13.5 -71.5v-64h-400q3 -73 46.5 -118.5t119.5 -45.5q71 0 106 30t48 72l74 -20q-21 -69 -77.5 -112.5t-152.5 -43.5zM146 296h320q-2 43 -24.5 74.5
t-57.5 48.5t-74 17q-66 0 -111 -40t-53 -100zM277 570l66 118h90l-84 -118h-72z" />
    <glyph glyph-name="ecircumflex" unicode="&#xea;" 
d="M308 -14q-71 0 -125.5 32.5t-85.5 90t-31 133.5v24q0 70 32 125t87.5 87t124.5 32q61 0 105.5 -22t73 -56t42 -72.5t13.5 -71.5v-64h-400q3 -73 46.5 -118.5t119.5 -45.5q71 0 106 30t48 72l74 -20q-21 -69 -77.5 -112.5t-152.5 -43.5zM146 296h320q-2 43 -24.5 74.5
t-57.5 48.5t-74 17q-66 0 -111 -40t-53 -100zM164 570l80 118h124l80 -118h-84l-52 88h-12l-52 -88h-84z" />
    <glyph glyph-name="edieresis" unicode="&#xeb;" 
d="M308 -14q-71 0 -125.5 32.5t-85.5 90t-31 133.5v24q0 70 32 125t87.5 87t124.5 32q61 0 105.5 -22t73 -56t42 -72.5t13.5 -71.5v-64h-400q3 -73 46.5 -118.5t119.5 -45.5q71 0 106 30t48 72l74 -20q-21 -69 -77.5 -112.5t-152.5 -43.5zM146 296h320q-2 43 -24.5 74.5
t-57.5 48.5t-74 17q-66 0 -111 -40t-53 -100zM406 574q-28 0 -49 21t-21 49q0 29 21 49.5t49 20.5q29 0 49.5 -20.5t20.5 -49.5q0 -28 -20.5 -49t-49.5 -21zM206 574q-28 0 -49 21t-21 49q0 29 21 49.5t49 20.5q29 0 49.5 -20.5t20.5 -49.5q0 -28 -20.5 -49t-49.5 -21z" />
    <glyph glyph-name="igrave" unicode="&#xec;" 
d="M99 0v72h174v352h-156v72h234v-424h162v-72h-414zM255 570l-84 118h90l66 -118h-72z" />
    <glyph glyph-name="iacute" unicode="&#xed;" 
d="M99 0v72h174v352h-156v72h234v-424h162v-72h-414zM260 570l66 118h90l-84 -118h-72z" />
    <glyph glyph-name="icircumflex" unicode="&#xee;" 
d="M99 0v72h174v352h-156v72h234v-424h162v-72h-414zM147 570l80 118h124l80 -118h-84l-52 88h-12l-52 -88h-84z" />
    <glyph glyph-name="idieresis" unicode="&#xef;" 
d="M99 0v72h174v352h-156v72h234v-424h162v-72h-414zM389 574q-28 0 -49 21t-21 49q0 29 21 49.5t49 20.5q29 0 49.5 -20.5t20.5 -49.5q0 -28 -20.5 -49t-49.5 -21zM189 574q-28 0 -49 21t-21 49q0 29 21 49.5t49 20.5q29 0 49.5 -20.5t20.5 -49.5q0 -28 -20.5 -49
t-49.5 -21z" />
    <glyph glyph-name="eth" unicode="&#xf0;" 
d="M306 -14q-66 0 -122.5 30t-91.5 87t-35 139v12q0 81 34 138.5t88.5 87.5t114.5 30q51 0 87.5 -20t54.5 -50h12q-13 49 -45 85.5t-74 61.5l-19 -40l-64 29l19 40q-50 18 -105 24l18 74q32 -4 62 -11.5t58 -17.5l18 37l63 -29l-18 -37q69 -37 111.5 -97t62.5 -133.5
t20 -154.5q0 -95 -33.5 -158.5t-90 -95t-125.5 -31.5zM306 60q48 0 86 22.5t60.5 66t22.5 105.5q0 54 -22.5 95t-61 64t-85.5 23t-85.5 -23t-61 -64t-22.5 -95v-12q0 -56 22.5 -97t61 -63t85.5 -22z" />
    <glyph glyph-name="ntilde" unicode="&#xf1;" 
d="M87 0v496h78v-84h12q46 98 160 98q86 0 137 -53.5t51 -160.5v-296h-78v280q0 78 -35 117t-95 39q-70 0 -111 -48.5t-41 -129.5v-258h-78zM377 551q-25 0 -42 12t-31 35q-18 34 -33 34q-5 0 -11 -2.5t-15 -13.5l-41 -49l-49 42l42 49q14 17 32.5 29.5t45.5 12.5
q29 0 44 -13t28 -35q12 -19 19.5 -26t14.5 -7q5 0 10.5 3t12.5 12l43 50l49 -42l-41 -49q-15 -18 -34.5 -30t-43.5 -12z" />
    <glyph glyph-name="ograve" unicode="&#xf2;" 
d="M306 -14q-66 0 -122.5 30t-91.5 87t-35 139v12q0 81 35 138.5t91.5 87.5t122.5 30t122.5 -30t91.5 -87.5t35 -138.5v-12q0 -82 -35 -139t-91.5 -87t-122.5 -30zM306 60q48 0 86 22t60.5 63t22.5 97v12q0 54 -22.5 95t-61 64t-85.5 23t-85.5 -23t-61 -64t-22.5 -95v-12
q0 -56 22.5 -97t61 -63t85.5 -22zM272 570l-84 118h90l66 -118h-72z" />
    <glyph glyph-name="oacute" unicode="&#xf3;" 
d="M306 -14q-66 0 -122.5 30t-91.5 87t-35 139v12q0 81 35 138.5t91.5 87.5t122.5 30t122.5 -30t91.5 -87.5t35 -138.5v-12q0 -82 -35 -139t-91.5 -87t-122.5 -30zM306 60q48 0 86 22t60.5 63t22.5 97v12q0 54 -22.5 95t-61 64t-85.5 23t-85.5 -23t-61 -64t-22.5 -95v-12
q0 -56 22.5 -97t61 -63t85.5 -22zM277 570l66 118h90l-84 -118h-72z" />
    <glyph glyph-name="ocircumflex" unicode="&#xf4;" 
d="M306 -14q-66 0 -122.5 30t-91.5 87t-35 139v12q0 81 35 138.5t91.5 87.5t122.5 30t122.5 -30t91.5 -87.5t35 -138.5v-12q0 -82 -35 -139t-91.5 -87t-122.5 -30zM306 60q48 0 86 22t60.5 63t22.5 97v12q0 54 -22.5 95t-61 64t-85.5 23t-85.5 -23t-61 -64t-22.5 -95v-12
q0 -56 22.5 -97t61 -63t85.5 -22zM164 570l80 118h124l80 -118h-84l-52 88h-12l-52 -88h-84z" />
    <glyph glyph-name="otilde" unicode="&#xf5;" 
d="M306 -14q-66 0 -122.5 30t-91.5 87t-35 139v12q0 81 35 138.5t91.5 87.5t122.5 30t122.5 -30t91.5 -87.5t35 -138.5v-12q0 -82 -35 -139t-91.5 -87t-122.5 -30zM306 60q48 0 86 22t60.5 63t22.5 97v12q0 54 -22.5 95t-61 64t-85.5 23t-85.5 -23t-61 -64t-22.5 -95v-12
q0 -56 22.5 -97t61 -63t85.5 -22zM357 551q-25 0 -42 12t-31 35q-18 34 -33 34q-5 0 -11 -2.5t-15 -13.5l-41 -49l-49 42l42 49q14 17 32.5 29.5t45.5 12.5q29 0 44 -13t28 -35q12 -19 19.5 -26t14.5 -7q5 0 10.5 3t12.5 12l43 50l49 -42l-41 -49q-15 -18 -34.5 -30
t-43.5 -12z" />
    <glyph glyph-name="odieresis" unicode="&#xf6;" 
d="M306 -14q-66 0 -122.5 30t-91.5 87t-35 139v12q0 81 35 138.5t91.5 87.5t122.5 30t122.5 -30t91.5 -87.5t35 -138.5v-12q0 -82 -35 -139t-91.5 -87t-122.5 -30zM306 60q48 0 86 22t60.5 63t22.5 97v12q0 54 -22.5 95t-61 64t-85.5 23t-85.5 -23t-61 -64t-22.5 -95v-12
q0 -56 22.5 -97t61 -63t85.5 -22zM406 574q-28 0 -49 21t-21 49q0 29 21 49.5t49 20.5q29 0 49.5 -20.5t20.5 -49.5q0 -28 -20.5 -49t-49.5 -21zM206 574q-28 0 -49 21t-21 49q0 29 21 49.5t49 20.5q29 0 49.5 -20.5t20.5 -49.5q0 -28 -20.5 -49t-49.5 -21z" />
    <glyph glyph-name="divide" unicode="&#xf7;" 
d="M306 446q-28 0 -49 21t-21 49q0 29 21 49.5t49 20.5q29 0 49.5 -20.5t20.5 -49.5q0 -28 -20.5 -49t-49.5 -21zM97 314v72h418v-72h-418zM306 114q-28 0 -49 21t-21 49q0 29 21 49.5t49 20.5q29 0 49.5 -20.5t20.5 -49.5q0 -28 -20.5 -49t-49.5 -21z" />
    <glyph glyph-name="oslash" unicode="&#xf8;" 
d="M242 -68l-71 22l19 58q-58 29 -95.5 87t-37.5 143v12q0 81 35 138.5t91.5 87.5t122.5 30q11 0 23 -1t23 -3l17 52l70 -22l-17 -53q58 -29 95.5 -87.5t37.5 -141.5v-12q0 -82 -35 -139t-91.5 -87t-122.5 -30q-12 0 -23 1t-22 3zM214 86l114 349q-5 1 -11 1h-11
q-47 0 -85.5 -23t-61 -64t-22.5 -95v-12q0 -54 21 -93.5t56 -62.5zM306 60q48 0 86 22t60.5 63t22.5 97v12q0 52 -21.5 92t-56.5 63l-113 -348q5 -1 10.5 -1h11.5z" />
    <glyph glyph-name="ugrave" unicode="&#xf9;" 
d="M267 -14q-82 0 -134 54t-52 160v296h78v-286q0 -78 32 -114t98 -36q71 0 111.5 48.5t40.5 129.5v258h78v-496h-78v90h-12q-24 -48 -63 -76t-99 -28zM262 570l-84 118h90l66 -118h-72z" />
    <glyph glyph-name="uacute" unicode="&#xfa;" 
d="M267 -14q-82 0 -134 54t-52 160v296h78v-286q0 -78 32 -114t98 -36q71 0 111.5 48.5t40.5 129.5v258h78v-496h-78v90h-12q-24 -48 -63 -76t-99 -28zM267 570l66 118h90l-84 -118h-72z" />
    <glyph glyph-name="ucircumflex" unicode="&#xfb;" 
d="M267 -14q-82 0 -134 54t-52 160v296h78v-286q0 -78 32 -114t98 -36q71 0 111.5 48.5t40.5 129.5v258h78v-496h-78v90h-12q-24 -48 -63 -76t-99 -28zM154 570l80 118h124l80 -118h-84l-52 88h-12l-52 -88h-84z" />
    <glyph glyph-name="udieresis" unicode="&#xfc;" 
d="M267 -14q-82 0 -134 54t-52 160v296h78v-286q0 -78 32 -114t98 -36q71 0 111.5 48.5t40.5 129.5v258h78v-496h-78v90h-12q-24 -48 -63 -76t-99 -28zM396 574q-28 0 -49 21t-21 49q0 29 21 49.5t49 20.5q29 0 49.5 -20.5t20.5 -49.5q0 -28 -20.5 -49t-49.5 -21zM196 574
q-28 0 -49 21t-21 49q0 29 21 49.5t49 20.5q29 0 49.5 -20.5t20.5 -49.5q0 -28 -20.5 -49t-49.5 -21z" />
    <glyph glyph-name="yacute" unicode="&#xfd;" 
d="M165 -200v72h255q27 0 27 30v188h-12q-24 -48 -63 -76t-99 -28q-82 0 -134 54t-52 160v296h78v-286q0 -78 32 -114t98 -36q71 0 111.5 48.5t40.5 129.5v258h78v-618q0 -34 -21.5 -56t-55.5 -22h-283zM267 570l66 118h90l-84 -118h-72z" />
    <glyph glyph-name="thorn" unicode="&#xfe;" 
d="M69 -200v900h78v-282h12q26 45 72 68.5t100 23.5q61 0 113 -29.5t83.5 -86t31.5 -136.5v-20q0 -81 -31 -137t-83.5 -85.5t-115.5 -29.5q-48 0 -96 22.5t-74 67.5h-12v-276h-78zM313 60q71 0 118.5 48t47.5 130v20q0 53 -22 93t-59.5 62.5t-84.5 22.5q-46 0 -83.5 -23.5
t-60 -64.5t-22.5 -94v-12q0 -55 22 -96t60 -63.5t84 -22.5z" />
    <glyph glyph-name="ydieresis" unicode="&#xff;" 
d="M165 -200v72h255q27 0 27 30v188h-12q-24 -48 -63 -76t-99 -28q-82 0 -134 54t-52 160v296h78v-286q0 -78 32 -114t98 -36q71 0 111.5 48.5t40.5 129.5v258h78v-618q0 -34 -21.5 -56t-55.5 -22h-283zM396 574q-28 0 -49 21t-21 49q0 29 21 49.5t49 20.5q29 0 49.5 -20.5
t20.5 -49.5q0 -28 -20.5 -49t-49.5 -21zM196 574q-28 0 -49 21t-21 49q0 29 21 49.5t49 20.5q29 0 49.5 -20.5t20.5 -49.5q0 -28 -20.5 -49t-49.5 -21z" />
    <glyph glyph-name="Amacron" unicode="&#x100;" 
d="M15 0l212 700h158l212 -700h-90l-51 174h-300l-51 -174h-90zM179 252h254l-121 412h-12zM175 774v66h262v-66h-262z" />
    <glyph glyph-name="amacron" unicode="&#x101;" 
d="M279 -14q-65 0 -117.5 29.5t-83.5 86t-31 138.5v16q0 81 31 138t83.5 86.5t115.5 29.5q51 0 92.5 -22.5t65.5 -69.5h12v78h78v-394q0 -30 27 -30h25v-72h-53q-31 0 -54 20t-23 64h-12q-24 -49 -66.5 -73.5t-89.5 -24.5zM287 60q70 0 115 50t45 132v12q0 53 -21 94
t-57 64.5t-82 23.5t-82 -22.5t-57 -63t-21 -94.5v-16q0 -84 45 -132t115 -48zM158 570v66h262v-66h-262z" />
    <glyph glyph-name="Abreve" unicode="&#x102;" 
d="M15 0l212 700h158l212 -700h-90l-51 174h-300l-51 -174h-90zM179 252h254l-121 412h-12zM306 774q-49 0 -78.5 30t-29.5 78v10h69v-12q0 -16 10 -27.5t29 -11.5t29 11.5t10 27.5v12h69v-10q0 -48 -29 -78t-79 -30z" />
    <glyph glyph-name="abreve" unicode="&#x103;" 
d="M279 -14q-65 0 -117.5 29.5t-83.5 86t-31 138.5v16q0 81 31 138t83.5 86.5t115.5 29.5q51 0 92.5 -22.5t65.5 -69.5h12v78h78v-394q0 -30 27 -30h25v-72h-53q-31 0 -54 20t-23 64h-12q-24 -49 -66.5 -73.5t-89.5 -24.5zM287 60q70 0 115 50t45 132v12q0 53 -21 94
t-57 64.5t-82 23.5t-82 -22.5t-57 -63t-21 -94.5v-16q0 -84 45 -132t115 -48zM289 570q-49 0 -78.5 30t-29.5 78v10h69v-12q0 -16 10 -27.5t29 -11.5t29 11.5t10 27.5v12h69v-10q0 -48 -29 -78t-79 -30z" />
    <glyph glyph-name="Aogonek" unicode="&#x104;" 
d="M568 -164q-29 0 -53.5 18.5t-24.5 55.5q0 9 3 24l14 66l-51 174h-300l-51 -174h-90l212 700h158l212 -700h-21l-16 -68q-1 -4 -1 -5.5v-2.5q0 -22 23 -22h42v-66h-56zM179 252h254l-121 412h-12z" />
    <glyph glyph-name="aogonek" unicode="&#x105;" 
d="M521 -164q-29 0 -53.5 18.5t-24.5 55.5q0 9 3 24l20 91q-19 21 -19 53v6h-12q-24 -49 -66.5 -73.5t-89.5 -24.5q-65 0 -117.5 29.5t-83.5 86t-31 138.5v16q0 81 31 138t83.5 86.5t115.5 29.5q51 0 92.5 -22.5t65.5 -69.5h12v78h78v-394q0 -30 27 -30h25v-72h-48l-16 -68
q-1 -4 -1 -5.5v-2.5q0 -22 23 -22h42v-66h-56zM287 60q70 0 115 50t45 132v12q0 53 -21 94t-57 64.5t-82 23.5t-82 -22.5t-57 -63t-21 -94.5v-16q0 -84 45 -132t115 -48z" />
    <glyph glyph-name="Cacute" unicode="&#x106;" 
d="M310 -14q-115 0 -180.5 73.5t-65.5 212.5v156q0 135 65.5 210.5t180.5 75.5q80 0 135 -34t83 -91.5t28 -128.5v-12h-84v12q-1 46 -17.5 86t-52 65t-92.5 25q-81 0 -121.5 -59t-40.5 -155v-144q0 -102 40.5 -158t121.5 -56q57 0 93 25t52.5 65t16.5 86v12h84v-12
q0 -71 -28 -128.5t-83 -91.5t-135 -34zM277 774l66 118h90l-84 -118h-72z" />
    <glyph glyph-name="cacute" unicode="&#x107;" 
d="M315 -14q-69 0 -127 29.5t-93.5 86.5t-35.5 138v12q0 80 35.5 138t93.5 89t127 31q63 0 112.5 -24.5t81 -67.5t40.5 -98l-78 -18q-4 35 -23 65.5t-52.5 49.5t-82.5 19q-48 0 -87.5 -23.5t-63 -65t-23.5 -95.5v-12q0 -56 23.5 -96.5t63.5 -62t89 -21.5t82.5 19.5t52 50
t23.5 64.5l78 -18q-10 -55 -41 -98t-80.5 -67.5t-114.5 -24.5zM277 570l66 118h90l-84 -118h-72z" />
    <glyph glyph-name="Ccircumflex" unicode="&#x108;" 
d="M310 -14q-115 0 -180.5 73.5t-65.5 212.5v156q0 135 65.5 210.5t180.5 75.5q80 0 135 -34t83 -91.5t28 -128.5v-12h-84v12q-1 46 -17.5 86t-52 65t-92.5 25q-81 0 -121.5 -59t-40.5 -155v-144q0 -102 40.5 -158t121.5 -56q57 0 93 25t52.5 65t16.5 86v12h84v-12
q0 -71 -28 -128.5t-83 -91.5t-135 -34zM164 774l80 118h124l80 -118h-84l-52 88h-12l-52 -88h-84z" />
    <glyph glyph-name="ccircumflex" unicode="&#x109;" 
d="M315 -14q-69 0 -127 29.5t-93.5 86.5t-35.5 138v12q0 80 35.5 138t93.5 89t127 31q63 0 112.5 -24.5t81 -67.5t40.5 -98l-78 -18q-4 35 -23 65.5t-52.5 49.5t-82.5 19q-48 0 -87.5 -23.5t-63 -65t-23.5 -95.5v-12q0 -56 23.5 -96.5t63.5 -62t89 -21.5t82.5 19.5t52 50
t23.5 64.5l78 -18q-10 -55 -41 -98t-80.5 -67.5t-114.5 -24.5zM164 570l80 118h124l80 -118h-84l-52 88h-12l-52 -88h-84z" />
    <glyph glyph-name="Cdotaccent" unicode="&#x10a;" 
d="M310 -14q-115 0 -180.5 73.5t-65.5 212.5v156q0 135 65.5 210.5t180.5 75.5q80 0 135 -34t83 -91.5t28 -128.5v-12h-84v12q-1 46 -17.5 86t-52 65t-92.5 25q-81 0 -121.5 -59t-40.5 -155v-144q0 -102 40.5 -158t121.5 -56q57 0 93 25t52.5 65t16.5 86v12h84v-12
q0 -71 -28 -128.5t-83 -91.5t-135 -34zM306 778q-28 0 -49 21t-21 49q0 29 21 49.5t49 20.5q29 0 49.5 -20.5t20.5 -49.5q0 -28 -20.5 -49t-49.5 -21z" />
    <glyph glyph-name="cdotaccent" unicode="&#x10b;" 
d="M315 -14q-69 0 -127 29.5t-93.5 86.5t-35.5 138v12q0 80 35.5 138t93.5 89t127 31q63 0 112.5 -24.5t81 -67.5t40.5 -98l-78 -18q-4 35 -23 65.5t-52.5 49.5t-82.5 19q-48 0 -87.5 -23.5t-63 -65t-23.5 -95.5v-12q0 -56 23.5 -96.5t63.5 -62t89 -21.5t82.5 19.5t52 50
t23.5 64.5l78 -18q-10 -55 -41 -98t-80.5 -67.5t-114.5 -24.5zM306 574q-28 0 -49 21t-21 49q0 29 21 49.5t49 20.5q29 0 49.5 -20.5t20.5 -49.5q0 -28 -20.5 -49t-49.5 -21z" />
    <glyph glyph-name="Ccaron" unicode="&#x10c;" 
d="M310 -14q-115 0 -180.5 73.5t-65.5 212.5v156q0 135 65.5 210.5t180.5 75.5q80 0 135 -34t83 -91.5t28 -128.5v-12h-84v12q-1 46 -17.5 86t-52 65t-92.5 25q-81 0 -121.5 -59t-40.5 -155v-144q0 -102 40.5 -158t121.5 -56q57 0 93 25t52.5 65t16.5 86v12h84v-12
q0 -71 -28 -128.5t-83 -91.5t-135 -34zM244 774l-80 118h84l52 -88h12l52 88h84l-80 -118h-124z" />
    <glyph glyph-name="ccaron" unicode="&#x10d;" 
d="M315 -14q-69 0 -127 29.5t-93.5 86.5t-35.5 138v12q0 80 35.5 138t93.5 89t127 31q63 0 112.5 -24.5t81 -67.5t40.5 -98l-78 -18q-4 35 -23 65.5t-52.5 49.5t-82.5 19q-48 0 -87.5 -23.5t-63 -65t-23.5 -95.5v-12q0 -56 23.5 -96.5t63.5 -62t89 -21.5t82.5 19.5t52 50
t23.5 64.5l78 -18q-10 -55 -41 -98t-80.5 -67.5t-114.5 -24.5zM244 570l-80 118h84l52 -88h12l52 88h84l-80 -118h-124z" />
    <glyph glyph-name="Dcaron" unicode="&#x10e;" 
d="M73 0v79h60v543h-60v78h230q129 0 189.5 -62.5t60.5 -197.5v-180q0 -135 -60.5 -197.5t-189.5 -62.5h-230zM217 78h74q61 0 100.5 16.5t58.5 57.5t19 114v168q0 73 -19 114t-58.5 57.5t-100.5 16.5h-74v-544zM244 774l-80 118h84l52 -88h12l52 88h84l-80 -118h-124z" />
    <glyph glyph-name="dcaron" unicode="&#x10f;" 
d="M210 -14q-53 0 -95 29t-66.5 85.5t-24.5 139.5v16q0 85 25.5 141.5t67.5 84.5t93 28q47 0 76 -19t42 -49h12v258h78v-700h-78v58h-12q-10 -31 -38.5 -51.5t-79.5 -20.5zM466 454v54h47q27 0 27 30v25q-7 -3 -17 -3q-28 0 -48.5 21t-20.5 49q0 29 21 49.5t49 20.5
q29 0 49.5 -20.5t20.5 -49.5v-98q0 -34 -21.5 -56t-55.5 -22h-51zM220 60q46 0 72 24t37 65t11 93v12q0 50 -10.5 91.5t-36 66t-71.5 24.5q-55 0 -86.5 -45.5t-31.5 -134.5v-16q0 -87 30.5 -133.5t85.5 -46.5z" />
    <glyph glyph-name="Dcroat" unicode="&#x110;" 
d="M73 0v78h60v233h-60v78h60v233h-60v78h230q129 0 189.5 -62.5t60.5 -197.5v-180q0 -135 -60.5 -197.5t-189.5 -62.5h-230zM217 78h74q61 0 100.5 16.5t58.5 57.5t19 114v168q0 73 -19 114t-58.5 57.5t-100.5 16.5h-74v-233h108v-78h-108v-233z" />
    <glyph glyph-name="dcroat" unicode="&#x111;" 
d="M297 -14q-66 0 -120 29.5t-86 86.5t-32 138v16q0 81 32.5 137.5t86 86.5t117.5 30q51 0 95.5 -22.5t68.5 -69.5h12v144h-176v72h176v66h78v-66h60v-72h-60v-562h-78v76h-12q-24 -46 -70.5 -68t-91.5 -22zM305 60q47 0 84.5 22.5t59.5 63.5t22 96v12q0 53 -22.5 94
t-60 64.5t-83.5 23.5q-47 0 -84.5 -22.5t-59.5 -63t-22 -94.5v-16q0 -55 21.5 -95.5t59.5 -62.5t85 -22z" />
    <glyph glyph-name="Emacron" unicode="&#x112;" 
d="M94 0v700h424v-78h-340v-232h334v-78h-334v-234h346v-78h-430zM175 774v66h262v-66h-262z" />
    <glyph glyph-name="emacron" unicode="&#x113;" 
d="M308 -14q-71 0 -125.5 32.5t-85.5 90t-31 133.5v24q0 70 32 125t87.5 87t124.5 32q61 0 105.5 -22t73 -56t42 -72.5t13.5 -71.5v-64h-400q3 -73 46.5 -118.5t119.5 -45.5q71 0 106 30t48 72l74 -20q-21 -69 -77.5 -112.5t-152.5 -43.5zM146 296h320q-2 43 -24.5 74.5
t-57.5 48.5t-74 17q-66 0 -111 -40t-53 -100zM175 570v66h262v-66h-262z" />
    <glyph glyph-name="Ebreve" unicode="&#x114;" 
d="M94 0v700h424v-78h-340v-232h334v-78h-334v-234h346v-78h-430zM306 774q-49 0 -78.5 30t-29.5 78v10h69v-12q0 -16 10 -27.5t29 -11.5t29 11.5t10 27.5v12h69v-10q0 -48 -29 -78t-79 -30z" />
    <glyph glyph-name="ebreve" unicode="&#x115;" 
d="M308 -14q-71 0 -125.5 32.5t-85.5 90t-31 133.5v24q0 70 32 125t87.5 87t124.5 32q61 0 105.5 -22t73 -56t42 -72.5t13.5 -71.5v-64h-400q3 -73 46.5 -118.5t119.5 -45.5q71 0 106 30t48 72l74 -20q-21 -69 -77.5 -112.5t-152.5 -43.5zM146 296h320q-2 43 -24.5 74.5
t-57.5 48.5t-74 17q-66 0 -111 -40t-53 -100zM306 570q-49 0 -78.5 30t-29.5 78v10h69v-12q0 -16 10 -27.5t29 -11.5t29 11.5t10 27.5v12h69v-10q0 -48 -29 -78t-79 -30z" />
    <glyph glyph-name="Edotaccent" unicode="&#x116;" 
d="M94 0v700h424v-78h-340v-232h334v-78h-334v-234h346v-78h-430zM306 778q-28 0 -49 21t-21 49q0 29 21 49.5t49 20.5q29 0 49.5 -20.5t20.5 -49.5q0 -28 -20.5 -49t-49.5 -21z" />
    <glyph glyph-name="edotaccent" unicode="&#x117;" 
d="M308 -14q-71 0 -125.5 32.5t-85.5 90t-31 133.5v24q0 70 32 125t87.5 87t124.5 32q61 0 105.5 -22t73 -56t42 -72.5t13.5 -71.5v-64h-400q3 -73 46.5 -118.5t119.5 -45.5q71 0 106 30t48 72l74 -20q-21 -69 -77.5 -112.5t-152.5 -43.5zM146 296h320q-2 43 -24.5 74.5
t-57.5 48.5t-74 17q-66 0 -111 -40t-53 -100zM306 574q-28 0 -49 21t-21 49q0 29 21 49.5t49 20.5q29 0 49.5 -20.5t20.5 -49.5q0 -28 -20.5 -49t-49.5 -21z" />
    <glyph glyph-name="Eogonek" unicode="&#x118;" 
d="M516 -164q-30 0 -54 18.5t-24 55.5q0 9 3 24l14 66h-361v700h424v-78h-340v-232h334v-78h-334v-234h346v-78l-16 -68q-1 -4 -1 -5.5v-2.5q0 -22 23 -22h42v-66h-56z" />
    <glyph glyph-name="eogonek" unicode="&#x119;" 
d="M334 -164q-29 0 -53.5 18.5t-24.5 55.5q0 9 3 24l12 54q-61 8 -107.5 42t-72.5 88.5t-26 123.5v24q0 70 32 125t87.5 87t124.5 32q61 0 105.5 -22t73 -56t42 -72.5t13.5 -71.5v-64h-400q3 -73 46.5 -118.5t119.5 -45.5q71 0 106 30t48 72l74 -20q-19 -63 -68 -104.5
t-130 -49.5l-13 -56q-1 -4 -1 -5.5v-2.5q0 -22 23 -22h42v-66h-56zM145 296h320q-2 43 -24.5 74.5t-57.5 48.5t-74 17q-66 0 -111 -40t-53 -100z" />
    <glyph glyph-name="Ecaron" unicode="&#x11a;" 
d="M94 0v700h424v-78h-340v-232h334v-78h-334v-234h346v-78h-430zM244 774l-80 118h84l52 -88h12l52 88h84l-80 -118h-124z" />
    <glyph glyph-name="ecaron" unicode="&#x11b;" 
d="M308 -14q-71 0 -125.5 32.5t-85.5 90t-31 133.5v24q0 70 32 125t87.5 87t124.5 32q61 0 105.5 -22t73 -56t42 -72.5t13.5 -71.5v-64h-400q3 -73 46.5 -118.5t119.5 -45.5q71 0 106 30t48 72l74 -20q-21 -69 -77.5 -112.5t-152.5 -43.5zM146 296h320q-2 43 -24.5 74.5
t-57.5 48.5t-74 17q-66 0 -111 -40t-53 -100zM244 570l-80 118h84l52 -88h12l52 88h84l-80 -118h-124z" />
    <glyph glyph-name="Gcircumflex" unicode="&#x11c;" 
d="M301 -14q-112 0 -177 73.5t-65 212.5v156q0 135 65.5 210.5t180.5 75.5q80 0 135 -34t83 -91.5t28 -128.5v-12h-84v12q0 46 -16.5 86t-52.5 65t-93 25q-81 0 -121.5 -59t-40.5 -155v-144q0 -102 41 -158t123 -56q74 0 117 48.5t43 133.5v12h-228v78h312v-336h-78v84h-12
q-16 -43 -59.5 -70.5t-100.5 -27.5zM164 774l80 118h124l80 -118h-84l-52 88h-12l-52 -88h-84z" />
    <glyph glyph-name="gcircumflex" unicode="&#x11d;" 
d="M142 -200v72h295q27 0 27 30v174h-12q-24 -45 -65.5 -67.5t-90.5 -22.5q-66 0 -121.5 29.5t-89 86.5t-33.5 138v16q0 81 34 137.5t89 86.5t119 30q54 0 95 -23.5t63 -68.5h12v78h78v-618q0 -34 -21.5 -56t-55.5 -22h-323zM298 60q47 0 84.5 22.5t59.5 63.5t22 96v12
q0 53 -22.5 94t-60 64.5t-83.5 23.5q-47 0 -84.5 -22.5t-59.5 -63t-22 -94.5v-16q0 -55 21.5 -95.5t59 -62.5t85.5 -22zM153 570l80 118h124l80 -118h-84l-52 88h-12l-52 -88h-84z" />
    <glyph glyph-name="Gbreve" unicode="&#x11e;" 
d="M301 -14q-112 0 -177 73.5t-65 212.5v156q0 135 65.5 210.5t180.5 75.5q80 0 135 -34t83 -91.5t28 -128.5v-12h-84v12q0 46 -16.5 86t-52.5 65t-93 25q-81 0 -121.5 -59t-40.5 -155v-144q0 -102 41 -158t123 -56q74 0 117 48.5t43 133.5v12h-228v78h312v-336h-78v84h-12
q-16 -43 -59.5 -70.5t-100.5 -27.5zM306 774q-49 0 -78.5 30t-29.5 78v10h69v-12q0 -16 10 -27.5t29 -11.5t29 11.5t10 27.5v12h69v-10q0 -48 -29 -78t-79 -30z" />
    <glyph glyph-name="gbreve" unicode="&#x11f;" 
d="M142 -200v72h295q27 0 27 30v174h-12q-24 -45 -65.5 -67.5t-90.5 -22.5q-66 0 -121.5 29.5t-89 86.5t-33.5 138v16q0 81 34 137.5t89 86.5t119 30q54 0 95 -23.5t63 -68.5h12v78h78v-618q0 -34 -21.5 -56t-55.5 -22h-323zM298 60q47 0 84.5 22.5t59.5 63.5t22 96v12
q0 53 -22.5 94t-60 64.5t-83.5 23.5q-47 0 -84.5 -22.5t-59.5 -63t-22 -94.5v-16q0 -55 21.5 -95.5t59 -62.5t85.5 -22zM295 570q-49 0 -78.5 30t-29.5 78v10h69v-12q0 -16 10 -27.5t29 -11.5t29 11.5t10 27.5v12h69v-10q0 -48 -29 -78t-79 -30z" />
    <glyph glyph-name="Gdotaccent" unicode="&#x120;" 
d="M301 -14q-112 0 -177 73.5t-65 212.5v156q0 135 65.5 210.5t180.5 75.5q80 0 135 -34t83 -91.5t28 -128.5v-12h-84v12q0 46 -16.5 86t-52.5 65t-93 25q-81 0 -121.5 -59t-40.5 -155v-144q0 -102 41 -158t123 -56q74 0 117 48.5t43 133.5v12h-228v78h312v-336h-78v84h-12
q-16 -43 -59.5 -70.5t-100.5 -27.5zM306 778q-28 0 -49 21t-21 49q0 29 21 49.5t49 20.5q29 0 49.5 -20.5t20.5 -49.5q0 -28 -20.5 -49t-49.5 -21z" />
    <glyph glyph-name="gdotaccent" unicode="&#x121;" 
d="M142 -200v72h295q27 0 27 30v174h-12q-24 -45 -65.5 -67.5t-90.5 -22.5q-66 0 -121.5 29.5t-89 86.5t-33.5 138v16q0 81 34 137.5t89 86.5t119 30q54 0 95 -23.5t63 -68.5h12v78h78v-618q0 -34 -21.5 -56t-55.5 -22h-323zM298 60q47 0 84.5 22.5t59.5 63.5t22 96v12
q0 53 -22.5 94t-60 64.5t-83.5 23.5q-47 0 -84.5 -22.5t-59.5 -63t-22 -94.5v-16q0 -55 21.5 -95.5t59 -62.5t85.5 -22zM295 574q-28 0 -49 21t-21 49q0 29 21 49.5t49 20.5q29 0 49.5 -20.5t20.5 -49.5q0 -28 -20.5 -49t-49.5 -21z" />
    <glyph glyph-name="uni0122" unicode="&#x122;" 
d="M301 -14q-112 0 -177 73.5t-65 212.5v156q0 135 65.5 210.5t180.5 75.5q80 0 135 -34t83 -91.5t28 -128.5v-12h-84v12q0 46 -16.5 86t-52.5 65t-93 25q-81 0 -121.5 -59t-40.5 -155v-144q0 -102 41 -158t123 -56q74 0 117 48.5t43 133.5v12h-228v78h312v-336h-78v84h-12
q-16 -43 -59.5 -70.5t-100.5 -27.5zM246 -292v54h47q27 0 27 30v25q-7 -3 -17 -3q-28 0 -48.5 21t-20.5 49q0 29 21 49.5t49 20.5q29 0 49.5 -20.5t20.5 -49.5v-98q0 -34 -21.5 -56t-55.5 -22h-51z" />
    <glyph glyph-name="uni0123" unicode="&#x123;" 
d="M142 -200v72h295q27 0 27 30v174h-12q-24 -45 -65.5 -67.5t-90.5 -22.5q-66 0 -121.5 29.5t-89 86.5t-33.5 138v16q0 81 34 137.5t89 86.5t119 30q54 0 95 -23.5t63 -68.5h12v78h78v-618q0 -34 -21.5 -56t-55.5 -22h-323zM298 60q47 0 84.5 22.5t59.5 63.5t22 96v12
q0 53 -22.5 94t-60 64.5t-83.5 23.5q-47 0 -84.5 -22.5t-59.5 -63t-22 -94.5v-16q0 -55 21.5 -95.5t59 -62.5t85.5 -22zM295 574q-28 0 -49 21t-21 49v98q0 34 21.5 56t55.5 22h51v-54h-47q-27 0 -27 -30v-25q8 3 17 3q28 0 48.5 -20.5t20.5 -49.5q0 -28 -20.5 -49
t-49.5 -21z" />
    <glyph glyph-name="Hcircumflex" unicode="&#x124;" 
d="M73 0v700h84v-310h298v310h84v-700h-84v312h-298v-312h-84zM164 774l80 118h124l80 -118h-84l-52 88h-12l-52 -88h-84z" />
    <glyph glyph-name="hcircumflex" unicode="&#x125;" 
d="M87 0v700h78v-294h12q23 48 64.5 76t101.5 28q81 0 131.5 -53.5t50.5 -160.5v-296h-78v280q0 78 -35 117t-95 39q-70 0 -111 -48.5t-41 -129.5v-258h-78zM84 774l80 118h124l80 -118h-84l-52 88h-12l-52 -88h-84z" />
    <glyph glyph-name="Hbar" unicode="&#x126;" 
d="M73 0v496h-60v78h60v126h84v-126h298v126h84v-126h60v-78h-60v-496h-84v312h-298v-312h-84zM157 390h298v106h-298v-106z" />
    <glyph glyph-name="hbar" unicode="&#x127;" 
d="M87 0v562h-60v72h60v66h78v-66h178v-72h-178v-156h12q23 48 64.5 76t101.5 28q81 0 131.5 -53.5t50.5 -160.5v-296h-78v280q0 78 -35 117t-95 39q-70 0 -111 -48.5t-41 -129.5v-258h-78z" />
    <glyph glyph-name="Itilde" unicode="&#x128;" 
d="M84 0v78h180v544h-180v78h444v-78h-180v-544h180v-78h-444zM359 755q-25 0 -42 12t-31 35q-18 34 -33 34q-5 0 -11 -2.5t-15 -13.5l-41 -49l-49 42l42 49q14 17 32.5 29.5t45.5 12.5q29 0 44 -13t28 -35q12 -19 19.5 -26t14.5 -7q5 0 10.5 3t12.5 12l43 50l49 -42
l-41 -49q-15 -18 -34.5 -30t-43.5 -12z" />
    <glyph glyph-name="itilde" unicode="&#x129;" 
d="M99 0v72h174v352h-156v72h234v-424h162v-72h-414zM340 551q-25 0 -42 12t-31 35q-18 34 -33 34q-5 0 -11 -2.5t-15 -13.5l-41 -49l-49 42l42 49q14 17 32.5 29.5t45.5 12.5q29 0 44 -13t28 -35q12 -19 19.5 -26t14.5 -7q5 0 10.5 3t12.5 12l43 50l49 -42l-41 -49
q-15 -18 -34.5 -30t-43.5 -12z" />
    <glyph glyph-name="Imacron" unicode="&#x12a;" 
d="M84 0v78h180v544h-180v78h444v-78h-180v-544h180v-78h-444zM177 774v66h262v-66h-262z" />
    <glyph glyph-name="imacron" unicode="&#x12b;" 
d="M99 0v72h174v352h-156v72h234v-424h162v-72h-414zM108 570v66h262v-66h-262z" />
    <glyph glyph-name="Ibreve" unicode="&#x12c;" 
d="M84 0v78h180v544h-180v78h444v-78h-180v-544h180v-78h-444zM308 774q-49 0 -78.5 30t-29.5 78v10h69v-12q0 -16 10 -27.5t29 -11.5t29 11.5t10 27.5v12h69v-10q0 -48 -29 -78t-79 -30z" />
    <glyph glyph-name="ibreve" unicode="&#x12d;" 
d="M99 0v72h174v352h-156v72h234v-424h162v-72h-414zM289 570q-49 0 -78.5 30t-29.5 78v10h69v-12q0 -16 10 -27.5t29 -11.5t29 11.5t10 27.5v12h69v-10q0 -48 -29 -78t-79 -30z" />
    <glyph glyph-name="Iogonek" unicode="&#x12e;" 
d="M520 -164q-30 0 -54 18.5t-24 55.5q0 9 3 24l14 66h-375v78h180v544h-180v78h444v-78h-180v-544h180v-78l-16 -68q-1 -4 -1 -5.5v-2.5q0 -22 23 -22h42v-66h-56z" />
    <glyph glyph-name="iogonek" unicode="&#x12f;" 
d="M311 574q-28 0 -49 21t-21 49q0 29 21 49.5t49 20.5q29 0 49.5 -20.5t20.5 -49.5q0 -28 -20.5 -49t-49.5 -21zM505 -164q-30 0 -54 18.5t-24 55.5q0 9 3 24l14 66h-345v72h174v352h-156v72h234v-424h162v-72l-16 -68q-1 -4 -1 -5.5v-2.5q0 -22 23 -22h42v-66h-56z" />
    <glyph glyph-name="Idotaccent" unicode="&#x130;" 
d="M84 0v78h180v544h-180v78h444v-78h-180v-544h180v-78h-444zM308 778q-28 0 -49 21t-21 49q0 29 21 49.5t49 20.5q29 0 49.5 -20.5t20.5 -49.5q0 -28 -20.5 -49t-49.5 -21z" />
    <glyph glyph-name="dotlessi" unicode="&#x131;" 
d="M99 0v72h174v352h-156v72h234v-424h162v-72h-414z" />
    <glyph glyph-name="IJ" unicode="&#x132;" 
d="M295 -14q-102 0 -162 58t-60 166v54h84v-54q0 -66 34 -106t104 -40t98 40t28 106v412h-72v78h216v-78h-60v-412q0 -108 -54 -166t-156 -58zM73 342v358h84v-358h-84z" />
    <glyph glyph-name="ij" unicode="&#x133;" 
d="M126 574q-28 0 -49 21t-21 49q0 29 21 49.5t49 20.5q29 0 49.5 -20.5t20.5 -49.5q0 -28 -20.5 -49t-49.5 -21zM486 574q-28 0 -49 21t-21 49q0 29 21 49.5t49 20.5q29 0 49.5 -20.5t20.5 -49.5q0 -28 -20.5 -49t-49.5 -21zM225 -200v72h195q27 0 27 30v188h-12
q-24 -48 -63 -76t-99 -28q-82 0 -134 54t-52 160v296h78v-286q0 -78 32 -114t98 -36q71 0 111.5 48.5t40.5 129.5v258h78v-618q0 -34 -21.5 -56t-55.5 -22h-223z" />
    <glyph glyph-name="Jcircumflex" unicode="&#x134;" 
d="M295 -14q-102 0 -162 58t-60 166v54h84v-54q0 -66 34 -106t104 -40t98 40t28 106v412h-72v78h216v-78h-60v-412q0 -108 -54 -166t-156 -58zM315 774l80 118h124l80 -118h-84l-52 88h-12l-52 -88h-84z" />
    <glyph glyph-name="jcircumflex" unicode="&#x135;" 
d="M117 -200v72h195q27 0 27 30v522h-198v72h276v-618q0 -34 -21.5 -56t-55.5 -22h-223zM164 570l80 118h124l80 -118h-84l-52 88h-12l-52 -88h-84z" />
    <glyph glyph-name="uni0136" unicode="&#x136;" 
d="M89 0v700h84v-310h23l269 310h104v-6l-290 -338v-12l302 -338v-6h-106l-279 312h-23v-312h-84zM258 -292v54h47q27 0 27 30v25q-7 -3 -17 -3q-28 0 -48.5 21t-20.5 49q0 29 21 49.5t49 20.5q29 0 49.5 -20.5t20.5 -49.5v-98q0 -34 -21.5 -56t-55.5 -22h-51z" />
    <glyph glyph-name="uni0137" unicode="&#x137;" 
d="M137 0v700h78v-410h17l189 206h96v-6l-206 -227v-18l230 -239v-6h-96l-211 218h-19v-218h-78zM248 -292v54h47q27 0 27 30v25q-7 -3 -17 -3q-28 0 -48.5 21t-20.5 49q0 29 21 49.5t49 20.5q29 0 49.5 -20.5t20.5 -49.5v-98q0 -34 -21.5 -56t-55.5 -22h-51z" />
    <glyph glyph-name="kgreenlandic" unicode="&#x138;" 
d="M137 0v496h78v-206h17l189 206h96v-6l-206 -227v-18l230 -239v-6h-96l-211 218h-19v-218h-78z" />
    <glyph glyph-name="Lacute" unicode="&#x139;" 
d="M87 0v700h84v-622h366v-78h-450zM95 774l66 118h90l-84 -118h-72z" />
    <glyph glyph-name="lacute" unicode="&#x13a;" 
d="M87 0v72h180v556h-174v72h252v-628h180v-72h-438zM267 774l66 118h90l-84 -118h-72z" />
    <glyph glyph-name="uni013B" unicode="&#x13b;" 
d="M87 0v700h84v-622h366v-78h-450zM255 -292v54h47q27 0 27 30v25q-7 -3 -17 -3q-28 0 -48.5 21t-20.5 49q0 29 21 49.5t49 20.5q29 0 49.5 -20.5t20.5 -49.5v-98q0 -34 -21.5 -56t-55.5 -22h-51z" />
    <glyph glyph-name="uni013C" unicode="&#x13c;" 
d="M87 0v72h180v556h-174v72h252v-628h180v-72h-438zM248 -292v54h47q27 0 27 30v25q-7 -3 -17 -3q-28 0 -48.5 21t-20.5 49q0 29 21 49.5t49 20.5q29 0 49.5 -20.5t20.5 -49.5v-98q0 -34 -21.5 -56t-55.5 -22h-51z" />
    <glyph glyph-name="Lcaron" unicode="&#x13d;" 
d="M87 0v700h84v-622h366v-78h-450zM410 454v54h47q27 0 27 30v25q-7 -3 -17 -3q-28 0 -48.5 21t-20.5 49q0 29 21 49.5t49 20.5q29 0 49.5 -20.5t20.5 -49.5v-98q0 -34 -21.5 -56t-55.5 -22h-51z" />
    <glyph glyph-name="lcaron" unicode="&#x13e;" 
d="M87 0v72h180v556h-174v72h252v-628h180v-72h-438zM398 454v54h47q27 0 27 30v25q-7 -3 -17 -3q-28 0 -48.5 21t-20.5 49q0 29 21 49.5t49 20.5q29 0 49.5 -20.5t20.5 -49.5v-98q0 -34 -21.5 -56t-55.5 -22h-51z" />
    <glyph glyph-name="Lslash" unicode="&#x141;" 
d="M120 0v274l-61 -31l-35 68l96 48v341h84v-298l61 31l34 -67l-95 -49v-239h348v-78h-432z" />
    <glyph glyph-name="lslash" unicode="&#x142;" 
d="M87 0v72h180v203l-63 -32l-35 68l98 49v268h-174v72h252v-300l65 33l34 -67l-99 -51v-243h180v-72h-438z" />
    <glyph glyph-name="Nacute" unicode="&#x143;" 
d="M73 0v700h168l202 -664h12v664h84v-700h-168l-202 664h-12v-664h-84zM295 774l66 118h90l-84 -118h-72z" />
    <glyph glyph-name="nacute" unicode="&#x144;" 
d="M87 0v496h78v-84h12q46 98 160 98q86 0 137 -53.5t51 -160.5v-296h-78v280q0 78 -35 117t-95 39q-70 0 -111 -48.5t-41 -129.5v-258h-78zM297 570l66 118h90l-84 -118h-72z" />
    <glyph glyph-name="uni0145" unicode="&#x145;" 
d="M73 0v700h168l202 -664h12v664h84v-700h-168l-202 664h-12v-664h-84zM248 -292v54h47q27 0 27 30v25q-7 -3 -17 -3q-28 0 -48.5 21t-20.5 49q0 29 21 49.5t49 20.5q29 0 49.5 -20.5t20.5 -49.5v-98q0 -34 -21.5 -56t-55.5 -22h-51z" />
    <glyph glyph-name="uni0146" unicode="&#x146;" 
d="M87 0v496h78v-84h12q46 98 160 98q86 0 137 -53.5t51 -160.5v-296h-78v280q0 78 -35 117t-95 39q-70 0 -111 -48.5t-41 -129.5v-258h-78zM248 -292v54h47q27 0 27 30v25q-7 -3 -17 -3q-28 0 -48.5 21t-20.5 49q0 29 21 49.5t49 20.5q29 0 49.5 -20.5t20.5 -49.5v-98
q0 -34 -21.5 -56t-55.5 -22h-51z" />
    <glyph glyph-name="Ncaron" unicode="&#x147;" 
d="M73 0v700h168l202 -664h12v664h84v-700h-168l-202 664h-12v-664h-84zM262 774l-80 118h84l52 -88h12l52 88h84l-80 -118h-124z" />
    <glyph glyph-name="ncaron" unicode="&#x148;" 
d="M87 0v496h78v-84h12q46 98 160 98q86 0 137 -53.5t51 -160.5v-296h-78v280q0 78 -35 117t-95 39q-70 0 -111 -48.5t-41 -129.5v-258h-78zM264 570l-80 118h84l52 -88h12l52 88h84l-80 -118h-124z" />
    <glyph glyph-name="napostrophe" unicode="&#x149;" 
d="M87 0v496h78v-84h12q46 98 160 98q86 0 137 -53.5t51 -160.5v-296h-78v280q0 78 -35 117t-95 39q-70 0 -111 -48.5t-41 -129.5v-258h-78zM86 574v54h47q27 0 27 30v25q-7 -3 -17 -3q-28 0 -48.5 21t-20.5 49q0 29 21 49.5t49 20.5q29 0 49.5 -20.5t20.5 -49.5v-98
q0 -34 -21.5 -56t-55.5 -22h-51z" />
    <glyph glyph-name="Eng" unicode="&#x14a;" 
d="M241 -200v78h160q30 0 42 14.5t12 39.5v68h-84l-202 664h-12v-664h-84v700h168l202 -664h12v664h84v-780q0 -58 -30.5 -89t-89.5 -31h-178z" />
    <glyph glyph-name="eng" unicode="&#x14b;" 
d="M317 -200v72h103q27 0 27 30v378q0 78 -35 117t-95 39q-70 0 -111 -48.5t-41 -129.5v-258h-78v496h78v-84h12q46 98 160 98q86 0 137 -53.5t51 -160.5v-418q0 -34 -21.5 -56t-55.5 -22h-131z" />
    <glyph glyph-name="Omacron" unicode="&#x14c;" 
d="M306 -14q-115 0 -180.5 73.5t-65.5 212.5v156q0 135 65.5 210.5t180.5 75.5q116 0 181 -75.5t65 -210.5v-156q0 -139 -65 -212.5t-181 -73.5zM306 64q81 0 121.5 56t40.5 158v144q0 96 -40.5 155t-121.5 59t-121.5 -59t-40.5 -155v-144q0 -102 40.5 -158t121.5 -56z
M175 774v66h262v-66h-262z" />
    <glyph glyph-name="omacron" unicode="&#x14d;" 
d="M306 -14q-66 0 -122.5 30t-91.5 87t-35 139v12q0 81 35 138.5t91.5 87.5t122.5 30t122.5 -30t91.5 -87.5t35 -138.5v-12q0 -82 -35 -139t-91.5 -87t-122.5 -30zM306 60q48 0 86 22t60.5 63t22.5 97v12q0 54 -22.5 95t-61 64t-85.5 23t-85.5 -23t-61 -64t-22.5 -95v-12
q0 -56 22.5 -97t61 -63t85.5 -22zM175 570v66h262v-66h-262z" />
    <glyph glyph-name="Obreve" unicode="&#x14e;" 
d="M306 -14q-115 0 -180.5 73.5t-65.5 212.5v156q0 135 65.5 210.5t180.5 75.5q116 0 181 -75.5t65 -210.5v-156q0 -139 -65 -212.5t-181 -73.5zM306 64q81 0 121.5 56t40.5 158v144q0 96 -40.5 155t-121.5 59t-121.5 -59t-40.5 -155v-144q0 -102 40.5 -158t121.5 -56z
M306 774q-49 0 -78.5 30t-29.5 78v10h69v-12q0 -16 10 -27.5t29 -11.5t29 11.5t10 27.5v12h69v-10q0 -48 -29 -78t-79 -30z" />
    <glyph glyph-name="obreve" unicode="&#x14f;" 
d="M306 -14q-66 0 -122.5 30t-91.5 87t-35 139v12q0 81 35 138.5t91.5 87.5t122.5 30t122.5 -30t91.5 -87.5t35 -138.5v-12q0 -82 -35 -139t-91.5 -87t-122.5 -30zM306 60q48 0 86 22t60.5 63t22.5 97v12q0 54 -22.5 95t-61 64t-85.5 23t-85.5 -23t-61 -64t-22.5 -95v-12
q0 -56 22.5 -97t61 -63t85.5 -22zM306 570q-49 0 -78.5 30t-29.5 78v10h69v-12q0 -16 10 -27.5t29 -11.5t29 11.5t10 27.5v12h69v-10q0 -48 -29 -78t-79 -30z" />
    <glyph glyph-name="Ohungarumlaut" unicode="&#x150;" 
d="M306 -14q-115 0 -180.5 73.5t-65.5 212.5v156q0 135 65.5 210.5t180.5 75.5q116 0 181 -75.5t65 -210.5v-156q0 -139 -65 -212.5t-181 -73.5zM306 64q81 0 121.5 56t40.5 158v144q0 96 -40.5 155t-121.5 59t-121.5 -59t-40.5 -155v-144q0 -102 40.5 -158t121.5 -56z
M336 774l66 118h90l-84 -118h-72zM192 774l66 118h90l-84 -118h-72z" />
    <glyph glyph-name="ohungarumlaut" unicode="&#x151;" 
d="M306 -14q-66 0 -122.5 30t-91.5 87t-35 139v12q0 81 35 138.5t91.5 87.5t122.5 30t122.5 -30t91.5 -87.5t35 -138.5v-12q0 -82 -35 -139t-91.5 -87t-122.5 -30zM306 60q48 0 86 22t60.5 63t22.5 97v12q0 54 -22.5 95t-61 64t-85.5 23t-85.5 -23t-61 -64t-22.5 -95v-12
q0 -56 22.5 -97t61 -63t85.5 -22zM336 570l66 118h90l-84 -118h-72zM192 570l66 118h90l-84 -118h-72z" />
    <glyph glyph-name="OE" unicode="&#x152;" 
d="M300 0q-115 0 -180.5 73.5t-65.5 212.5v128q0 135 65.5 210.5t180.5 75.5h240v-78h-156v-232h150v-78h-150v-234h162v-78h-246zM300 78v544q-81 0 -121.5 -59t-40.5 -155v-116q0 -102 40.5 -158t121.5 -56z" />
    <glyph glyph-name="oe" unicode="&#x153;" 
d="M317 -14q-66 0 -122.5 30t-91.5 87t-35 139v12q0 81 35 138.5t91.5 87.5t122.5 30q61 0 105.5 -22t73 -56t42 -72.5t13.5 -71.5v-64h-199v-162q53 8 80 35.5t39 64.5l74 -20q-21 -69 -77 -112.5t-151 -43.5zM352 296h121q-3 55 -38 90.5t-83 45.5v-136zM274 65v365
q-55 -14 -90.5 -61t-35.5 -115v-12q0 -71 35.5 -117t90.5 -60z" />
    <glyph glyph-name="Racute" unicode="&#x154;" 
d="M85 0v700h250q72 0 119.5 -26.5t71 -69.5t23.5 -94v-30q0 -39 -21.5 -78t-66.5 -60v-12q30 -4 47 -23.5t17 -54.5v-252h-84v234q0 26 -12 40t-42 14h-218v-288h-84zM169 366h156q140 0 140 120v18q0 53 -34.5 85.5t-105.5 32.5h-156v-256zM254 774l66 118h90l-84 -118
h-72z" />
    <glyph glyph-name="racute" unicode="&#x155;" 
d="M47 0v72h114v352h-102v72h180v-66h12q19 41 54.5 60.5t79.5 19.5q74 0 120.5 -49t49.5 -143l-82 -12q0 69 -33 99.5t-81 30.5q-61 0 -90.5 -44.5t-29.5 -109.5v-210h126v-72h-318zM289 570l66 118h90l-84 -118h-72z" />
    <glyph glyph-name="uni0156" unicode="&#x156;" 
d="M85 0v700h250q72 0 119.5 -26.5t71 -69.5t23.5 -94v-30q0 -39 -21.5 -78t-66.5 -60v-12q30 -4 47 -23.5t17 -54.5v-252h-84v234q0 26 -12 40t-42 14h-218v-288h-84zM169 366h156q140 0 140 120v18q0 53 -34.5 85.5t-105.5 32.5h-156v-256zM248 -292v54h47q27 0 27 30v25
q-7 -3 -17 -3q-28 0 -48.5 21t-20.5 49q0 29 21 49.5t49 20.5q29 0 49.5 -20.5t20.5 -49.5v-98q0 -34 -21.5 -56t-55.5 -22h-51z" />
    <glyph glyph-name="uni0157" unicode="&#x157;" 
d="M47 0v72h114v352h-102v72h180v-66h12q19 41 54.5 60.5t79.5 19.5q74 0 120.5 -49t49.5 -143l-82 -12q0 69 -33 99.5t-81 30.5q-61 0 -90.5 -44.5t-29.5 -109.5v-210h126v-72h-318zM142 -292v54h47q27 0 27 30v25q-7 -3 -17 -3q-28 0 -48.5 21t-20.5 49q0 29 21 49.5
t49 20.5q29 0 49.5 -20.5t20.5 -49.5v-98q0 -34 -21.5 -56t-55.5 -22h-51z" />
    <glyph glyph-name="Rcaron" unicode="&#x158;" 
d="M85 0v700h250q72 0 119.5 -26.5t71 -69.5t23.5 -94v-30q0 -39 -21.5 -78t-66.5 -60v-12q30 -4 47 -23.5t17 -54.5v-252h-84v234q0 26 -12 40t-42 14h-218v-288h-84zM169 366h156q140 0 140 120v18q0 53 -34.5 85.5t-105.5 32.5h-156v-256zM221 774l-80 118h84l52 -88h12
l52 88h84l-80 -118h-124z" />
    <glyph glyph-name="rcaron" unicode="&#x159;" 
d="M47 0v72h114v352h-102v72h180v-66h12q19 41 54.5 60.5t79.5 19.5q74 0 120.5 -49t49.5 -143l-82 -12q0 69 -33 99.5t-81 30.5q-61 0 -90.5 -44.5t-29.5 -109.5v-210h126v-72h-318zM256 570l-80 118h84l52 -88h12l52 88h84l-80 -118h-124z" />
    <glyph glyph-name="Sacute" unicode="&#x15a;" 
d="M320 -14q-90 0 -151 33.5t-92.5 91.5t-31.5 131v30h84v-24q0 -91 51 -137.5t140 -46.5q78 0 117.5 35t39.5 91v6q0 55 -40.5 84t-131.5 42q-105 15 -167.5 59.5t-62.5 134.5v12q0 55 29.5 96.5t81.5 65.5t120 24q79 0 134.5 -29t85 -76.5t29.5 -104.5v-42h-84v36
q0 46 -23 76.5t-61 46t-82 15.5q-38 0 -71.5 -13t-54 -37.5t-20.5 -60.5v-6q0 -58 47 -84.5t141 -40.5q110 -16 162 -64t52 -128v-12q0 -91 -61.5 -147.5t-179.5 -56.5zM273 774l66 118h90l-84 -118h-72z" />
    <glyph glyph-name="sacute" unicode="&#x15b;" 
d="M314 -14q-77 0 -126 26.5t-73 68t-27 85.5l74 18q5 -57 44.5 -91.5t103.5 -34.5q55 0 88.5 21.5t33.5 60.5q0 42 -33 60t-107 23q-85 6 -131.5 40.5t-46.5 98.5v6q0 47 26 78.5t67 47.5t87 16q66 0 109.5 -22.5t66.5 -58t28 -73.5l-74 -18q-4 48 -38 75t-88 27
q-42 0 -75 -18t-33 -54t30.5 -55t111.5 -25q86 -7 132 -41.5t46 -100.5v-6q0 -72 -54.5 -113t-141.5 -41zM266 570l66 118h90l-84 -118h-72z" />
    <glyph glyph-name="Scircumflex" unicode="&#x15c;" 
d="M320 -14q-90 0 -151 33.5t-92.5 91.5t-31.5 131v30h84v-24q0 -91 51 -137.5t140 -46.5q78 0 117.5 35t39.5 91v6q0 55 -40.5 84t-131.5 42q-105 15 -167.5 59.5t-62.5 134.5v12q0 55 29.5 96.5t81.5 65.5t120 24q79 0 134.5 -29t85 -76.5t29.5 -104.5v-42h-84v36
q0 46 -23 76.5t-61 46t-82 15.5q-38 0 -71.5 -13t-54 -37.5t-20.5 -60.5v-6q0 -58 47 -84.5t141 -40.5q110 -16 162 -64t52 -128v-12q0 -91 -61.5 -147.5t-179.5 -56.5zM160 774l80 118h124l80 -118h-84l-52 88h-12l-52 -88h-84z" />
    <glyph glyph-name="scircumflex" unicode="&#x15d;" 
d="M314 -14q-77 0 -126 26.5t-73 68t-27 85.5l74 18q5 -57 44.5 -91.5t103.5 -34.5q55 0 88.5 21.5t33.5 60.5q0 42 -33 60t-107 23q-85 6 -131.5 40.5t-46.5 98.5v6q0 47 26 78.5t67 47.5t87 16q66 0 109.5 -22.5t66.5 -58t28 -73.5l-74 -18q-4 48 -38 75t-88 27
q-42 0 -75 -18t-33 -54t30.5 -55t111.5 -25q86 -7 132 -41.5t46 -100.5v-6q0 -72 -54.5 -113t-141.5 -41zM153 570l80 118h124l80 -118h-84l-52 88h-12l-52 -88h-84z" />
    <glyph glyph-name="Scedilla" unicode="&#x15e;" 
d="M343 -212q-43 0 -66 20t-31 50l48 18q3 -15 14.5 -27.5t33.5 -12.5q15 0 27.5 10t12.5 32q0 18 -10.5 28t-24.5 10q-18 0 -25 -14h-76v6l18 82q-107 16 -163 85.5t-56 166.5v30h84v-24q0 -91 51 -137.5t140 -46.5q78 0 117.5 35t39.5 91v6q0 55 -40.5 84t-131.5 42
q-105 15 -167.5 59.5t-62.5 134.5v12q0 55 29.5 96.5t81.5 65.5t120 24q79 0 134.5 -29t85 -76.5t29.5 -104.5v-42h-84v36q0 46 -23 76.5t-61 46t-82 15.5q-38 0 -71.5 -13t-54 -37.5t-20.5 -60.5v-6q0 -58 47 -84.5t141 -40.5q110 -16 162 -64t52 -128v-12
q0 -91 -61.5 -147.5t-179.5 -56.5h-8l-12 -54h6q13 32 54 32q35 0 55.5 -25t20.5 -60q0 -41 -27 -66t-66 -25z" />
    <glyph glyph-name="scedilla" unicode="&#x15f;" 
d="M337 -212q-43 0 -66 20t-31 50l48 18q3 -15 14.5 -27.5t33.5 -12.5q15 0 27.5 10t12.5 32q0 18 -10.5 28t-24.5 10q-18 0 -25 -14h-76v6l18 83q-57 10 -93.5 36.5t-55 63.5t-21.5 75l74 18q5 -57 44.5 -91.5t103.5 -34.5q55 0 88.5 21.5t33.5 60.5q0 42 -33 60t-107 23
q-85 6 -131.5 40.5t-46.5 98.5v6q0 47 26 78.5t67 47.5t87 16q66 0 109.5 -22.5t66.5 -58t28 -73.5l-74 -18q-4 48 -38 75t-88 27q-42 0 -75 -18t-33 -54t30.5 -55t111.5 -25q86 -7 132 -41.5t46 -100.5v-6q0 -72 -54.5 -113t-141.5 -41h-8l-12 -54h6q13 32 54 32
q35 0 55.5 -25t20.5 -60q0 -41 -27 -66t-66 -25z" />
    <glyph glyph-name="Scaron" unicode="&#x160;" 
d="M320 -14q-90 0 -151 33.5t-92.5 91.5t-31.5 131v30h84v-24q0 -91 51 -137.5t140 -46.5q78 0 117.5 35t39.5 91v6q0 55 -40.5 84t-131.5 42q-105 15 -167.5 59.5t-62.5 134.5v12q0 55 29.5 96.5t81.5 65.5t120 24q79 0 134.5 -29t85 -76.5t29.5 -104.5v-42h-84v36
q0 46 -23 76.5t-61 46t-82 15.5q-38 0 -71.5 -13t-54 -37.5t-20.5 -60.5v-6q0 -58 47 -84.5t141 -40.5q110 -16 162 -64t52 -128v-12q0 -91 -61.5 -147.5t-179.5 -56.5zM240 774l-80 118h84l52 -88h12l52 88h84l-80 -118h-124z" />
    <glyph glyph-name="scaron" unicode="&#x161;" 
d="M314 -14q-77 0 -126 26.5t-73 68t-27 85.5l74 18q5 -57 44.5 -91.5t103.5 -34.5q55 0 88.5 21.5t33.5 60.5q0 42 -33 60t-107 23q-85 6 -131.5 40.5t-46.5 98.5v6q0 47 26 78.5t67 47.5t87 16q66 0 109.5 -22.5t66.5 -58t28 -73.5l-74 -18q-4 48 -38 75t-88 27
q-42 0 -75 -18t-33 -54t30.5 -55t111.5 -25q86 -7 132 -41.5t46 -100.5v-6q0 -72 -54.5 -113t-141.5 -41zM233 570l-80 118h84l52 -88h12l52 88h84l-80 -118h-124z" />
    <glyph glyph-name="uni0162" unicode="&#x162;" 
d="M359 -212q-43 0 -66 20t-31 50l48 18q3 -15 14.5 -27.5t33.5 -12.5q15 0 27.5 10t12.5 32q0 18 -10.5 28t-24.5 10q-18 0 -25 -14h-76v6l20 92h-18v622h-204v78h492v-78h-204v-622h-17l-15 -68h6q13 32 54 32q35 0 55.5 -25t20.5 -60q0 -41 -27 -66t-66 -25z" />
    <glyph glyph-name="uni0163" unicode="&#x163;" 
d="M380 -212q-43 0 -66 20t-31 50l48 18q3 -15 14.5 -27.5t33.5 -12.5q15 0 27.5 10t12.5 32q0 18 -10.5 28t-24.5 10q-18 0 -25 -14h-76v6l20 92q-34 0 -55.5 22t-21.5 56v346h-156v72h156v204h78v-204h192v-72h-192v-322q0 -30 27 -30h141v-72h-120l-15 -68h6q13 32 54 32
q35 0 55.5 -25t20.5 -60q0 -41 -27 -66t-66 -25z" />
    <glyph glyph-name="Tcaron" unicode="&#x164;" 
d="M264 0v622h-204v78h492v-78h-204v-622h-84zM244 774l-80 118h84l52 -88h12l52 88h84l-80 -118h-124z" />
    <glyph glyph-name="tcaron" unicode="&#x165;" 
d="M303 0q-34 0 -55.5 22t-21.5 56v346h-156v72h156v204h78v-204h72v-72h-72v-322q0 -30 27 -30h141v-72h-169zM406 424v54h47q27 0 27 30v55q-7 -3 -17 -3q-28 0 -48.5 21t-20.5 49q0 29 21 49.5t49 20.5q29 0 49.5 -20.5t20.5 -49.5v-128q0 -34 -21.5 -56t-55.5 -22h-51z
" />
    <glyph glyph-name="Tbar" unicode="&#x166;" 
d="M264 0v350h-156v78h156v194h-204v78h492v-78h-204v-194h156v-78h-156v-350h-84z" />
    <glyph glyph-name="tbar" unicode="&#x167;" 
d="M303 0q-34 0 -55.5 22t-21.5 56v200h-120v72h120v74h-156v72h156v204h78v-204h192v-72h-192v-74h156v-72h-156v-176q0 -30 27 -30h141v-72h-169z" />
    <glyph glyph-name="Utilde" unicode="&#x168;" 
d="M306 -14q-111 0 -175.5 64.5t-64.5 185.5v464h84v-464q0 -84 40 -128t116 -44q77 0 116.5 44t39.5 128v464h84v-464q0 -121 -64.5 -185.5t-175.5 -64.5zM357 755q-25 0 -42 12t-31 35q-18 34 -33 34q-5 0 -11 -2.5t-15 -13.5l-41 -49l-49 42l42 49q14 17 32.5 29.5
t45.5 12.5q29 0 44 -13t28 -35q12 -19 19.5 -26t14.5 -7q5 0 10.5 3t12.5 12l43 50l49 -42l-41 -49q-15 -18 -34.5 -30t-43.5 -12z" />
    <glyph glyph-name="utilde" unicode="&#x169;" 
d="M267 -14q-82 0 -134 54t-52 160v296h78v-286q0 -78 32 -114t98 -36q71 0 111.5 48.5t40.5 129.5v258h78v-496h-78v90h-12q-24 -48 -63 -76t-99 -28zM347 551q-25 0 -42 12t-31 35q-18 34 -33 34q-5 0 -11 -2.5t-15 -13.5l-41 -49l-49 42l42 49q14 17 32.5 29.5t45.5 12.5
q29 0 44 -13t28 -35q12 -19 19.5 -26t14.5 -7q5 0 10.5 3t12.5 12l43 50l49 -42l-41 -49q-15 -18 -34.5 -30t-43.5 -12z" />
    <glyph glyph-name="Umacron" unicode="&#x16a;" 
d="M306 -14q-111 0 -175.5 64.5t-64.5 185.5v464h84v-464q0 -84 40 -128t116 -44q77 0 116.5 44t39.5 128v464h84v-464q0 -121 -64.5 -185.5t-175.5 -64.5zM175 774v66h262v-66h-262z" />
    <glyph glyph-name="umacron" unicode="&#x16b;" 
d="M267 -14q-82 0 -134 54t-52 160v296h78v-286q0 -78 32 -114t98 -36q71 0 111.5 48.5t40.5 129.5v258h78v-496h-78v90h-12q-24 -48 -63 -76t-99 -28zM165 570v66h262v-66h-262z" />
    <glyph glyph-name="Ubreve" unicode="&#x16c;" 
d="M306 -14q-111 0 -175.5 64.5t-64.5 185.5v464h84v-464q0 -84 40 -128t116 -44q77 0 116.5 44t39.5 128v464h84v-464q0 -121 -64.5 -185.5t-175.5 -64.5zM306 774q-49 0 -78.5 30t-29.5 78v10h69v-12q0 -16 10 -27.5t29 -11.5t29 11.5t10 27.5v12h69v-10q0 -48 -29 -78
t-79 -30z" />
    <glyph glyph-name="ubreve" unicode="&#x16d;" 
d="M267 -14q-82 0 -134 54t-52 160v296h78v-286q0 -78 32 -114t98 -36q71 0 111.5 48.5t40.5 129.5v258h78v-496h-78v90h-12q-24 -48 -63 -76t-99 -28zM296 570q-49 0 -78.5 30t-29.5 78v10h69v-12q0 -16 10 -27.5t29 -11.5t29 11.5t10 27.5v12h69v-10q0 -48 -29 -78
t-79 -30z" />
    <glyph glyph-name="Uring" unicode="&#x16e;" 
d="M306 -14q-111 0 -175.5 64.5t-64.5 185.5v464h84v-464q0 -84 40 -128t116 -44q77 0 116.5 44t39.5 128v464h84v-464q0 -121 -64.5 -185.5t-175.5 -64.5zM306 774q-43 0 -72.5 29.5t-29.5 72.5t29.5 72.5t72.5 29.5t72.5 -29.5t29.5 -72.5t-29.5 -72.5t-72.5 -29.5z
M306 834q18 0 30 12t12 30t-12 30t-30 12t-30 -12t-12 -30t12 -30t30 -12z" />
    <glyph glyph-name="uring" unicode="&#x16f;" 
d="M267 -14q-82 0 -134 54t-52 160v296h78v-286q0 -78 32 -114t98 -36q71 0 111.5 48.5t40.5 129.5v258h78v-496h-78v90h-12q-24 -48 -63 -76t-99 -28zM296 570q-43 0 -72.5 29.5t-29.5 72.5t29.5 72.5t72.5 29.5t72.5 -29.5t29.5 -72.5t-29.5 -72.5t-72.5 -29.5zM296 630
q18 0 30 12t12 30t-12 30t-30 12t-30 -12t-12 -30t12 -30t30 -12z" />
    <glyph glyph-name="Uhungarumlaut" unicode="&#x170;" 
d="M306 -14q-111 0 -175.5 64.5t-64.5 185.5v464h84v-464q0 -84 40 -128t116 -44q77 0 116.5 44t39.5 128v464h84v-464q0 -121 -64.5 -185.5t-175.5 -64.5zM336 774l66 118h90l-84 -118h-72zM192 774l66 118h90l-84 -118h-72z" />
    <glyph glyph-name="uhungarumlaut" unicode="&#x171;" 
d="M267 -14q-82 0 -134 54t-52 160v296h78v-286q0 -78 32 -114t98 -36q71 0 111.5 48.5t40.5 129.5v258h78v-496h-78v90h-12q-24 -48 -63 -76t-99 -28zM326 570l66 118h90l-84 -118h-72zM182 570l66 118h90l-84 -118h-72z" />
    <glyph glyph-name="Uogonek" unicode="&#x172;" 
d="M333 -164q-29 0 -53.5 18.5t-24.5 55.5q0 9 3 24l12 54q-95 10 -149.5 73t-54.5 175v464h84v-464q0 -84 40 -128t116 -44q77 0 116.5 44t39.5 128v464h84v-464q0 -112 -55.5 -175.5t-152.5 -72.5l-13 -56q-1 -4 -1 -5.5v-2.5q0 -22 23 -22h42v-66h-56z" />
    <glyph glyph-name="uogonek" unicode="&#x173;" 
d="M482 -164q-29 0 -53.5 18.5t-24.5 55.5q0 9 3 24l34 156h-12q-24 -48 -63 -76t-99 -28q-82 0 -134 54t-52 160v296h78v-286q0 -78 32 -114t98 -36q71 0 111.5 48.5t40.5 129.5v258h78v-496h-29l-16 -68q-1 -4 -1 -5.5v-2.5q0 -22 23 -22h42v-66h-56z" />
    <glyph glyph-name="Wcircumflex" unicode="&#x174;" 
d="M82 0l-71 700h76l67 -664h12l63 664h154l63 -664h12l67 664h76l-71 -700h-153l-65 664h-12l-65 -664h-153zM161 774l80 118h124l80 -118h-84l-52 88h-12l-52 -88h-84z" />
    <glyph glyph-name="wcircumflex" unicode="&#x175;" 
d="M96 0l-78 496h80l66 -460h12l58 460h144l58 -460h12l66 460h80l-78 -496h-144l-60 460h-12l-60 -460h-144zM154 570l80 118h124l80 -118h-84l-52 88h-12l-52 -88h-84z" />
    <glyph glyph-name="Ycircumflex" unicode="&#x176;" 
d="M264 0v246h-18l-219 454h94l179 -382h12l179 382h94l-219 -454h-18v-246h-84zM159 774l80 118h124l80 -118h-84l-52 88h-12l-52 -88h-84z" />
    <glyph glyph-name="ycircumflex" unicode="&#x177;" 
d="M165 -200v72h255q27 0 27 30v188h-12q-24 -48 -63 -76t-99 -28q-82 0 -134 54t-52 160v296h78v-286q0 -78 32 -114t98 -36q71 0 111.5 48.5t40.5 129.5v258h78v-618q0 -34 -21.5 -56t-55.5 -22h-283zM154 570l80 118h124l80 -118h-84l-52 88h-12l-52 -88h-84z" />
    <glyph glyph-name="Ydieresis" unicode="&#x178;" 
d="M264 0v246h-18l-219 454h94l179 -382h12l179 382h94l-219 -454h-18v-246h-84zM401 778q-28 0 -49 21t-21 49q0 29 21 49.5t49 20.5q29 0 49.5 -20.5t20.5 -49.5q0 -28 -20.5 -49t-49.5 -21zM201 778q-28 0 -49 21t-21 49q0 29 21 49.5t49 20.5q29 0 49.5 -20.5
t20.5 -49.5q0 -28 -20.5 -49t-49.5 -21z" />
    <glyph glyph-name="Zacute" unicode="&#x179;" 
d="M53 0v126l420 484v12h-396v78h468v-126l-420 -484v-12h432v-78h-504zM277 774l66 118h90l-84 -118h-72z" />
    <glyph glyph-name="zacute" unicode="&#x17a;" 
d="M91 0v124l354 288v12h-348v72h414v-120l-356 -292v-12h368v-72h-432zM277 570l66 118h90l-84 -118h-72z" />
    <glyph glyph-name="Zdotaccent" unicode="&#x17b;" 
d="M53 0v126l420 484v12h-396v78h468v-126l-420 -484v-12h432v-78h-504zM306 778q-28 0 -49 21t-21 49q0 29 21 49.5t49 20.5q29 0 49.5 -20.5t20.5 -49.5q0 -28 -20.5 -49t-49.5 -21z" />
    <glyph glyph-name="zdotaccent" unicode="&#x17c;" 
d="M91 0v124l354 288v12h-348v72h414v-120l-356 -292v-12h368v-72h-432zM306 574q-28 0 -49 21t-21 49q0 29 21 49.5t49 20.5q29 0 49.5 -20.5t20.5 -49.5q0 -28 -20.5 -49t-49.5 -21z" />
    <glyph glyph-name="Zcaron" unicode="&#x17d;" 
d="M53 0v126l420 484v12h-396v78h468v-126l-420 -484v-12h432v-78h-504zM244 774l-80 118h84l52 -88h12l52 88h84l-80 -118h-124z" />
    <glyph glyph-name="zcaron" unicode="&#x17e;" 
d="M91 0v124l354 288v12h-348v72h414v-120l-356 -292v-12h368v-72h-432zM244 570l-80 118h84l52 -88h12l52 88h84l-80 -118h-124z" />
    <glyph glyph-name="longs" unicode="&#x17f;" 
d="M240 0v424h-60v72h60v126q0 34 21.5 56t55.5 22h196v-72h-168q-27 0 -27 -30v-598h-78z" />
    <glyph glyph-name="uni0180" unicode="&#x180;" 
d="M329 -14q-48 0 -96 22.5t-74 67.5h-12v-76h-78v562h-60v72h60v66h78v-66h178v-72h-178v-144h12q26 45 72 68.5t100 23.5q61 0 113 -29.5t83.5 -86t31.5 -136.5v-20q0 -81 -31 -137t-83.5 -85.5t-115.5 -29.5zM313 60q71 0 118.5 48t47.5 130v20q0 53 -22 93t-59.5 62.5
t-84.5 22.5q-46 0 -83.5 -23.5t-60 -64.5t-22.5 -94v-12q0 -55 22 -96t60 -63.5t84 -22.5z" />
    <glyph glyph-name="uni018F" unicode="&#x18f;" 
d="M306 -14q-80 0 -135 34t-83 91.5t-28 128.5v122h408v60q0 96 -40.5 156t-121.5 60q-57 0 -92.5 -25.5t-52 -66t-17.5 -86.5v-12h-84v12q0 71 28 128.5t83 91.5t135 34q116 0 181 -75.5t65 -210.5v-156q0 -139 -65 -212.5t-181 -73.5zM306 62q81 0 121.5 57t40.5 159v6
h-324v-44q0 -46 17 -86.5t52.5 -66t92.5 -25.5z" />
    <glyph glyph-name="florin" unicode="&#x192;" 
d="M126 102v72h114q27 0 27 30v162h-90v72h90v82q0 34 21.5 56t55.5 22h142v-72h-114q-27 0 -27 -30v-58h90v-72h-90v-186q0 -34 -21.5 -56t-55.5 -22h-142z" />
    <glyph glyph-name="Ohorn" unicode="&#x1a0;" 
d="M242 -14q-96 0 -150 58.5t-54 173.5v258q0 113 53.5 175.5t150.5 62.5q90 0 143 -54t60 -152h67q27 0 27 30v25q-7 -3 -17 -3q-28 0 -48.5 21t-20.5 49q0 29 21 49.5t49 20.5q29 0 49.5 -20.5t20.5 -49.5v-98q0 -34 -21.5 -56t-55.5 -22h-70v-236q0 -115 -54 -173.5
t-150 -58.5zM242 62q62 0 91 40t29 122v252q0 77 -28.5 119.5t-91.5 42.5t-91.5 -42.5t-28.5 -119.5v-252q0 -82 29.5 -122t90.5 -40z" />
    <glyph glyph-name="ohorn" unicode="&#x1a1;" 
d="M253 -14q-96 0 -154.5 67.5t-58.5 188.5v12q0 80 27 137.5t75 88t111 30.5q85 0 141.5 -54t68.5 -152h62q27 0 27 30v25q-7 -3 -17 -3q-28 0 -48.5 21t-20.5 49q0 29 21 49.5t49 20.5q29 0 49.5 -20.5t20.5 -49.5v-98q0 -34 -21.5 -56t-55.5 -22h-63v-8
q0 -121 -58.5 -188.5t-154.5 -67.5zM253 60q67 0 100 49t33 133v12q0 81 -33.5 131.5t-99.5 50.5t-99.5 -50.5t-33.5 -131.5v-12q0 -84 33 -133t100 -49z" />
    <glyph glyph-name="Uhorn" unicode="&#x1af;" 
d="M238 -14q-94 0 -146 53.5t-52 162.5v498h84v-494q0 -76 29.5 -110t84.5 -34q56 0 85 34t29 110v494h84v-192h95q27 0 27 30v25q-7 -3 -17 -3q-28 0 -48.5 21t-20.5 49q0 29 21 49.5t49 20.5q29 0 49.5 -20.5t20.5 -49.5v-98q0 -34 -21.5 -56t-55.5 -22h-99v-252
q0 -109 -51.5 -162.5t-146.5 -53.5z" />
    <glyph glyph-name="uhorn" unicode="&#x1b0;" 
d="M208 -14q-78 0 -123 46.5t-45 133.5v330h78v-316q0 -63 28 -91.5t80 -28.5q65 0 95.5 40.5t30.5 107.5v288h78v-192h95q27 0 27 30v25q-7 -3 -17 -3q-28 0 -48.5 21t-20.5 49q0 29 21 49.5t49 20.5q29 0 49.5 -20.5t20.5 -49.5v-98q0 -34 -21.5 -56t-55.5 -22h-99v-250
h-78v68h-12q-16 -36 -46 -59t-86 -23z" />
    <glyph glyph-name="uni01CD" unicode="&#x1cd;" 
d="M15 0l212 700h158l212 -700h-90l-51 174h-300l-51 -174h-90zM179 252h254l-121 412h-12zM244 774l-80 118h84l52 -88h12l52 88h84l-80 -118h-124z" />
    <glyph glyph-name="uni01CE" unicode="&#x1ce;" 
d="M279 -14q-65 0 -117.5 29.5t-83.5 86t-31 138.5v16q0 81 31 138t83.5 86.5t115.5 29.5q51 0 92.5 -22.5t65.5 -69.5h12v78h78v-394q0 -30 27 -30h25v-72h-53q-31 0 -54 20t-23 64h-12q-24 -49 -66.5 -73.5t-89.5 -24.5zM287 60q70 0 115 50t45 132v12q0 53 -21 94
t-57 64.5t-82 23.5t-82 -22.5t-57 -63t-21 -94.5v-16q0 -84 45 -132t115 -48zM227 570l-80 118h84l52 -88h12l52 88h84l-80 -118h-124z" />
    <glyph glyph-name="uni01CF" unicode="&#x1cf;" 
d="M84 0v78h180v544h-180v78h444v-78h-180v-544h180v-78h-444zM246 774l-80 118h84l52 -88h12l52 88h84l-80 -118h-124z" />
    <glyph glyph-name="uni01D0" unicode="&#x1d0;" 
d="M99 0v72h174v352h-156v72h234v-424h162v-72h-414zM227 570l-80 118h84l52 -88h12l52 88h84l-80 -118h-124z" />
    <glyph glyph-name="uni01D1" unicode="&#x1d1;" 
d="M306 -14q-115 0 -180.5 73.5t-65.5 212.5v156q0 135 65.5 210.5t180.5 75.5q116 0 181 -75.5t65 -210.5v-156q0 -139 -65 -212.5t-181 -73.5zM306 64q81 0 121.5 56t40.5 158v144q0 96 -40.5 155t-121.5 59t-121.5 -59t-40.5 -155v-144q0 -102 40.5 -158t121.5 -56z
M244 774l-80 118h84l52 -88h12l52 88h84l-80 -118h-124z" />
    <glyph glyph-name="uni01D2" unicode="&#x1d2;" 
d="M306 -14q-66 0 -122.5 30t-91.5 87t-35 139v12q0 81 35 138.5t91.5 87.5t122.5 30t122.5 -30t91.5 -87.5t35 -138.5v-12q0 -82 -35 -139t-91.5 -87t-122.5 -30zM306 60q48 0 86 22t60.5 63t22.5 97v12q0 54 -22.5 95t-61 64t-85.5 23t-85.5 -23t-61 -64t-22.5 -95v-12
q0 -56 22.5 -97t61 -63t85.5 -22zM244 570l-80 118h84l52 -88h12l52 88h84l-80 -118h-124z" />
    <glyph glyph-name="uni01D3" unicode="&#x1d3;" 
d="M306 -14q-111 0 -175.5 64.5t-64.5 185.5v464h84v-464q0 -84 40 -128t116 -44q77 0 116.5 44t39.5 128v464h84v-464q0 -121 -64.5 -185.5t-175.5 -64.5zM244 774l-80 118h84l52 -88h12l52 88h84l-80 -118h-124z" />
    <glyph glyph-name="uni01D4" unicode="&#x1d4;" 
d="M267 -14q-82 0 -134 54t-52 160v296h78v-286q0 -78 32 -114t98 -36q71 0 111.5 48.5t40.5 129.5v258h78v-496h-78v90h-12q-24 -48 -63 -76t-99 -28zM234 570l-80 118h84l52 -88h12l52 88h84l-80 -118h-124z" />
    <glyph glyph-name="uni01D5" unicode="&#x1d5;" 
d="M306 -14q-111 0 -175.5 64.5t-64.5 185.5v464h84v-464q0 -84 40 -128t116 -44q77 0 116.5 44t39.5 128v464h84v-464q0 -121 -64.5 -185.5t-175.5 -64.5zM406 728q-28 0 -49 21t-21 49q0 29 21 49.5t49 20.5q29 0 49.5 -20.5t20.5 -49.5q0 -28 -20.5 -49t-49.5 -21z
M206 728q-28 0 -49 21t-21 49q0 29 21 49.5t49 20.5q29 0 49.5 -20.5t20.5 -49.5q0 -28 -20.5 -49t-49.5 -21zM178 903v66h262v-66h-262z" />
    <glyph glyph-name="uni01D6" unicode="&#x1d6;" 
d="M267 -14q-82 0 -134 54t-52 160v296h78v-286q0 -78 32 -114t98 -36q71 0 111.5 48.5t40.5 129.5v258h78v-496h-78v90h-12q-24 -48 -63 -76t-99 -28zM396 574q-28 0 -49 21t-21 49q0 29 21 49.5t49 20.5q29 0 49.5 -20.5t20.5 -49.5q0 -28 -20.5 -49t-49.5 -21zM196 574
q-28 0 -49 21t-21 49q0 29 21 49.5t49 20.5q29 0 49.5 -20.5t20.5 -49.5q0 -28 -20.5 -49t-49.5 -21zM165 741v66h262v-66h-262z" />
    <glyph glyph-name="uni01D7" unicode="&#x1d7;" 
d="M306 -14q-111 0 -175.5 64.5t-64.5 185.5v464h84v-464q0 -84 40 -128t116 -44q77 0 116.5 44t39.5 128v464h84v-464q0 -121 -64.5 -185.5t-175.5 -64.5zM406 728q-28 0 -49 21t-21 49q0 29 21 49.5t49 20.5q29 0 49.5 -20.5t20.5 -49.5q0 -28 -20.5 -49t-49.5 -21z
M206 728q-28 0 -49 21t-21 49q0 29 21 49.5t49 20.5q29 0 49.5 -20.5t20.5 -49.5q0 -28 -20.5 -49t-49.5 -21zM271 901l66 118h90l-84 -118h-72z" />
    <glyph glyph-name="uni01D8" unicode="&#x1d8;" 
d="M267 -14q-82 0 -134 54t-52 160v296h78v-286q0 -78 32 -114t98 -36q71 0 111.5 48.5t40.5 129.5v258h78v-496h-78v90h-12q-24 -48 -63 -76t-99 -28zM396 574q-28 0 -49 21t-21 49q0 29 21 49.5t49 20.5q29 0 49.5 -20.5t20.5 -49.5q0 -28 -20.5 -49t-49.5 -21zM196 574
q-28 0 -49 21t-21 49q0 29 21 49.5t49 20.5q29 0 49.5 -20.5t20.5 -49.5q0 -28 -20.5 -49t-49.5 -21zM267 741l66 118h90l-84 -118h-72z" />
    <glyph glyph-name="uni01D9" unicode="&#x1d9;" 
d="M306 -14q-111 0 -175.5 64.5t-64.5 185.5v464h84v-464q0 -84 40 -128t116 -44q77 0 116.5 44t39.5 128v464h84v-464q0 -121 -64.5 -185.5t-175.5 -64.5zM406 734q-28 0 -49 21t-21 49q0 29 21 49.5t49 20.5q29 0 49.5 -20.5t20.5 -49.5q0 -28 -20.5 -49t-49.5 -21z
M206 734q-28 0 -49 21t-21 49q0 29 21 49.5t49 20.5q29 0 49.5 -20.5t20.5 -49.5q0 -28 -20.5 -49t-49.5 -21zM248 902l-80 118h84l52 -88h12l52 88h84l-80 -118h-124z" />
    <glyph glyph-name="uni01DA" unicode="&#x1da;" 
d="M267 -14q-82 0 -134 54t-52 160v296h78v-286q0 -78 32 -114t98 -36q71 0 111.5 48.5t40.5 129.5v258h78v-496h-78v90h-12q-24 -48 -63 -76t-99 -28zM396 574q-28 0 -49 21t-21 49q0 29 21 49.5t49 20.5q29 0 49.5 -20.5t20.5 -49.5q0 -28 -20.5 -49t-49.5 -21zM196 574
q-28 0 -49 21t-21 49q0 29 21 49.5t49 20.5q29 0 49.5 -20.5t20.5 -49.5q0 -28 -20.5 -49t-49.5 -21zM234 741l-80 118h84l52 -88h12l52 88h84l-80 -118h-124z" />
    <glyph glyph-name="uni01DB" unicode="&#x1db;" 
d="M306 -14q-111 0 -175.5 64.5t-64.5 185.5v464h84v-464q0 -84 40 -128t116 -44q77 0 116.5 44t39.5 128v464h84v-464q0 -121 -64.5 -185.5t-175.5 -64.5zM406 728q-28 0 -49 21t-21 49q0 29 21 49.5t49 20.5q29 0 49.5 -20.5t20.5 -49.5q0 -28 -20.5 -49t-49.5 -21z
M206 728q-28 0 -49 21t-21 49q0 29 21 49.5t49 20.5q29 0 49.5 -20.5t20.5 -49.5q0 -28 -20.5 -49t-49.5 -21zM272 851l-84 118h90l66 -118h-72z" />
    <glyph glyph-name="uni01DC" unicode="&#x1dc;" 
d="M267 -14q-82 0 -134 54t-52 160v296h78v-286q0 -78 32 -114t98 -36q71 0 111.5 48.5t40.5 129.5v258h78v-496h-78v90h-12q-24 -48 -63 -76t-99 -28zM396 574q-28 0 -49 21t-21 49q0 29 21 49.5t49 20.5q29 0 49.5 -20.5t20.5 -49.5q0 -28 -20.5 -49t-49.5 -21zM196 574
q-28 0 -49 21t-21 49q0 29 21 49.5t49 20.5q29 0 49.5 -20.5t20.5 -49.5q0 -28 -20.5 -49t-49.5 -21zM262 741l-84 118h90l66 -118h-72z" />
    <glyph glyph-name="Gcaron" unicode="&#x1e6;" 
d="M301 -14q-112 0 -177 73.5t-65 212.5v156q0 135 65.5 210.5t180.5 75.5q80 0 135 -34t83 -91.5t28 -128.5v-12h-84v12q0 46 -16.5 86t-52.5 65t-93 25q-81 0 -121.5 -59t-40.5 -155v-144q0 -102 41 -158t123 -56q74 0 117 48.5t43 133.5v12h-228v78h312v-336h-78v84h-12
q-16 -43 -59.5 -70.5t-100.5 -27.5zM244 774l-80 118h84l52 -88h12l52 88h84l-80 -118h-124z" />
    <glyph glyph-name="gcaron" unicode="&#x1e7;" 
d="M142 -200v72h295q27 0 27 30v174h-12q-24 -45 -65.5 -67.5t-90.5 -22.5q-66 0 -121.5 29.5t-89 86.5t-33.5 138v16q0 81 34 137.5t89 86.5t119 30q54 0 95 -23.5t63 -68.5h12v78h78v-618q0 -34 -21.5 -56t-55.5 -22h-323zM298 60q47 0 84.5 22.5t59.5 63.5t22 96v12
q0 53 -22.5 94t-60 64.5t-83.5 23.5q-47 0 -84.5 -22.5t-59.5 -63t-22 -94.5v-16q0 -55 21.5 -95.5t59 -62.5t85.5 -22zM233 570l-80 118h84l52 -88h12l52 88h84l-80 -118h-124z" />
    <glyph glyph-name="uni01EA" unicode="&#x1ea;" 
d="M333 -164q-29 0 -53.5 18.5t-24.5 55.5q0 9 3 24l12 54q-99 11 -154.5 83.5t-55.5 200.5v156q0 135 65.5 210.5t180.5 75.5q116 0 181 -75.5t65 -210.5v-156q0 -130 -56.5 -202.5t-157.5 -81.5l-13 -56q-1 -4 -1 -5.5v-2.5q0 -22 23 -22h42v-66h-56zM306 64
q81 0 121.5 56t40.5 158v144q0 96 -40.5 155t-121.5 59t-121.5 -59t-40.5 -155v-144q0 -102 40.5 -158t121.5 -56z" />
    <glyph glyph-name="uni01EB" unicode="&#x1eb;" 
d="M334 -164q-29 0 -53.5 18.5t-24.5 55.5q0 9 3 24l12 54q-58 8 -107 39.5t-78 85.5t-29 129v12q0 81 35 138.5t91.5 87.5t122.5 30t122.5 -30t91.5 -87.5t35 -138.5v-12q0 -75 -29.5 -129.5t-78.5 -86t-108 -38.5l-13 -56q-1 -4 -1 -5.5v-2.5q0 -22 23 -22h42v-66h-56z
M306 60q48 0 86 22t60.5 63t22.5 97v12q0 54 -22.5 95t-61 64t-85.5 23t-85.5 -23t-61 -64t-22.5 -95v-12q0 -56 22.5 -97t61 -63t85.5 -22z" />
    <glyph glyph-name="uni0218" unicode="&#x218;" 
d="M320 -14q-90 0 -151 33.5t-92.5 91.5t-31.5 131v30h84v-24q0 -91 51 -137.5t140 -46.5q78 0 117.5 35t39.5 91v6q0 55 -40.5 84t-131.5 42q-105 15 -167.5 59.5t-62.5 134.5v12q0 55 29.5 96.5t81.5 65.5t120 24q79 0 134.5 -29t85 -76.5t29.5 -104.5v-42h-84v36
q0 46 -23 76.5t-61 46t-82 15.5q-38 0 -71.5 -13t-54 -37.5t-20.5 -60.5v-6q0 -58 47 -84.5t141 -40.5q110 -16 162 -64t52 -128v-12q0 -91 -61.5 -147.5t-179.5 -56.5zM261 -292v54h47q27 0 27 30v25q-7 -3 -17 -3q-28 0 -48.5 21t-20.5 49q0 29 21 49.5t49 20.5
q29 0 49.5 -20.5t20.5 -49.5v-98q0 -34 -21.5 -56t-55.5 -22h-51z" />
    <glyph glyph-name="uni0219" unicode="&#x219;" 
d="M314 -14q-77 0 -126 26.5t-73 68t-27 85.5l74 18q5 -57 44.5 -91.5t103.5 -34.5q55 0 88.5 21.5t33.5 60.5q0 42 -33 60t-107 23q-85 6 -131.5 40.5t-46.5 98.5v6q0 47 26 78.5t67 47.5t87 16q66 0 109.5 -22.5t66.5 -58t28 -73.5l-74 -18q-4 48 -38 75t-88 27
q-42 0 -75 -18t-33 -54t30.5 -55t111.5 -25q86 -7 132 -41.5t46 -100.5v-6q0 -72 -54.5 -113t-141.5 -41zM248 -292v54h47q27 0 27 30v25q-7 -3 -17 -3q-28 0 -48.5 21t-20.5 49q0 29 21 49.5t49 20.5q29 0 49.5 -20.5t20.5 -49.5v-98q0 -34 -21.5 -56t-55.5 -22h-51z" />
    <glyph glyph-name="uni021A" unicode="&#x21a;" 
d="M264 0v622h-204v78h492v-78h-204v-622h-84zM248 -292v54h47q27 0 27 30v25q-7 -3 -17 -3q-28 0 -48.5 21t-20.5 49q0 29 21 49.5t49 20.5q29 0 49.5 -20.5t20.5 -49.5v-98q0 -34 -21.5 -56t-55.5 -22h-51z" />
    <glyph glyph-name="uni021B" unicode="&#x21b;" 
d="M303 0q-34 0 -55.5 22t-21.5 56v346h-156v72h156v204h78v-204h192v-72h-192v-322q0 -30 27 -30h141v-72h-169zM220 -292v54h47q27 0 27 30v25q-7 -3 -17 -3q-28 0 -48.5 21t-20.5 49q0 29 21 49.5t49 20.5q29 0 49.5 -20.5t20.5 -49.5v-98q0 -34 -21.5 -56t-55.5 -22h-51
z" />
    <glyph glyph-name="uni0237" unicode="&#x237;" 
d="M117 -200v72h195q27 0 27 30v522h-198v72h276v-618q0 -34 -21.5 -56t-55.5 -22h-223z" />
    <glyph glyph-name="uni0243" unicode="&#x243;" 
d="M57 0v78h60v78h-60v78h60v388h-60v78h283q101 0 154 -52t53 -130v-12q0 -57 -34 -96t-84 -53v-12q50 -13 84 -53.5t34 -96.5v-12q0 -79 -53 -131t-154 -52h-283zM201 390h136q60 0 95 31t35 85v6q0 51 -37 80.5t-96 29.5h-133v-232zM201 78h133q59 0 96 29.5t37 81.5v6
q0 53 -35 85t-95 32h-136v-78h108v-78h-108v-78z" />
    <glyph glyph-name="uni0250" unicode="&#x250;" 
d="M357 510q55 0 94 -20.5t59.5 -54.5t20.5 -75v-12q0 -47 -23 -81t-63 -52.5t-90 -18.5h-163v-20q0 -29 13.5 -56t41.5 -44.5t73 -17.5q52 0 84.5 28t40.5 80l74 -18q-7 -43 -32 -80t-66.5 -59.5t-100.5 -22.5q-61 0 -107.5 24.5t-72.5 67t-26 97.5v219q0 30 -27 30h-25v72
h53q34 0 55.5 -22t21.5 -56v-6h12q20 45 58 71.5t95 26.5zM350 438q-76 0 -116.5 -43.5t-40.5 -114.5v-12h153q50 0 79 21.5t29 64.5q0 37 -27 60.5t-77 23.5z" />
    <glyph glyph-name="uni0251" unicode="&#x251;" 
d="M279 -14q-65 0 -117.5 29.5t-83.5 86t-31 138.5v16q0 81 31 138t83.5 86.5t115.5 29.5q51 0 92.5 -22.5t65.5 -69.5h12v78h78v-394q0 -30 27 -30h25v-72h-53q-31 0 -54 20t-23 64h-12q-24 -49 -66.5 -73.5t-89.5 -24.5zM287 60q70 0 115 50t45 132v12q0 53 -21 94
t-57 64.5t-82 23.5t-82 -22.5t-57 -63t-21 -94.5v-16q0 -84 45 -132t115 -48z" />
    <glyph glyph-name="uni0252" unicode="&#x252;" 
d="M345 510q65 0 117.5 -29.5t83.5 -86t31 -138.5v-16q0 -81 -31 -138t-83.5 -86.5t-115.5 -29.5q-51 0 -92.5 23t-65.5 69h-12v-78h-78v394q0 30 -27 30h-25v72h53q32 0 54.5 -20t22.5 -64h12q24 50 67 74t89 24zM337 436q-70 0 -115 -49.5t-45 -132.5v-12q0 -53 21 -94
t57 -64.5t82 -23.5t82 22.5t57 63t21 94.5v16q0 84 -44.5 132t-115.5 48z" />
    <glyph glyph-name="uni0254" unicode="&#x254;" 
d="M295 -14q-65 0 -114.5 24.5t-80.5 67.5t-41 98l78 18q5 -34 23.5 -64.5t52 -50t82.5 -19.5t89 21.5t63.5 62t23.5 96.5v12q0 54 -23.5 95.5t-63 65t-87.5 23.5q-49 0 -83 -19t-52.5 -49.5t-22.5 -65.5l-78 18q9 55 40.5 98t81 67.5t112.5 24.5q69 0 127.5 -31t93.5 -89
t35 -138v-12q0 -81 -35 -138t-93.5 -86.5t-127.5 -29.5z" />
    <glyph glyph-name="uni0258" unicode="&#x258;" 
d="M304 -14q-96 0 -152.5 43.5t-77.5 112.5l74 20q14 -42 49 -72t105 -30q77 0 120 45.5t46 118.5h-400v64q0 33 13.5 71.5t42 72.5t73 56t105.5 22q70 0 125 -32t87 -87t32 -125v-24q0 -76 -31 -133.5t-85.5 -90t-125.5 -32.5zM146 296h320q-7 60 -52.5 100t-111.5 40
q-39 0 -74 -17t-57.5 -48.5t-24.5 -74.5z" />
    <glyph glyph-name="uni0259" unicode="&#x259;" 
d="M300 -14q-62 0 -106.5 22t-72.5 57t-41.5 74.5t-13.5 74.5v58h400q-3 74 -47.5 119t-119.5 45q-44 0 -74 -15t-48.5 -39t-29.5 -50l-70 30q30 69 85.5 108.5t137.5 39.5q70 0 125 -31t87 -88t32 -135v-24q0 -70 -31.5 -125.5t-86.5 -88t-126 -32.5zM300 60q66 0 111.5 40
t52.5 100h-320q2 -43 24.5 -74.5t57.5 -48.5t74 -17z" />
    <glyph glyph-name="uni0261" unicode="&#x261;" 
d="M142 -200v72h295q27 0 27 30v174h-12q-24 -45 -65.5 -67.5t-90.5 -22.5q-66 0 -121.5 29.5t-89 86.5t-33.5 138v16q0 81 34 137.5t89 86.5t119 30q54 0 95 -23.5t63 -68.5h12v78h78v-618q0 -34 -21.5 -56t-55.5 -22h-323zM298 60q47 0 84.5 22.5t59.5 63.5t22 96v12
q0 53 -22.5 94t-60 64.5t-83.5 23.5q-47 0 -84.5 -22.5t-59.5 -63t-22 -94.5v-16q0 -55 21.5 -95.5t59 -62.5t85.5 -22z" />
    <glyph glyph-name="uni0265" unicode="&#x265;" 
d="M446 -200v290h-12q-22 -48 -64 -76t-102 -28q-81 0 -131.5 54t-50.5 160v296h78v-280q0 -78 35 -117t95 -39q71 0 111.5 48.5t40.5 129.5v258h78v-696h-78z" />
    <glyph glyph-name="uni026F" unicode="&#x26f;" 
d="M564 496v-496h-78v54h-12q-13 -34 -38 -51t-59 -17q-36 0 -59.5 19t-32.5 49h-12q-34 -68 -108 -68q-55 0 -86 35.5t-31 92.5v382h78v-356q0 -34 16.5 -57t50.5 -23q33 0 53.5 25t20.5 75v336h78v-360q0 -33 18 -54.5t48 -21.5q36 0 55.5 26t19.5 68v342h78z" />
    <glyph glyph-name="uni0279" unicode="&#x279;" 
d="M565 496v-72h-114v-352h102v-72h-180v66h-12q-19 -40 -54.5 -60t-79.5 -20q-74 0 -120.5 49t-49.5 143l82 12q0 -69 33 -99.5t81 -30.5q62 0 91 45t29 109v210h-126v72h318z" />
    <glyph glyph-name="uni0287" unicode="&#x287;" 
d="M294 -200v200h-192v72h192v322q0 30 -27 30h-141v72h169q34 0 55.5 -22t21.5 -56v-346h156v-72h-156v-200h-78z" />
    <glyph glyph-name="uni028C" unicode="&#x28c;" 
d="M382 496l173 -496h-92l-152 460h-12l-152 -460h-92l173 496h154z" />
    <glyph glyph-name="uni028D" unicode="&#x28d;" 
d="M516 496l78 -496h-80l-66 460h-12l-58 -460h-144l-58 460h-12l-66 -460h-80l78 496h144l60 -460h12l60 460h144z" />
    <glyph glyph-name="uni028E" unicode="&#x28e;" 
d="M56 0l181 496h30v126q0 34 21.5 56t55.5 22h194v-72h-166q-27 0 -27 -30v-102h30l181 -496h-92l-152 436h-12l-152 -436h-92z" />
    <glyph glyph-name="uni029E" unicode="&#x29e;" 
d="M397 -200v406h-17l-189 -206h-96v6l206 227v18l-230 239v6h96l211 -218h19v218h78v-696h-78z" />
    <glyph glyph-name="circumflex" unicode="&#x2c6;" 
d="M164 570l80 118h124l80 -118h-84l-52 88h-12l-52 -88h-84z" />
    <glyph glyph-name="caron" unicode="&#x2c7;" 
d="M244 570l-80 118h84l52 -88h12l52 88h84l-80 -118h-124z" />
    <glyph glyph-name="uni02C9" unicode="&#x2c9;" 
d="M175 570v66h262v-66h-262z" />
    <glyph glyph-name="breve" unicode="&#x2d8;" 
d="M306 570q-49 0 -78.5 30t-29.5 78v10h69v-12q0 -16 10 -27.5t29 -11.5t29 11.5t10 27.5v12h69v-10q0 -48 -29 -78t-79 -30z" />
    <glyph glyph-name="dotaccent" unicode="&#x2d9;" 
d="M306 574q-28 0 -49 21t-21 49q0 29 21 49.5t49 20.5q29 0 49.5 -20.5t20.5 -49.5q0 -28 -20.5 -49t-49.5 -21z" />
    <glyph glyph-name="ring" unicode="&#x2da;" 
d="M306 570q-43 0 -72.5 29.5t-29.5 72.5t29.5 72.5t72.5 29.5t72.5 -29.5t29.5 -72.5t-29.5 -72.5t-72.5 -29.5zM306 630q18 0 30 12t12 30t-12 30t-30 12t-30 -12t-12 -30t12 -30t30 -12z" />
    <glyph glyph-name="ogonek" unicode="&#x2db;" 
d="M334 -164q-29 0 -53.5 18.5t-24.5 55.5q0 9 3 24l21 96h69l-23 -98q-1 -4 -1 -5.5v-2.5q0 -22 23 -22h42v-66h-56z" />
    <glyph glyph-name="tilde" unicode="&#x2dc;" 
d="M357 551q-25 0 -42 12t-31 35q-18 34 -33 34q-5 0 -11 -2.5t-15 -13.5l-41 -49l-49 42l42 49q14 17 32.5 29.5t45.5 12.5q29 0 44 -13t28 -35q12 -19 19.5 -26t14.5 -7q5 0 10.5 3t12.5 12l43 50l49 -42l-41 -49q-15 -18 -34.5 -30t-43.5 -12z" />
    <glyph glyph-name="hungarumlaut" unicode="&#x2dd;" 
d="M300 570l66 118h90l-84 -118h-72zM156 570l66 118h90l-84 -118h-72z" />
    <glyph glyph-name="gravecomb" unicode="&#x300;" horiz-adv-x="0" 
d="M134 570l-84 118h90l66 -118h-72z" />
    <glyph glyph-name="acutecomb" unicode="&#x301;" horiz-adv-x="0" 
d="M50 570l66 118h90l-84 -118h-72z" />
    <glyph glyph-name="uni0302" unicode="&#x302;" horiz-adv-x="0" 
d="M164 570l80 118h124l80 -118h-84l-52 88h-12l-52 -88h-84z" />
    <glyph glyph-name="tildecomb" unicode="&#x303;" horiz-adv-x="0" 
d="M272 551q-25 0 -42 12t-31 35q-18 34 -33 34q-5 0 -11 -2.5t-15 -13.5l-41 -49l-49 42l42 49q14 17 32.5 29.5t45.5 12.5q29 0 44 -13t28 -35q12 -19 19.5 -26t14.5 -7q5 0 10.5 3t12.5 12l43 50l49 -42l-41 -49q-15 -18 -34.5 -30t-43.5 -12z" />
    <glyph glyph-name="uni0304" unicode="&#x304;" horiz-adv-x="0" 
d="M60 570v66h262v-66h-262z" />
    <glyph glyph-name="uni0306" unicode="&#x306;" horiz-adv-x="0" 
d="M158 570q-49 0 -78.5 30t-29.5 78v10h69v-12q0 -16 10 -27.5t29 -11.5t29 11.5t10 27.5v12h69v-10q0 -48 -29 -78t-79 -30z" />
    <glyph glyph-name="uni0307" unicode="&#x307;" horiz-adv-x="0" 
d="M306 574q-28 0 -49 21t-21 49q0 29 21 49.5t49 20.5q29 0 49.5 -20.5t20.5 -49.5q0 -28 -20.5 -49t-49.5 -21z" />
    <glyph glyph-name="uni0308" unicode="&#x308;" horiz-adv-x="0" 
d="M320 574q-28 0 -49 21t-21 49q0 29 21 49.5t49 20.5q29 0 49.5 -20.5t20.5 -49.5q0 -28 -20.5 -49t-49.5 -21zM120 574q-28 0 -49 21t-21 49q0 29 21 49.5t49 20.5q29 0 49.5 -20.5t20.5 -49.5q0 -28 -20.5 -49t-49.5 -21z" />
    <glyph glyph-name="hookabovecomb" unicode="&#x309;" horiz-adv-x="0" 
d="M231 546l-20 92v6h76q7 -14 25 -14q14 0 24.5 10t10.5 28q0 22 -12.5 32t-27.5 10q-22 0 -33.5 -12.5t-14.5 -27.5l-48 18q8 30 31 50t66 20q39 0 66 -25t27 -66q0 -34 -20.5 -59.5t-55.5 -25.5q-41 0 -54 32h-6l15 -68h-49z" />
    <glyph glyph-name="uni030A" unicode="&#x30a;" horiz-adv-x="0" 
d="M306 570q-43 0 -72.5 29.5t-29.5 72.5t29.5 72.5t72.5 29.5t72.5 -29.5t29.5 -72.5t-29.5 -72.5t-72.5 -29.5zM306 630q18 0 30 12t12 30t-12 30t-30 12t-30 -12t-12 -30t12 -30t30 -12z" />
    <glyph glyph-name="uni030B" unicode="&#x30b;" horiz-adv-x="0" 
d="M194 570l66 118h90l-84 -118h-72zM50 570l66 118h90l-84 -118h-72z" />
    <glyph glyph-name="uni030C" unicode="&#x30c;" horiz-adv-x="0" 
d="M244 570l-80 118h84l52 -88h12l52 88h84l-80 -118h-124z" />
    <glyph glyph-name="uni0312" unicode="&#x312;" horiz-adv-x="0" 
d="M294 574q-28 0 -49 21t-21 49v98q0 34 21.5 56t55.5 22h51v-54h-47q-27 0 -27 -30v-25q8 3 17 3q28 0 48.5 -20.5t20.5 -49.5q0 -28 -20.5 -49t-49.5 -21z" />
    <glyph glyph-name="uni031B" unicode="&#x31b;" horiz-adv-x="0" 
d="M218 454v54h95q27 0 27 30v25q-7 -3 -17 -3q-28 0 -48.5 21t-20.5 49q0 29 21 49.5t49 20.5q29 0 49.5 -20.5t20.5 -49.5v-98q0 -34 -21.5 -56t-55.5 -22h-99z" />
    <glyph glyph-name="dotbelowcomb" unicode="&#x323;" horiz-adv-x="0" 
d="M306 -204q-28 0 -49 21t-21 49q0 29 21 49.5t49 20.5q29 0 49.5 -20.5t20.5 -49.5q0 -28 -20.5 -49t-49.5 -21z" />
    <glyph glyph-name="uni0326" unicode="&#x326;" horiz-adv-x="0" 
d="M62 -292v54h47q27 0 27 30v25q-7 -3 -17 -3q-28 0 -48.5 21t-20.5 49q0 29 21 49.5t49 20.5q29 0 49.5 -20.5t20.5 -49.5v-98q0 -34 -21.5 -56t-55.5 -22h-51z" />
    <glyph glyph-name="uni0327" unicode="&#x327;" horiz-adv-x="0" 
d="M309 -212q-43 0 -66 20t-31 50l48 18q3 -15 14.5 -27.5t33.5 -12.5q15 0 27.5 10t12.5 32q0 18 -10.5 28t-24.5 10q-18 0 -25 -14h-76v6l20 92h49l-15 -68h6q13 32 54 32q35 0 55.5 -25t20.5 -60q0 -41 -27 -66t-66 -25z" />
    <glyph glyph-name="uni0328" unicode="&#x328;" horiz-adv-x="0" 
d="M334 -164q-29 0 -53.5 18.5t-24.5 55.5q0 9 3 24l21 96h69l-23 -98q-1 -4 -1 -5.5v-2.5q0 -22 23 -22h42v-66h-56z" />
    <glyph glyph-name="uni032E" unicode="&#x32e;" horiz-adv-x="0" 
d="M306 -182q-49 0 -78.5 30t-29.5 78v10h69v-12q0 -16 10 -27.5t29 -11.5t29 11.5t10 27.5v12h69v-10q0 -48 -29 -78t-79 -30z" />
    <glyph glyph-name="uni0331" unicode="&#x331;" horiz-adv-x="0" 
d="M165 -130v66h282v-66h-282z" />
    <glyph glyph-name="pi" unicode="&#x3c0;" 
d="M140 0v424h-72v72h478v-72h-72v-322q0 -30 27 -30h45v-72h-73q-34 0 -55.5 22t-21.5 56v346h-178v-424h-78z" />
    <glyph glyph-name="uni1E0C" unicode="&#x1e0c;" 
d="M73 0v79h60v543h-60v78h230q129 0 189.5 -62.5t60.5 -197.5v-180q0 -135 -60.5 -197.5t-189.5 -62.5h-230zM217 78h74q61 0 100.5 16.5t58.5 57.5t19 114v168q0 73 -19 114t-58.5 57.5t-100.5 16.5h-74v-544zM306 -204q-28 0 -49 21t-21 49q0 29 21 49.5t49 20.5
q29 0 49.5 -20.5t20.5 -49.5q0 -28 -20.5 -49t-49.5 -21z" />
    <glyph glyph-name="uni1E0D" unicode="&#x1e0d;" 
d="M297 -14q-66 0 -120 29.5t-86 86.5t-32 138v16q0 81 32.5 137.5t86 86.5t117.5 30q51 0 95.5 -22.5t68.5 -69.5h12v282h78v-700h-78v76h-12q-24 -46 -70.5 -68t-91.5 -22zM305 60q47 0 84.5 22.5t59.5 63.5t22 96v12q0 53 -22.5 94t-60 64.5t-83.5 23.5
q-47 0 -84.5 -22.5t-59.5 -63t-22 -94.5v-16q0 -55 21.5 -95.5t59.5 -62.5t85 -22zM301 -204q-28 0 -49 21t-21 49q0 29 21 49.5t49 20.5q29 0 49.5 -20.5t20.5 -49.5q0 -28 -20.5 -49t-49.5 -21z" />
    <glyph glyph-name="uni1E0E" unicode="&#x1e0e;" 
d="M73 0v79h60v543h-60v78h230q129 0 189.5 -62.5t60.5 -197.5v-180q0 -135 -60.5 -197.5t-189.5 -62.5h-230zM217 78h74q61 0 100.5 16.5t58.5 57.5t19 114v168q0 73 -19 114t-58.5 57.5t-100.5 16.5h-74v-544zM165 -130v66h282v-66h-282z" />
    <glyph glyph-name="uni1E0F" unicode="&#x1e0f;" 
d="M297 -14q-66 0 -120 29.5t-86 86.5t-32 138v16q0 81 32.5 137.5t86 86.5t117.5 30q51 0 95.5 -22.5t68.5 -69.5h12v282h78v-700h-78v76h-12q-24 -46 -70.5 -68t-91.5 -22zM305 60q47 0 84.5 22.5t59.5 63.5t22 96v12q0 53 -22.5 94t-60 64.5t-83.5 23.5
q-47 0 -84.5 -22.5t-59.5 -63t-22 -94.5v-16q0 -55 21.5 -95.5t59.5 -62.5t85 -22zM160 -130v66h282v-66h-282z" />
    <glyph glyph-name="uni1E20" unicode="&#x1e20;" 
d="M301 -14q-112 0 -177 73.5t-65 212.5v156q0 135 65.5 210.5t180.5 75.5q80 0 135 -34t83 -91.5t28 -128.5v-12h-84v12q0 46 -16.5 86t-52.5 65t-93 25q-81 0 -121.5 -59t-40.5 -155v-144q0 -102 41 -158t123 -56q74 0 117 48.5t43 133.5v12h-228v78h312v-336h-78v84h-12
q-16 -43 -59.5 -70.5t-100.5 -27.5zM175 774v66h262v-66h-262z" />
    <glyph glyph-name="uni1E21" unicode="&#x1e21;" 
d="M142 -200v72h295q27 0 27 30v174h-12q-24 -45 -65.5 -67.5t-90.5 -22.5q-66 0 -121.5 29.5t-89 86.5t-33.5 138v16q0 81 34 137.5t89 86.5t119 30q54 0 95 -23.5t63 -68.5h12v78h78v-618q0 -34 -21.5 -56t-55.5 -22h-323zM298 60q47 0 84.5 22.5t59.5 63.5t22 96v12
q0 53 -22.5 94t-60 64.5t-83.5 23.5q-47 0 -84.5 -22.5t-59.5 -63t-22 -94.5v-16q0 -55 21.5 -95.5t59 -62.5t85.5 -22zM164 570v66h262v-66h-262z" />
    <glyph glyph-name="uni1E24" unicode="&#x1e24;" 
d="M73 0v700h84v-310h298v310h84v-700h-84v312h-298v-312h-84zM306 -204q-28 0 -49 21t-21 49q0 29 21 49.5t49 20.5q29 0 49.5 -20.5t20.5 -49.5q0 -28 -20.5 -49t-49.5 -21z" />
    <glyph glyph-name="uni1E25" unicode="&#x1e25;" 
d="M87 0v700h78v-294h12q23 48 64.5 76t101.5 28q81 0 131.5 -53.5t50.5 -160.5v-296h-78v280q0 78 -35 117t-95 39q-70 0 -111 -48.5t-41 -129.5v-258h-78zM306 -204q-28 0 -49 21t-21 49q0 29 21 49.5t49 20.5q29 0 49.5 -20.5t20.5 -49.5q0 -28 -20.5 -49t-49.5 -21z" />
    <glyph glyph-name="uni1E2A" unicode="&#x1e2a;" 
d="M73 0v700h84v-310h298v310h84v-700h-84v312h-298v-312h-84zM306 -182q-49 0 -78.5 30t-29.5 78v10h69v-12q0 -16 10 -27.5t29 -11.5t29 11.5t10 27.5v12h69v-10q0 -48 -29 -78t-79 -30z" />
    <glyph glyph-name="uni1E2B" unicode="&#x1e2b;" 
d="M87 0v700h78v-294h12q23 48 64.5 76t101.5 28q81 0 131.5 -53.5t50.5 -160.5v-296h-78v280q0 78 -35 117t-95 39q-70 0 -111 -48.5t-41 -129.5v-258h-78zM306 -182q-49 0 -78.5 30t-29.5 78v10h69v-12q0 -16 10 -27.5t29 -11.5t29 11.5t10 27.5v12h69v-10q0 -48 -29 -78
t-79 -30z" />
    <glyph glyph-name="uni1E36" unicode="&#x1e36;" 
d="M87 0v700h84v-622h366v-78h-450zM313 -204q-28 0 -49 21t-21 49q0 29 21 49.5t49 20.5q29 0 49.5 -20.5t20.5 -49.5q0 -28 -20.5 -49t-49.5 -21z" />
    <glyph glyph-name="uni1E37" unicode="&#x1e37;" 
d="M87 0v72h180v556h-174v72h252v-628h180v-72h-438zM306 -204q-28 0 -49 21t-21 49q0 29 21 49.5t49 20.5q29 0 49.5 -20.5t20.5 -49.5q0 -28 -20.5 -49t-49.5 -21z" />
    <glyph glyph-name="uni1E38" unicode="&#x1e38;" 
d="M87 0v700h84v-622h366v-78h-450zM313 -204q-28 0 -49 21t-21 49q0 29 21 49.5t49 20.5q29 0 49.5 -20.5t20.5 -49.5q0 -28 -20.5 -49t-49.5 -21zM66 774v66h262v-66h-262z" />
    <glyph glyph-name="uni1E39" unicode="&#x1e39;" 
d="M93 774v66h252v-66h-252zM87 0v72h180v556h-174v72h252v-628h180v-72h-438zM306 -204q-28 0 -49 21t-21 49q0 29 21 49.5t49 20.5q29 0 49.5 -20.5t20.5 -49.5q0 -28 -20.5 -49t-49.5 -21z" />
    <glyph glyph-name="uni1E3A" unicode="&#x1e3a;" 
d="M87 0v700h84v-622h366v-78h-450zM172 -130v66h282v-66h-282z" />
    <glyph glyph-name="uni1E3B" unicode="&#x1e3b;" 
d="M87 0v72h180v556h-174v72h252v-628h180v-72h-438zM165 -130v66h282v-66h-282z" />
    <glyph glyph-name="uni1E42" unicode="&#x1e42;" 
d="M46 0v700h160l94 -664h12l94 664h160v-700h-78v664h-12l-94 -664h-152l-94 664h-12v-664h-78zM306 -204q-28 0 -49 21t-21 49q0 29 21 49.5t49 20.5q29 0 49.5 -20.5t20.5 -49.5q0 -28 -20.5 -49t-49.5 -21z" />
    <glyph glyph-name="uni1E43" unicode="&#x1e43;" 
d="M48 0v496h78v-54h12q13 35 38 51.5t59 16.5q36 0 59.5 -19t32.5 -49h12q34 68 108 68q56 0 86.5 -35.5t30.5 -92.5v-382h-78v356q0 35 -16 57.5t-51 22.5q-33 0 -53.5 -25t-20.5 -75v-336h-78v360q0 33 -18 54.5t-48 21.5q-36 0 -55.5 -26t-19.5 -68v-342h-78zM306 -204
q-28 0 -49 21t-21 49q0 29 21 49.5t49 20.5q29 0 49.5 -20.5t20.5 -49.5q0 -28 -20.5 -49t-49.5 -21z" />
    <glyph glyph-name="uni1E44" unicode="&#x1e44;" 
d="M73 0v700h168l202 -664h12v664h84v-700h-168l-202 664h-12v-664h-84zM324 778q-28 0 -49 21t-21 49q0 29 21 49.5t49 20.5q29 0 49.5 -20.5t20.5 -49.5q0 -28 -20.5 -49t-49.5 -21z" />
    <glyph glyph-name="uni1E45" unicode="&#x1e45;" 
d="M87 0v496h78v-84h12q46 98 160 98q86 0 137 -53.5t51 -160.5v-296h-78v280q0 78 -35 117t-95 39q-70 0 -111 -48.5t-41 -129.5v-258h-78zM326 574q-28 0 -49 21t-21 49q0 29 21 49.5t49 20.5q29 0 49.5 -20.5t20.5 -49.5q0 -28 -20.5 -49t-49.5 -21z" />
    <glyph glyph-name="uni1E46" unicode="&#x1e46;" 
d="M73 0v700h168l202 -664h12v664h84v-700h-168l-202 664h-12v-664h-84zM306 -204q-28 0 -49 21t-21 49q0 29 21 49.5t49 20.5q29 0 49.5 -20.5t20.5 -49.5q0 -28 -20.5 -49t-49.5 -21z" />
    <glyph glyph-name="uni1E47" unicode="&#x1e47;" 
d="M87 0v496h78v-84h12q46 98 160 98q86 0 137 -53.5t51 -160.5v-296h-78v280q0 78 -35 117t-95 39q-70 0 -111 -48.5t-41 -129.5v-258h-78zM306 -204q-28 0 -49 21t-21 49q0 29 21 49.5t49 20.5q29 0 49.5 -20.5t20.5 -49.5q0 -28 -20.5 -49t-49.5 -21z" />
    <glyph glyph-name="uni1E48" unicode="&#x1e48;" 
d="M73 0v700h168l202 -664h12v664h84v-700h-168l-202 664h-12v-664h-84zM165 -130v66h282v-66h-282z" />
    <glyph glyph-name="uni1E49" unicode="&#x1e49;" 
d="M87 0v496h78v-84h12q46 98 160 98q86 0 137 -53.5t51 -160.5v-296h-78v280q0 78 -35 117t-95 39q-70 0 -111 -48.5t-41 -129.5v-258h-78zM165 -130v66h282v-66h-282z" />
    <glyph glyph-name="uni1E5A" unicode="&#x1e5a;" 
d="M85 0v700h250q72 0 119.5 -26.5t71 -69.5t23.5 -94v-30q0 -39 -21.5 -78t-66.5 -60v-12q30 -4 47 -23.5t17 -54.5v-252h-84v234q0 26 -12 40t-42 14h-218v-288h-84zM169 366h156q140 0 140 120v18q0 53 -34.5 85.5t-105.5 32.5h-156v-256zM306 -204q-28 0 -49 21t-21 49
q0 29 21 49.5t49 20.5q29 0 49.5 -20.5t20.5 -49.5q0 -28 -20.5 -49t-49.5 -21z" />
    <glyph glyph-name="uni1E5B" unicode="&#x1e5b;" 
d="M47 0v72h114v352h-102v72h180v-66h12q19 41 54.5 60.5t79.5 19.5q74 0 120.5 -49t49.5 -143l-82 -12q0 69 -33 99.5t-81 30.5q-61 0 -90.5 -44.5t-29.5 -109.5v-210h126v-72h-318zM200 -204q-28 0 -49 21t-21 49q0 29 21 49.5t49 20.5q29 0 49.5 -20.5t20.5 -49.5
q0 -28 -20.5 -49t-49.5 -21z" />
    <glyph glyph-name="uni1E5C" unicode="&#x1e5c;" 
d="M85 0v700h250q72 0 119.5 -26.5t71 -69.5t23.5 -94v-30q0 -39 -21.5 -78t-66.5 -60v-12q30 -4 47 -23.5t17 -54.5v-252h-84v234q0 26 -12 40t-42 14h-218v-288h-84zM169 366h156q140 0 140 120v18q0 53 -34.5 85.5t-105.5 32.5h-156v-256zM306 -204q-28 0 -49 21t-21 49
q0 29 21 49.5t49 20.5q29 0 49.5 -20.5t20.5 -49.5q0 -28 -20.5 -49t-49.5 -21zM152 774v66h262v-66h-262z" />
    <glyph glyph-name="uni1E5D" unicode="&#x1e5d;" 
d="M47 0v72h114v352h-102v72h180v-66h12q19 41 54.5 60.5t79.5 19.5q74 0 120.5 -49t49.5 -143l-82 -12q0 69 -33 99.5t-81 30.5q-61 0 -90.5 -44.5t-29.5 -109.5v-210h126v-72h-318zM200 -204q-28 0 -49 21t-21 49q0 29 21 49.5t49 20.5q29 0 49.5 -20.5t20.5 -49.5
q0 -28 -20.5 -49t-49.5 -21zM187 570v66h262v-66h-262z" />
    <glyph glyph-name="uni1E5E" unicode="&#x1e5e;" 
d="M85 0v700h250q72 0 119.5 -26.5t71 -69.5t23.5 -94v-30q0 -39 -21.5 -78t-66.5 -60v-12q30 -4 47 -23.5t17 -54.5v-252h-84v234q0 26 -12 40t-42 14h-218v-288h-84zM169 366h156q140 0 140 120v18q0 53 -34.5 85.5t-105.5 32.5h-156v-256zM165 -130v66h282v-66h-282z" />
    <glyph glyph-name="uni1E5F" unicode="&#x1e5f;" 
d="M47 0v72h114v352h-102v72h180v-66h12q19 41 54.5 60.5t79.5 19.5q74 0 120.5 -49t49.5 -143l-82 -12q0 69 -33 99.5t-81 30.5q-61 0 -90.5 -44.5t-29.5 -109.5v-210h126v-72h-318zM59 -130v66h282v-66h-282z" />
    <glyph glyph-name="uni1E60" unicode="&#x1e60;" 
d="M320 -14q-90 0 -151 33.5t-92.5 91.5t-31.5 131v30h84v-24q0 -91 51 -137.5t140 -46.5q78 0 117.5 35t39.5 91v6q0 55 -40.5 84t-131.5 42q-105 15 -167.5 59.5t-62.5 134.5v12q0 55 29.5 96.5t81.5 65.5t120 24q79 0 134.5 -29t85 -76.5t29.5 -104.5v-42h-84v36
q0 46 -23 76.5t-61 46t-82 15.5q-38 0 -71.5 -13t-54 -37.5t-20.5 -60.5v-6q0 -58 47 -84.5t141 -40.5q110 -16 162 -64t52 -128v-12q0 -91 -61.5 -147.5t-179.5 -56.5zM302 778q-28 0 -49 21t-21 49q0 29 21 49.5t49 20.5q29 0 49.5 -20.5t20.5 -49.5q0 -28 -20.5 -49
t-49.5 -21z" />
    <glyph glyph-name="uni1E61" unicode="&#x1e61;" 
d="M314 -14q-77 0 -126 26.5t-73 68t-27 85.5l74 18q5 -57 44.5 -91.5t103.5 -34.5q55 0 88.5 21.5t33.5 60.5q0 42 -33 60t-107 23q-85 6 -131.5 40.5t-46.5 98.5v6q0 47 26 78.5t67 47.5t87 16q66 0 109.5 -22.5t66.5 -58t28 -73.5l-74 -18q-4 48 -38 75t-88 27
q-42 0 -75 -18t-33 -54t30.5 -55t111.5 -25q86 -7 132 -41.5t46 -100.5v-6q0 -72 -54.5 -113t-141.5 -41zM295 574q-28 0 -49 21t-21 49q0 29 21 49.5t49 20.5q29 0 49.5 -20.5t20.5 -49.5q0 -28 -20.5 -49t-49.5 -21z" />
    <glyph glyph-name="uni1E62" unicode="&#x1e62;" 
d="M320 -14q-90 0 -151 33.5t-92.5 91.5t-31.5 131v30h84v-24q0 -91 51 -137.5t140 -46.5q78 0 117.5 35t39.5 91v6q0 55 -40.5 84t-131.5 42q-105 15 -167.5 59.5t-62.5 134.5v12q0 55 29.5 96.5t81.5 65.5t120 24q79 0 134.5 -29t85 -76.5t29.5 -104.5v-42h-84v36
q0 46 -23 76.5t-61 46t-82 15.5q-38 0 -71.5 -13t-54 -37.5t-20.5 -60.5v-6q0 -58 47 -84.5t141 -40.5q110 -16 162 -64t52 -128v-12q0 -91 -61.5 -147.5t-179.5 -56.5zM319 -204q-28 0 -49 21t-21 49q0 29 21 49.5t49 20.5q29 0 49.5 -20.5t20.5 -49.5q0 -28 -20.5 -49
t-49.5 -21z" />
    <glyph glyph-name="uni1E63" unicode="&#x1e63;" 
d="M314 -14q-77 0 -126 26.5t-73 68t-27 85.5l74 18q5 -57 44.5 -91.5t103.5 -34.5q55 0 88.5 21.5t33.5 60.5q0 42 -33 60t-107 23q-85 6 -131.5 40.5t-46.5 98.5v6q0 47 26 78.5t67 47.5t87 16q66 0 109.5 -22.5t66.5 -58t28 -73.5l-74 -18q-4 48 -38 75t-88 27
q-42 0 -75 -18t-33 -54t30.5 -55t111.5 -25q86 -7 132 -41.5t46 -100.5v-6q0 -72 -54.5 -113t-141.5 -41zM306 -204q-28 0 -49 21t-21 49q0 29 21 49.5t49 20.5q29 0 49.5 -20.5t20.5 -49.5q0 -28 -20.5 -49t-49.5 -21z" />
    <glyph glyph-name="uni1E6C" unicode="&#x1e6c;" 
d="M264 0v622h-204v78h492v-78h-204v-622h-84zM306 -204q-28 0 -49 21t-21 49q0 29 21 49.5t49 20.5q29 0 49.5 -20.5t20.5 -49.5q0 -28 -20.5 -49t-49.5 -21z" />
    <glyph glyph-name="uni1E6D" unicode="&#x1e6d;" 
d="M303 0q-34 0 -55.5 22t-21.5 56v346h-156v72h156v204h78v-204h192v-72h-192v-322q0 -30 27 -30h141v-72h-169zM278 -204q-28 0 -49 21t-21 49q0 29 21 49.5t49 20.5q29 0 49.5 -20.5t20.5 -49.5q0 -28 -20.5 -49t-49.5 -21z" />
    <glyph glyph-name="uni1E6E" unicode="&#x1e6e;" 
d="M264 0v622h-204v78h492v-78h-204v-622h-84zM165 -130v66h282v-66h-282z" />
    <glyph glyph-name="uni1E6F" unicode="&#x1e6f;" 
d="M303 0q-34 0 -55.5 22t-21.5 56v346h-156v72h156v204h78v-204h192v-72h-192v-322q0 -30 27 -30h141v-72h-169zM228 -130v66h282v-66h-282z" />
    <glyph glyph-name="Wgrave" unicode="&#x1e80;" 
d="M82 0l-71 700h76l67 -664h12l63 664h154l63 -664h12l67 664h76l-71 -700h-153l-65 664h-12l-65 -664h-153zM269 774l-84 118h90l66 -118h-72z" />
    <glyph glyph-name="wgrave" unicode="&#x1e81;" 
d="M96 0l-78 496h80l66 -460h12l58 460h144l58 -460h12l66 460h80l-78 -496h-144l-60 460h-12l-60 -460h-144zM262 570l-84 118h90l66 -118h-72z" />
    <glyph glyph-name="Wacute" unicode="&#x1e82;" 
d="M82 0l-71 700h76l67 -664h12l63 664h154l63 -664h12l67 664h76l-71 -700h-153l-65 664h-12l-65 -664h-153zM274 774l66 118h90l-84 -118h-72z" />
    <glyph glyph-name="wacute" unicode="&#x1e83;" 
d="M96 0l-78 496h80l66 -460h12l58 460h144l58 -460h12l66 460h80l-78 -496h-144l-60 460h-12l-60 -460h-144zM267 570l66 118h90l-84 -118h-72z" />
    <glyph glyph-name="Wdieresis" unicode="&#x1e84;" 
d="M82 0l-71 700h76l67 -664h12l63 664h154l63 -664h12l67 664h76l-71 -700h-153l-65 664h-12l-65 -664h-153zM403 778q-28 0 -49 21t-21 49q0 29 21 49.5t49 20.5q29 0 49.5 -20.5t20.5 -49.5q0 -28 -20.5 -49t-49.5 -21zM203 778q-28 0 -49 21t-21 49q0 29 21 49.5
t49 20.5q29 0 49.5 -20.5t20.5 -49.5q0 -28 -20.5 -49t-49.5 -21z" />
    <glyph glyph-name="wdieresis" unicode="&#x1e85;" 
d="M96 0l-78 496h80l66 -460h12l58 460h144l58 -460h12l66 460h80l-78 -496h-144l-60 460h-12l-60 -460h-144zM396 574q-28 0 -49 21t-21 49q0 29 21 49.5t49 20.5q29 0 49.5 -20.5t20.5 -49.5q0 -28 -20.5 -49t-49.5 -21zM196 574q-28 0 -49 21t-21 49q0 29 21 49.5
t49 20.5q29 0 49.5 -20.5t20.5 -49.5q0 -28 -20.5 -49t-49.5 -21z" />
    <glyph glyph-name="uni1E8E" unicode="&#x1e8e;" 
d="M264 0v246h-18l-219 454h94l179 -382h12l179 382h94l-219 -454h-18v-246h-84zM301 778q-28 0 -49 21t-21 49q0 29 21 49.5t49 20.5q29 0 49.5 -20.5t20.5 -49.5q0 -28 -20.5 -49t-49.5 -21z" />
    <glyph glyph-name="uni1E8F" unicode="&#x1e8f;" 
d="M165 -200v72h255q27 0 27 30v188h-12q-24 -48 -63 -76t-99 -28q-82 0 -134 54t-52 160v296h78v-286q0 -78 32 -114t98 -36q71 0 111.5 48.5t40.5 129.5v258h78v-618q0 -34 -21.5 -56t-55.5 -22h-283zM296 574q-28 0 -49 21t-21 49q0 29 21 49.5t49 20.5q29 0 49.5 -20.5
t20.5 -49.5q0 -28 -20.5 -49t-49.5 -21z" />
    <glyph glyph-name="uni1E92" unicode="&#x1e92;" 
d="M53 0v126l420 484v12h-396v78h468v-126l-420 -484v-12h432v-78h-504zM306 -204q-28 0 -49 21t-21 49q0 29 21 49.5t49 20.5q29 0 49.5 -20.5t20.5 -49.5q0 -28 -20.5 -49t-49.5 -21z" />
    <glyph glyph-name="uni1E93" unicode="&#x1e93;" 
d="M91 0v124l354 288v12h-348v72h414v-120l-356 -292v-12h368v-72h-432zM306 -204q-28 0 -49 21t-21 49q0 29 21 49.5t49 20.5q29 0 49.5 -20.5t20.5 -49.5q0 -28 -20.5 -49t-49.5 -21z" />
    <glyph glyph-name="uni1E97" unicode="&#x1e97;" 
d="M303 0q-34 0 -55.5 22t-21.5 56v346h-156v72h156v204h78v-204h192v-72h-192v-322q0 -30 27 -30h141v-72h-169zM366 778q-28 0 -49 21t-21 49q0 29 21 49.5t49 20.5q29 0 49.5 -20.5t20.5 -49.5q0 -28 -20.5 -49t-49.5 -21zM166 778q-28 0 -49 21t-21 49q0 29 21 49.5
t49 20.5q29 0 49.5 -20.5t20.5 -49.5q0 -28 -20.5 -49t-49.5 -21z" />
    <glyph glyph-name="uni1E9E" unicode="&#x1e9e;" 
d="M96 0v418h-60v78h60q0 99 56 151.5t145 52.5h216v-130l-192 -144v-12h40q55 0 101.5 -22t75.5 -65t29 -105v-12q0 -58 -31 -105.5t-85 -76t-122 -28.5h-80v78h78q44 0 79.5 18t56 49t20.5 70v6q0 59 -40 93t-100 34h-94v118l192 144v12h-138q-55 0 -89 -30.5t-34 -95.5
v-496h-84z" />
    <glyph glyph-name="uni1EA0" unicode="&#x1ea0;" 
d="M15 0l212 700h158l212 -700h-90l-51 174h-300l-51 -174h-90zM179 252h254l-121 412h-12zM306 -204q-28 0 -49 21t-21 49q0 29 21 49.5t49 20.5q29 0 49.5 -20.5t20.5 -49.5q0 -28 -20.5 -49t-49.5 -21z" />
    <glyph glyph-name="uni1EA1" unicode="&#x1ea1;" 
d="M279 -14q-65 0 -117.5 29.5t-83.5 86t-31 138.5v16q0 81 31 138t83.5 86.5t115.5 29.5q51 0 92.5 -22.5t65.5 -69.5h12v78h78v-394q0 -30 27 -30h25v-72h-53q-31 0 -54 20t-23 64h-12q-24 -49 -66.5 -73.5t-89.5 -24.5zM287 60q70 0 115 50t45 132v12q0 53 -21 94
t-57 64.5t-82 23.5t-82 -22.5t-57 -63t-21 -94.5v-16q0 -84 45 -132t115 -48zM281 -204q-28 0 -49 21t-21 49q0 29 21 49.5t49 20.5q29 0 49.5 -20.5t20.5 -49.5q0 -28 -20.5 -49t-49.5 -21z" />
    <glyph glyph-name="uni1EA2" unicode="&#x1ea2;" 
d="M15 0l212 700h158l212 -700h-90l-51 174h-300l-51 -174h-90zM179 252h254l-121 412h-12zM272 750l-20 92v6h76q7 -14 25 -14q14 0 24.5 10t10.5 28q0 22 -12.5 32t-27.5 10q-22 0 -33.5 -12.5t-14.5 -27.5l-48 18q8 30 31 50t66 20q39 0 66 -25t27 -66q0 -34 -20.5 -59.5
t-55.5 -25.5q-41 0 -54 32h-6l15 -68h-49z" />
    <glyph glyph-name="uni1EA3" unicode="&#x1ea3;" 
d="M279 -14q-65 0 -117.5 29.5t-83.5 86t-31 138.5v16q0 81 31 138t83.5 86.5t115.5 29.5q51 0 92.5 -22.5t65.5 -69.5h12v78h78v-394q0 -30 27 -30h25v-72h-53q-31 0 -54 20t-23 64h-12q-24 -49 -66.5 -73.5t-89.5 -24.5zM287 60q70 0 115 50t45 132v12q0 53 -21 94
t-57 64.5t-82 23.5t-82 -22.5t-57 -63t-21 -94.5v-16q0 -84 45 -132t115 -48zM255 546l-20 92v6h76q7 -14 25 -14q14 0 24.5 10t10.5 28q0 22 -12.5 32t-27.5 10q-22 0 -33.5 -12.5t-14.5 -27.5l-48 18q8 30 31 50t66 20q39 0 66 -25t27 -66q0 -34 -20.5 -59.5t-55.5 -25.5
q-41 0 -54 32h-6l15 -68h-49z" />
    <glyph glyph-name="uni1EA4" unicode="&#x1ea4;" 
d="M15 0l212 700h158l212 -700h-90l-51 174h-300l-51 -174h-90zM179 252h254l-121 412h-12zM164 774l80 118h124l80 -118h-84l-52 88h-12l-52 -88h-84zM413 862l66 118h90l-84 -118h-72z" />
    <glyph glyph-name="uni1EA5" unicode="&#x1ea5;" 
d="M279 -14q-65 0 -117.5 29.5t-83.5 86t-31 138.5v16q0 81 31 138t83.5 86.5t115.5 29.5q51 0 92.5 -22.5t65.5 -69.5h12v78h78v-394q0 -30 27 -30h25v-72h-53q-31 0 -54 20t-23 64h-12q-24 -49 -66.5 -73.5t-89.5 -24.5zM287 60q70 0 115 50t45 132v12q0 53 -21 94
t-57 64.5t-82 23.5t-82 -22.5t-57 -63t-21 -94.5v-16q0 -84 45 -132t115 -48zM147 570l80 118h124l80 -118h-84l-52 88h-12l-52 -88h-84zM396 658l66 118h90l-84 -118h-72z" />
    <glyph glyph-name="uni1EA6" unicode="&#x1ea6;" 
d="M15 0l212 700h158l212 -700h-90l-51 174h-300l-51 -174h-90zM179 252h254l-121 412h-12zM164 774l80 118h124l80 -118h-84l-52 88h-12l-52 -88h-84zM118 862l-84 118h90l66 -118h-72z" />
    <glyph glyph-name="uni1EA7" unicode="&#x1ea7;" 
d="M279 -14q-65 0 -117.5 29.5t-83.5 86t-31 138.5v16q0 81 31 138t83.5 86.5t115.5 29.5q51 0 92.5 -22.5t65.5 -69.5h12v78h78v-394q0 -30 27 -30h25v-72h-53q-31 0 -54 20t-23 64h-12q-24 -49 -66.5 -73.5t-89.5 -24.5zM287 60q70 0 115 50t45 132v12q0 53 -21 94
t-57 64.5t-82 23.5t-82 -22.5t-57 -63t-21 -94.5v-16q0 -84 45 -132t115 -48zM147 570l80 118h124l80 -118h-84l-52 88h-12l-52 -88h-84zM101 658l-84 118h90l66 -118h-72z" />
    <glyph glyph-name="uni1EA8" unicode="&#x1ea8;" 
d="M15 0l212 700h158l212 -700h-90l-51 174h-300l-51 -174h-90zM179 252h254l-121 412h-12zM164 774l80 118h124l80 -118h-84l-52 88h-12l-52 -88h-84zM425 858l-20 92v6h76q7 -14 25 -14q14 0 24.5 10t10.5 28q0 22 -12.5 32t-27.5 10q-22 0 -33.5 -12.5t-14.5 -27.5
l-48 18q8 30 31 50t66 20q39 0 66 -25t27 -66q0 -34 -20.5 -59.5t-55.5 -25.5q-41 0 -54 32h-6l15 -68h-49z" />
    <glyph glyph-name="uni1EA9" unicode="&#x1ea9;" 
d="M279 -14q-65 0 -117.5 29.5t-83.5 86t-31 138.5v16q0 81 31 138t83.5 86.5t115.5 29.5q51 0 92.5 -22.5t65.5 -69.5h12v78h78v-394q0 -30 27 -30h25v-72h-53q-31 0 -54 20t-23 64h-12q-24 -49 -66.5 -73.5t-89.5 -24.5zM287 60q70 0 115 50t45 132v12q0 53 -21 94
t-57 64.5t-82 23.5t-82 -22.5t-57 -63t-21 -94.5v-16q0 -84 45 -132t115 -48zM147 570l80 118h124l80 -118h-84l-52 88h-12l-52 -88h-84zM408 654l-20 92v6h76q7 -14 25 -14q14 0 24.5 10t10.5 28q0 22 -12.5 32t-27.5 10q-22 0 -33.5 -12.5t-14.5 -27.5l-48 18q8 30 31 50
t66 20q39 0 66 -25t27 -66q0 -34 -20.5 -59.5t-55.5 -25.5q-41 0 -54 32h-6l15 -68h-49z" />
    <glyph glyph-name="uni1EAA" unicode="&#x1eaa;" 
d="M15 0l212 700h158l212 -700h-90l-51 174h-300l-51 -174h-90zM179 252h254l-121 412h-12zM164 730l80 118h124l80 -118h-84l-52 88h-12l-52 -88h-84zM361 873q-25 0 -42 12t-31 35q-18 34 -33 34q-5 0 -11 -2.5t-15 -13.5l-41 -49l-49 42l42 49q14 17 32.5 29.5t45.5 12.5
q29 0 44 -13t28 -35q12 -19 19.5 -26t14.5 -7q5 0 10.5 3t12.5 12l43 50l49 -42l-41 -49q-15 -18 -34.5 -30t-43.5 -12z" />
    <glyph glyph-name="uni1EAB" unicode="&#x1eab;" 
d="M279 -14q-65 0 -117.5 29.5t-83.5 86t-31 138.5v16q0 81 31 138t83.5 86.5t115.5 29.5q51 0 92.5 -22.5t65.5 -69.5h12v78h78v-394q0 -30 27 -30h25v-72h-53q-31 0 -54 20t-23 64h-12q-24 -49 -66.5 -73.5t-89.5 -24.5zM287 60q70 0 115 50t45 132v12q0 53 -21 94
t-57 64.5t-82 23.5t-82 -22.5t-57 -63t-21 -94.5v-16q0 -84 45 -132t115 -48zM147 570l80 118h124l80 -118h-84l-52 88h-12l-52 -88h-84zM344 713q-25 0 -42 12t-31 35q-18 34 -33 34q-5 0 -11 -2.5t-15 -13.5l-41 -49l-49 42l42 49q14 17 32.5 29.5t45.5 12.5q29 0 44 -13
t28 -35q12 -19 19.5 -26t14.5 -7q5 0 10.5 3t12.5 12l43 50l49 -42l-41 -49q-15 -18 -34.5 -30t-43.5 -12z" />
    <glyph glyph-name="uni1EAC" unicode="&#x1eac;" 
d="M15 0l212 700h158l212 -700h-90l-51 174h-300l-51 -174h-90zM179 252h254l-121 412h-12zM306 -204q-28 0 -49 21t-21 49q0 29 21 49.5t49 20.5q29 0 49.5 -20.5t20.5 -49.5q0 -28 -20.5 -49t-49.5 -21zM164 774l80 118h124l80 -118h-84l-52 88h-12l-52 -88h-84z" />
    <glyph glyph-name="uni1EAD" unicode="&#x1ead;" 
d="M279 -14q-65 0 -117.5 29.5t-83.5 86t-31 138.5v16q0 81 31 138t83.5 86.5t115.5 29.5q51 0 92.5 -22.5t65.5 -69.5h12v78h78v-394q0 -30 27 -30h25v-72h-53q-31 0 -54 20t-23 64h-12q-24 -49 -66.5 -73.5t-89.5 -24.5zM287 60q70 0 115 50t45 132v12q0 53 -21 94
t-57 64.5t-82 23.5t-82 -22.5t-57 -63t-21 -94.5v-16q0 -84 45 -132t115 -48zM281 -204q-28 0 -49 21t-21 49q0 29 21 49.5t49 20.5q29 0 49.5 -20.5t20.5 -49.5q0 -28 -20.5 -49t-49.5 -21zM147 570l80 118h124l80 -118h-84l-52 88h-12l-52 -88h-84z" />
    <glyph glyph-name="uni1EAE" unicode="&#x1eae;" 
d="M15 0l212 700h158l212 -700h-90l-51 174h-300l-51 -174h-90zM179 252h254l-121 412h-12zM306 730q-49 0 -78.5 30t-29.5 78v10h69v-12q0 -16 10 -27.5t29 -11.5t29 11.5t10 27.5v12h69v-10q0 -48 -29 -78t-79 -30zM281 897l66 118h90l-84 -118h-72z" />
    <glyph glyph-name="uni1EAF" unicode="&#x1eaf;" 
d="M279 -14q-65 0 -117.5 29.5t-83.5 86t-31 138.5v16q0 81 31 138t83.5 86.5t115.5 29.5q51 0 92.5 -22.5t65.5 -69.5h12v78h78v-394q0 -30 27 -30h25v-72h-53q-31 0 -54 20t-23 64h-12q-24 -49 -66.5 -73.5t-89.5 -24.5zM287 60q70 0 115 50t45 132v12q0 53 -21 94
t-57 64.5t-82 23.5t-82 -22.5t-57 -63t-21 -94.5v-16q0 -84 45 -132t115 -48zM289 570q-49 0 -78.5 30t-29.5 78v10h69v-12q0 -16 10 -27.5t29 -11.5t29 11.5t10 27.5v12h69v-10q0 -48 -29 -78t-79 -30zM264 737l66 118h90l-84 -118h-72z" />
    <glyph glyph-name="uni1EB0" unicode="&#x1eb0;" 
d="M15 0l212 700h158l212 -700h-90l-51 174h-300l-51 -174h-90zM179 252h254l-121 412h-12zM306 730q-49 0 -78.5 30t-29.5 78v10h69v-12q0 -16 10 -27.5t29 -11.5t29 11.5t10 27.5v12h69v-10q0 -48 -29 -78t-79 -30zM276 897l-84 118h90l66 -118h-72z" />
    <glyph glyph-name="uni1EB1" unicode="&#x1eb1;" 
d="M279 -14q-65 0 -117.5 29.5t-83.5 86t-31 138.5v16q0 81 31 138t83.5 86.5t115.5 29.5q51 0 92.5 -22.5t65.5 -69.5h12v78h78v-394q0 -30 27 -30h25v-72h-53q-31 0 -54 20t-23 64h-12q-24 -49 -66.5 -73.5t-89.5 -24.5zM287 60q70 0 115 50t45 132v12q0 53 -21 94
t-57 64.5t-82 23.5t-82 -22.5t-57 -63t-21 -94.5v-16q0 -84 45 -132t115 -48zM289 570q-49 0 -78.5 30t-29.5 78v10h69v-12q0 -16 10 -27.5t29 -11.5t29 11.5t10 27.5v12h69v-10q0 -48 -29 -78t-79 -30zM259 737l-84 118h90l66 -118h-72z" />
    <glyph glyph-name="uni1EB2" unicode="&#x1eb2;" 
d="M15 0l212 700h158l212 -700h-90l-51 174h-300l-51 -174h-90zM179 252h254l-121 412h-12zM306 730q-49 0 -78.5 30t-29.5 78v10h69v-12q0 -16 10 -27.5t29 -11.5t29 11.5t10 27.5v12h69v-10q0 -48 -29 -78t-79 -30zM276 873l-20 92v6h76q7 -14 25 -14q14 0 24.5 10
t10.5 28q0 22 -12.5 32t-27.5 10q-22 0 -33.5 -12.5t-14.5 -27.5l-48 18q8 30 31 50t66 20q39 0 66 -25t27 -66q0 -34 -20.5 -59.5t-55.5 -25.5q-41 0 -54 32h-6l15 -68h-49z" />
    <glyph glyph-name="uni1EB3" unicode="&#x1eb3;" 
d="M279 -14q-65 0 -117.5 29.5t-83.5 86t-31 138.5v16q0 81 31 138t83.5 86.5t115.5 29.5q51 0 92.5 -22.5t65.5 -69.5h12v78h78v-394q0 -30 27 -30h25v-72h-53q-31 0 -54 20t-23 64h-12q-24 -49 -66.5 -73.5t-89.5 -24.5zM287 60q70 0 115 50t45 132v12q0 53 -21 94
t-57 64.5t-82 23.5t-82 -22.5t-57 -63t-21 -94.5v-16q0 -84 45 -132t115 -48zM289 570q-49 0 -78.5 30t-29.5 78v10h69v-12q0 -16 10 -27.5t29 -11.5t29 11.5t10 27.5v12h69v-10q0 -48 -29 -78t-79 -30zM259 713l-20 92v6h76q7 -14 25 -14q14 0 24.5 10t10.5 28
q0 22 -12.5 32t-27.5 10q-22 0 -33.5 -12.5t-14.5 -27.5l-48 18q8 30 31 50t66 20q39 0 66 -25t27 -66q0 -34 -20.5 -59.5t-55.5 -25.5q-41 0 -54 32h-6l15 -68h-49z" />
    <glyph glyph-name="uni1EB4" unicode="&#x1eb4;" 
d="M15 0l212 700h158l212 -700h-90l-51 174h-300l-51 -174h-90zM179 252h254l-121 412h-12zM306 730q-49 0 -78.5 30t-29.5 78v10h69v-12q0 -16 10 -27.5t29 -11.5t29 11.5t10 27.5v12h69v-10q0 -48 -29 -78t-79 -30zM361 878q-25 0 -42 12t-31 35q-18 34 -33 34
q-5 0 -11 -2.5t-15 -13.5l-41 -49l-49 42l42 49q14 17 32.5 29.5t45.5 12.5q29 0 44 -13t28 -35q12 -19 19.5 -26t14.5 -7q5 0 10.5 3t12.5 12l43 50l49 -42l-41 -49q-15 -18 -34.5 -30t-43.5 -12z" />
    <glyph glyph-name="uni1EB5" unicode="&#x1eb5;" 
d="M279 -14q-65 0 -117.5 29.5t-83.5 86t-31 138.5v16q0 81 31 138t83.5 86.5t115.5 29.5q51 0 92.5 -22.5t65.5 -69.5h12v78h78v-394q0 -30 27 -30h25v-72h-53q-31 0 -54 20t-23 64h-12q-24 -49 -66.5 -73.5t-89.5 -24.5zM287 60q70 0 115 50t45 132v12q0 53 -21 94
t-57 64.5t-82 23.5t-82 -22.5t-57 -63t-21 -94.5v-16q0 -84 45 -132t115 -48zM289 570q-49 0 -78.5 30t-29.5 78v10h69v-12q0 -16 10 -27.5t29 -11.5t29 11.5t10 27.5v12h69v-10q0 -48 -29 -78t-79 -30zM344 718q-25 0 -42 12t-31 35q-18 34 -33 34q-5 0 -11 -2.5t-15 -13.5
l-41 -49l-49 42l42 49q14 17 32.5 29.5t45.5 12.5q29 0 44 -13t28 -35q12 -19 19.5 -26t14.5 -7q5 0 10.5 3t12.5 12l43 50l49 -42l-41 -49q-15 -18 -34.5 -30t-43.5 -12z" />
    <glyph glyph-name="uni1EB6" unicode="&#x1eb6;" 
d="M15 0l212 700h158l212 -700h-90l-51 174h-300l-51 -174h-90zM179 252h254l-121 412h-12zM306 -204q-28 0 -49 21t-21 49q0 29 21 49.5t49 20.5q29 0 49.5 -20.5t20.5 -49.5q0 -28 -20.5 -49t-49.5 -21zM306 774q-49 0 -78.5 30t-29.5 78v10h69v-12q0 -16 10 -27.5
t29 -11.5t29 11.5t10 27.5v12h69v-10q0 -48 -29 -78t-79 -30z" />
    <glyph glyph-name="uni1EB7" unicode="&#x1eb7;" 
d="M279 -14q-65 0 -117.5 29.5t-83.5 86t-31 138.5v16q0 81 31 138t83.5 86.5t115.5 29.5q51 0 92.5 -22.5t65.5 -69.5h12v78h78v-394q0 -30 27 -30h25v-72h-53q-31 0 -54 20t-23 64h-12q-24 -49 -66.5 -73.5t-89.5 -24.5zM287 60q70 0 115 50t45 132v12q0 53 -21 94
t-57 64.5t-82 23.5t-82 -22.5t-57 -63t-21 -94.5v-16q0 -84 45 -132t115 -48zM281 -204q-28 0 -49 21t-21 49q0 29 21 49.5t49 20.5q29 0 49.5 -20.5t20.5 -49.5q0 -28 -20.5 -49t-49.5 -21zM289 570q-49 0 -78.5 30t-29.5 78v10h69v-12q0 -16 10 -27.5t29 -11.5t29 11.5
t10 27.5v12h69v-10q0 -48 -29 -78t-79 -30z" />
    <glyph glyph-name="uni1EB8" unicode="&#x1eb8;" 
d="M94 0v700h424v-78h-340v-232h334v-78h-334v-234h346v-78h-430zM306 -204q-28 0 -49 21t-21 49q0 29 21 49.5t49 20.5q29 0 49.5 -20.5t20.5 -49.5q0 -28 -20.5 -49t-49.5 -21z" />
    <glyph glyph-name="uni1EB9" unicode="&#x1eb9;" 
d="M308 -14q-71 0 -125.5 32.5t-85.5 90t-31 133.5v24q0 70 32 125t87.5 87t124.5 32q61 0 105.5 -22t73 -56t42 -72.5t13.5 -71.5v-64h-400q3 -73 46.5 -118.5t119.5 -45.5q71 0 106 30t48 72l74 -20q-21 -69 -77.5 -112.5t-152.5 -43.5zM146 296h320q-2 43 -24.5 74.5
t-57.5 48.5t-74 17q-66 0 -111 -40t-53 -100zM306 -204q-28 0 -49 21t-21 49q0 29 21 49.5t49 20.5q29 0 49.5 -20.5t20.5 -49.5q0 -28 -20.5 -49t-49.5 -21z" />
    <glyph glyph-name="uni1EBA" unicode="&#x1eba;" 
d="M94 0v700h424v-78h-340v-232h334v-78h-334v-234h346v-78h-430zM272 750l-20 92v6h76q7 -14 25 -14q14 0 24.5 10t10.5 28q0 22 -12.5 32t-27.5 10q-22 0 -33.5 -12.5t-14.5 -27.5l-48 18q8 30 31 50t66 20q39 0 66 -25t27 -66q0 -34 -20.5 -59.5t-55.5 -25.5
q-41 0 -54 32h-6l15 -68h-49z" />
    <glyph glyph-name="uni1EBB" unicode="&#x1ebb;" 
d="M308 -14q-71 0 -125.5 32.5t-85.5 90t-31 133.5v24q0 70 32 125t87.5 87t124.5 32q61 0 105.5 -22t73 -56t42 -72.5t13.5 -71.5v-64h-400q3 -73 46.5 -118.5t119.5 -45.5q71 0 106 30t48 72l74 -20q-21 -69 -77.5 -112.5t-152.5 -43.5zM146 296h320q-2 43 -24.5 74.5
t-57.5 48.5t-74 17q-66 0 -111 -40t-53 -100zM272 546l-20 92v6h76q7 -14 25 -14q14 0 24.5 10t10.5 28q0 22 -12.5 32t-27.5 10q-22 0 -33.5 -12.5t-14.5 -27.5l-48 18q8 30 31 50t66 20q39 0 66 -25t27 -66q0 -34 -20.5 -59.5t-55.5 -25.5q-41 0 -54 32h-6l15 -68h-49z
" />
    <glyph glyph-name="uni1EBC" unicode="&#x1ebc;" 
d="M94 0v700h424v-78h-340v-232h334v-78h-334v-234h346v-78h-430zM357 755q-25 0 -42 12t-31 35q-18 34 -33 34q-5 0 -11 -2.5t-15 -13.5l-41 -49l-49 42l42 49q14 17 32.5 29.5t45.5 12.5q29 0 44 -13t28 -35q12 -19 19.5 -26t14.5 -7q5 0 10.5 3t12.5 12l43 50l49 -42
l-41 -49q-15 -18 -34.5 -30t-43.5 -12z" />
    <glyph glyph-name="uni1EBD" unicode="&#x1ebd;" 
d="M308 -14q-71 0 -125.5 32.5t-85.5 90t-31 133.5v24q0 70 32 125t87.5 87t124.5 32q61 0 105.5 -22t73 -56t42 -72.5t13.5 -71.5v-64h-400q3 -73 46.5 -118.5t119.5 -45.5q71 0 106 30t48 72l74 -20q-21 -69 -77.5 -112.5t-152.5 -43.5zM146 296h320q-2 43 -24.5 74.5
t-57.5 48.5t-74 17q-66 0 -111 -40t-53 -100zM357 551q-25 0 -42 12t-31 35q-18 34 -33 34q-5 0 -11 -2.5t-15 -13.5l-41 -49l-49 42l42 49q14 17 32.5 29.5t45.5 12.5q29 0 44 -13t28 -35q12 -19 19.5 -26t14.5 -7q5 0 10.5 3t12.5 12l43 50l49 -42l-41 -49
q-15 -18 -34.5 -30t-43.5 -12z" />
    <glyph glyph-name="uni1EBE" unicode="&#x1ebe;" 
d="M94 0v700h424v-78h-340v-232h334v-78h-334v-234h346v-78h-430zM164 774l80 118h124l80 -118h-84l-52 88h-12l-52 -88h-84zM413 862l66 118h90l-84 -118h-72z" />
    <glyph glyph-name="uni1EBF" unicode="&#x1ebf;" 
d="M308 -14q-71 0 -125.5 32.5t-85.5 90t-31 133.5v24q0 70 32 125t87.5 87t124.5 32q61 0 105.5 -22t73 -56t42 -72.5t13.5 -71.5v-64h-400q3 -73 46.5 -118.5t119.5 -45.5q71 0 106 30t48 72l74 -20q-21 -69 -77.5 -112.5t-152.5 -43.5zM146 296h320q-2 43 -24.5 74.5
t-57.5 48.5t-74 17q-66 0 -111 -40t-53 -100zM164 570l80 118h124l80 -118h-84l-52 88h-12l-52 -88h-84zM413 658l66 118h90l-84 -118h-72z" />
    <glyph glyph-name="uni1EC0" unicode="&#x1ec0;" 
d="M94 0v700h424v-78h-340v-232h334v-78h-334v-234h346v-78h-430zM164 774l80 118h124l80 -118h-84l-52 88h-12l-52 -88h-84zM118 862l-84 118h90l66 -118h-72z" />
    <glyph glyph-name="uni1EC1" unicode="&#x1ec1;" 
d="M308 -14q-71 0 -125.5 32.5t-85.5 90t-31 133.5v24q0 70 32 125t87.5 87t124.5 32q61 0 105.5 -22t73 -56t42 -72.5t13.5 -71.5v-64h-400q3 -73 46.5 -118.5t119.5 -45.5q71 0 106 30t48 72l74 -20q-21 -69 -77.5 -112.5t-152.5 -43.5zM146 296h320q-2 43 -24.5 74.5
t-57.5 48.5t-74 17q-66 0 -111 -40t-53 -100zM164 570l80 118h124l80 -118h-84l-52 88h-12l-52 -88h-84zM118 658l-84 118h90l66 -118h-72z" />
    <glyph glyph-name="uni1EC2" unicode="&#x1ec2;" 
d="M94 0v700h424v-78h-340v-232h334v-78h-334v-234h346v-78h-430zM164 774l80 118h124l80 -118h-84l-52 88h-12l-52 -88h-84zM425 858l-20 92v6h76q7 -14 25 -14q14 0 24.5 10t10.5 28q0 22 -12.5 32t-27.5 10q-22 0 -33.5 -12.5t-14.5 -27.5l-48 18q8 30 31 50t66 20
q39 0 66 -25t27 -66q0 -34 -20.5 -59.5t-55.5 -25.5q-41 0 -54 32h-6l15 -68h-49z" />
    <glyph glyph-name="uni1EC3" unicode="&#x1ec3;" 
d="M308 -14q-71 0 -125.5 32.5t-85.5 90t-31 133.5v24q0 70 32 125t87.5 87t124.5 32q61 0 105.5 -22t73 -56t42 -72.5t13.5 -71.5v-64h-400q3 -73 46.5 -118.5t119.5 -45.5q71 0 106 30t48 72l74 -20q-21 -69 -77.5 -112.5t-152.5 -43.5zM146 296h320q-2 43 -24.5 74.5
t-57.5 48.5t-74 17q-66 0 -111 -40t-53 -100zM164 570l80 118h124l80 -118h-84l-52 88h-12l-52 -88h-84zM425 654l-20 92v6h76q7 -14 25 -14q14 0 24.5 10t10.5 28q0 22 -12.5 32t-27.5 10q-22 0 -33.5 -12.5t-14.5 -27.5l-48 18q8 30 31 50t66 20q39 0 66 -25t27 -66
q0 -34 -20.5 -59.5t-55.5 -25.5q-41 0 -54 32h-6l15 -68h-49z" />
    <glyph glyph-name="uni1EC4" unicode="&#x1ec4;" 
d="M94 0v700h424v-78h-340v-232h334v-78h-334v-234h346v-78h-430zM164 731l80 118h124l80 -118h-84l-52 88h-12l-52 -88h-84zM361 874q-25 0 -42 12t-31 35q-18 34 -33 34q-5 0 -11 -2.5t-15 -13.5l-41 -49l-49 42l42 49q14 17 32.5 29.5t45.5 12.5q29 0 44 -13t28 -35
q12 -19 19.5 -26t14.5 -7q5 0 10.5 3t12.5 12l43 50l49 -42l-41 -49q-15 -18 -34.5 -30t-43.5 -12z" />
    <glyph glyph-name="uni1EC5" unicode="&#x1ec5;" 
d="M308 -14q-71 0 -125.5 32.5t-85.5 90t-31 133.5v24q0 70 32 125t87.5 87t124.5 32q61 0 105.5 -22t73 -56t42 -72.5t13.5 -71.5v-64h-400q3 -73 46.5 -118.5t119.5 -45.5q71 0 106 30t48 72l74 -20q-21 -69 -77.5 -112.5t-152.5 -43.5zM146 296h320q-2 43 -24.5 74.5
t-57.5 48.5t-74 17q-66 0 -111 -40t-53 -100zM164 570l80 118h124l80 -118h-84l-52 88h-12l-52 -88h-84zM361 713q-25 0 -42 12t-31 35q-18 34 -33 34q-5 0 -11 -2.5t-15 -13.5l-41 -49l-49 42l42 49q14 17 32.5 29.5t45.5 12.5q29 0 44 -13t28 -35q12 -19 19.5 -26t14.5 -7
q5 0 10.5 3t12.5 12l43 50l49 -42l-41 -49q-15 -18 -34.5 -30t-43.5 -12z" />
    <glyph glyph-name="uni1EC6" unicode="&#x1ec6;" 
d="M94 0v700h424v-78h-340v-232h334v-78h-334v-234h346v-78h-430zM306 -204q-28 0 -49 21t-21 49q0 29 21 49.5t49 20.5q29 0 49.5 -20.5t20.5 -49.5q0 -28 -20.5 -49t-49.5 -21zM164 774l80 118h124l80 -118h-84l-52 88h-12l-52 -88h-84z" />
    <glyph glyph-name="uni1EC7" unicode="&#x1ec7;" 
d="M308 -14q-71 0 -125.5 32.5t-85.5 90t-31 133.5v24q0 70 32 125t87.5 87t124.5 32q61 0 105.5 -22t73 -56t42 -72.5t13.5 -71.5v-64h-400q3 -73 46.5 -118.5t119.5 -45.5q71 0 106 30t48 72l74 -20q-21 -69 -77.5 -112.5t-152.5 -43.5zM146 296h320q-2 43 -24.5 74.5
t-57.5 48.5t-74 17q-66 0 -111 -40t-53 -100zM306 -204q-28 0 -49 21t-21 49q0 29 21 49.5t49 20.5q29 0 49.5 -20.5t20.5 -49.5q0 -28 -20.5 -49t-49.5 -21zM164 570l80 118h124l80 -118h-84l-52 88h-12l-52 -88h-84z" />
    <glyph glyph-name="uni1EC8" unicode="&#x1ec8;" 
d="M84 0v78h180v544h-180v78h444v-78h-180v-544h180v-78h-444zM274 750l-20 92v6h76q7 -14 25 -14q14 0 24.5 10t10.5 28q0 22 -12.5 32t-27.5 10q-22 0 -33.5 -12.5t-14.5 -27.5l-48 18q8 30 31 50t66 20q39 0 66 -25t27 -66q0 -34 -20.5 -59.5t-55.5 -25.5q-41 0 -54 32
h-6l15 -68h-49z" />
    <glyph glyph-name="uni1EC9" unicode="&#x1ec9;" 
d="M99 0v72h174v352h-156v72h234v-424h162v-72h-414zM255 546l-20 92v6h76q7 -14 25 -14q14 0 24.5 10t10.5 28q0 22 -12.5 32t-27.5 10q-22 0 -33.5 -12.5t-14.5 -27.5l-48 18q8 30 31 50t66 20q39 0 66 -25t27 -66q0 -34 -20.5 -59.5t-55.5 -25.5q-41 0 -54 32h-6l15 -68
h-49z" />
    <glyph glyph-name="uni1ECA" unicode="&#x1eca;" 
d="M84 0v78h180v544h-180v78h444v-78h-180v-544h180v-78h-444zM306 -204q-28 0 -49 21t-21 49q0 29 21 49.5t49 20.5q29 0 49.5 -20.5t20.5 -49.5q0 -28 -20.5 -49t-49.5 -21z" />
    <glyph glyph-name="uni1ECB" unicode="&#x1ecb;" 
d="M311 574q-28 0 -49 21t-21 49q0 29 21 49.5t49 20.5q29 0 49.5 -20.5t20.5 -49.5q0 -28 -20.5 -49t-49.5 -21zM99 0v72h174v352h-156v72h234v-424h162v-72h-414zM306 -204q-28 0 -49 21t-21 49q0 29 21 49.5t49 20.5q29 0 49.5 -20.5t20.5 -49.5q0 -28 -20.5 -49
t-49.5 -21z" />
    <glyph glyph-name="uni1ECC" unicode="&#x1ecc;" 
d="M306 -14q-115 0 -180.5 73.5t-65.5 212.5v156q0 135 65.5 210.5t180.5 75.5q116 0 181 -75.5t65 -210.5v-156q0 -139 -65 -212.5t-181 -73.5zM306 64q81 0 121.5 56t40.5 158v144q0 96 -40.5 155t-121.5 59t-121.5 -59t-40.5 -155v-144q0 -102 40.5 -158t121.5 -56z
M306 -204q-28 0 -49 21t-21 49q0 29 21 49.5t49 20.5q29 0 49.5 -20.5t20.5 -49.5q0 -28 -20.5 -49t-49.5 -21z" />
    <glyph glyph-name="uni1ECD" unicode="&#x1ecd;" 
d="M306 -14q-66 0 -122.5 30t-91.5 87t-35 139v12q0 81 35 138.5t91.5 87.5t122.5 30t122.5 -30t91.5 -87.5t35 -138.5v-12q0 -82 -35 -139t-91.5 -87t-122.5 -30zM306 60q48 0 86 22t60.5 63t22.5 97v12q0 54 -22.5 95t-61 64t-85.5 23t-85.5 -23t-61 -64t-22.5 -95v-12
q0 -56 22.5 -97t61 -63t85.5 -22zM306 -204q-28 0 -49 21t-21 49q0 29 21 49.5t49 20.5q29 0 49.5 -20.5t20.5 -49.5q0 -28 -20.5 -49t-49.5 -21z" />
    <glyph glyph-name="uni1ECE" unicode="&#x1ece;" 
d="M306 -14q-115 0 -180.5 73.5t-65.5 212.5v156q0 135 65.5 210.5t180.5 75.5q116 0 181 -75.5t65 -210.5v-156q0 -139 -65 -212.5t-181 -73.5zM306 64q81 0 121.5 56t40.5 158v144q0 96 -40.5 155t-121.5 59t-121.5 -59t-40.5 -155v-144q0 -102 40.5 -158t121.5 -56z
M272 750l-20 92v6h76q7 -14 25 -14q14 0 24.5 10t10.5 28q0 22 -12.5 32t-27.5 10q-22 0 -33.5 -12.5t-14.5 -27.5l-48 18q8 30 31 50t66 20q39 0 66 -25t27 -66q0 -34 -20.5 -59.5t-55.5 -25.5q-41 0 -54 32h-6l15 -68h-49z" />
    <glyph glyph-name="uni1ECF" unicode="&#x1ecf;" 
d="M306 -14q-66 0 -122.5 30t-91.5 87t-35 139v12q0 81 35 138.5t91.5 87.5t122.5 30t122.5 -30t91.5 -87.5t35 -138.5v-12q0 -82 -35 -139t-91.5 -87t-122.5 -30zM306 60q48 0 86 22t60.5 63t22.5 97v12q0 54 -22.5 95t-61 64t-85.5 23t-85.5 -23t-61 -64t-22.5 -95v-12
q0 -56 22.5 -97t61 -63t85.5 -22zM272 546l-20 92v6h76q7 -14 25 -14q14 0 24.5 10t10.5 28q0 22 -12.5 32t-27.5 10q-22 0 -33.5 -12.5t-14.5 -27.5l-48 18q8 30 31 50t66 20q39 0 66 -25t27 -66q0 -34 -20.5 -59.5t-55.5 -25.5q-41 0 -54 32h-6l15 -68h-49z" />
    <glyph glyph-name="uni1ED0" unicode="&#x1ed0;" 
d="M306 -14q-115 0 -180.5 73.5t-65.5 212.5v156q0 135 65.5 210.5t180.5 75.5q116 0 181 -75.5t65 -210.5v-156q0 -139 -65 -212.5t-181 -73.5zM306 64q81 0 121.5 56t40.5 158v144q0 96 -40.5 155t-121.5 59t-121.5 -59t-40.5 -155v-144q0 -102 40.5 -158t121.5 -56z
M164 774l80 118h124l80 -118h-84l-52 88h-12l-52 -88h-84zM413 862l66 118h90l-84 -118h-72z" />
    <glyph glyph-name="uni1ED1" unicode="&#x1ed1;" 
d="M306 -14q-66 0 -122.5 30t-91.5 87t-35 139v12q0 81 35 138.5t91.5 87.5t122.5 30t122.5 -30t91.5 -87.5t35 -138.5v-12q0 -82 -35 -139t-91.5 -87t-122.5 -30zM306 60q48 0 86 22t60.5 63t22.5 97v12q0 54 -22.5 95t-61 64t-85.5 23t-85.5 -23t-61 -64t-22.5 -95v-12
q0 -56 22.5 -97t61 -63t85.5 -22zM164 570l80 118h124l80 -118h-84l-52 88h-12l-52 -88h-84zM413 658l66 118h90l-84 -118h-72z" />
    <glyph glyph-name="uni1ED2" unicode="&#x1ed2;" 
d="M306 -14q-115 0 -180.5 73.5t-65.5 212.5v156q0 135 65.5 210.5t180.5 75.5q116 0 181 -75.5t65 -210.5v-156q0 -139 -65 -212.5t-181 -73.5zM306 64q81 0 121.5 56t40.5 158v144q0 96 -40.5 155t-121.5 59t-121.5 -59t-40.5 -155v-144q0 -102 40.5 -158t121.5 -56z
M164 774l80 118h124l80 -118h-84l-52 88h-12l-52 -88h-84zM118 862l-84 118h90l66 -118h-72z" />
    <glyph glyph-name="uni1ED3" unicode="&#x1ed3;" 
d="M306 -14q-66 0 -122.5 30t-91.5 87t-35 139v12q0 81 35 138.5t91.5 87.5t122.5 30t122.5 -30t91.5 -87.5t35 -138.5v-12q0 -82 -35 -139t-91.5 -87t-122.5 -30zM306 60q48 0 86 22t60.5 63t22.5 97v12q0 54 -22.5 95t-61 64t-85.5 23t-85.5 -23t-61 -64t-22.5 -95v-12
q0 -56 22.5 -97t61 -63t85.5 -22zM164 570l80 118h124l80 -118h-84l-52 88h-12l-52 -88h-84zM118 658l-84 118h90l66 -118h-72z" />
    <glyph glyph-name="uni1ED4" unicode="&#x1ed4;" 
d="M306 -14q-115 0 -180.5 73.5t-65.5 212.5v156q0 135 65.5 210.5t180.5 75.5q116 0 181 -75.5t65 -210.5v-156q0 -139 -65 -212.5t-181 -73.5zM306 64q81 0 121.5 56t40.5 158v144q0 96 -40.5 155t-121.5 59t-121.5 -59t-40.5 -155v-144q0 -102 40.5 -158t121.5 -56z
M164 774l80 118h124l80 -118h-84l-52 88h-12l-52 -88h-84zM425 858l-20 92v6h76q7 -14 25 -14q14 0 24.5 10t10.5 28q0 22 -12.5 32t-27.5 10q-22 0 -33.5 -12.5t-14.5 -27.5l-48 18q8 30 31 50t66 20q39 0 66 -25t27 -66q0 -34 -20.5 -59.5t-55.5 -25.5q-41 0 -54 32h-6
l15 -68h-49z" />
    <glyph glyph-name="uni1ED5" unicode="&#x1ed5;" 
d="M306 -14q-66 0 -122.5 30t-91.5 87t-35 139v12q0 81 35 138.5t91.5 87.5t122.5 30t122.5 -30t91.5 -87.5t35 -138.5v-12q0 -82 -35 -139t-91.5 -87t-122.5 -30zM306 60q48 0 86 22t60.5 63t22.5 97v12q0 54 -22.5 95t-61 64t-85.5 23t-85.5 -23t-61 -64t-22.5 -95v-12
q0 -56 22.5 -97t61 -63t85.5 -22zM164 570l80 118h124l80 -118h-84l-52 88h-12l-52 -88h-84zM425 654l-20 92v6h76q7 -14 25 -14q14 0 24.5 10t10.5 28q0 22 -12.5 32t-27.5 10q-22 0 -33.5 -12.5t-14.5 -27.5l-48 18q8 30 31 50t66 20q39 0 66 -25t27 -66
q0 -34 -20.5 -59.5t-55.5 -25.5q-41 0 -54 32h-6l15 -68h-49z" />
    <glyph glyph-name="uni1ED6" unicode="&#x1ed6;" 
d="M306 -14q-115 0 -180.5 73.5t-65.5 212.5v156q0 135 65.5 210.5t180.5 75.5q116 0 181 -75.5t65 -210.5v-156q0 -139 -65 -212.5t-181 -73.5zM306 64q81 0 121.5 56t40.5 158v144q0 96 -40.5 155t-121.5 59t-121.5 -59t-40.5 -155v-144q0 -102 40.5 -158t121.5 -56z
M164 729l80 118h124l80 -118h-84l-52 88h-12l-52 -88h-84zM361 872q-25 0 -42 12t-31 35q-18 34 -33 34q-5 0 -11 -2.5t-15 -13.5l-41 -49l-49 42l42 49q14 17 32.5 29.5t45.5 12.5q29 0 44 -13t28 -35q12 -19 19.5 -26t14.5 -7q5 0 10.5 3t12.5 12l43 50l49 -42l-41 -49
q-15 -18 -34.5 -30t-43.5 -12z" />
    <glyph glyph-name="uni1ED7" unicode="&#x1ed7;" 
d="M306 -14q-66 0 -122.5 30t-91.5 87t-35 139v12q0 81 35 138.5t91.5 87.5t122.5 30t122.5 -30t91.5 -87.5t35 -138.5v-12q0 -82 -35 -139t-91.5 -87t-122.5 -30zM306 60q48 0 86 22t60.5 63t22.5 97v12q0 54 -22.5 95t-61 64t-85.5 23t-85.5 -23t-61 -64t-22.5 -95v-12
q0 -56 22.5 -97t61 -63t85.5 -22zM164 570l80 118h124l80 -118h-84l-52 88h-12l-52 -88h-84zM361 713q-25 0 -42 12t-31 35q-18 34 -33 34q-5 0 -11 -2.5t-15 -13.5l-41 -49l-49 42l42 49q14 17 32.5 29.5t45.5 12.5q29 0 44 -13t28 -35q12 -19 19.5 -26t14.5 -7q5 0 10.5 3
t12.5 12l43 50l49 -42l-41 -49q-15 -18 -34.5 -30t-43.5 -12z" />
    <glyph glyph-name="uni1ED8" unicode="&#x1ed8;" 
d="M306 -14q-115 0 -180.5 73.5t-65.5 212.5v156q0 135 65.5 210.5t180.5 75.5q116 0 181 -75.5t65 -210.5v-156q0 -139 -65 -212.5t-181 -73.5zM306 64q81 0 121.5 56t40.5 158v144q0 96 -40.5 155t-121.5 59t-121.5 -59t-40.5 -155v-144q0 -102 40.5 -158t121.5 -56z
M306 -204q-28 0 -49 21t-21 49q0 29 21 49.5t49 20.5q29 0 49.5 -20.5t20.5 -49.5q0 -28 -20.5 -49t-49.5 -21zM164 774l80 118h124l80 -118h-84l-52 88h-12l-52 -88h-84z" />
    <glyph glyph-name="uni1ED9" unicode="&#x1ed9;" 
d="M306 -14q-66 0 -122.5 30t-91.5 87t-35 139v12q0 81 35 138.5t91.5 87.5t122.5 30t122.5 -30t91.5 -87.5t35 -138.5v-12q0 -82 -35 -139t-91.5 -87t-122.5 -30zM306 60q48 0 86 22t60.5 63t22.5 97v12q0 54 -22.5 95t-61 64t-85.5 23t-85.5 -23t-61 -64t-22.5 -95v-12
q0 -56 22.5 -97t61 -63t85.5 -22zM306 -204q-28 0 -49 21t-21 49q0 29 21 49.5t49 20.5q29 0 49.5 -20.5t20.5 -49.5q0 -28 -20.5 -49t-49.5 -21zM164 570l80 118h124l80 -118h-84l-52 88h-12l-52 -88h-84z" />
    <glyph glyph-name="uni1EDA" unicode="&#x1eda;" 
d="M242 -14q-96 0 -150 58.5t-54 173.5v258q0 113 53.5 175.5t150.5 62.5q90 0 143 -54t60 -152h67q27 0 27 30v25q-7 -3 -17 -3q-28 0 -48.5 21t-20.5 49q0 29 21 49.5t49 20.5q29 0 49.5 -20.5t20.5 -49.5v-98q0 -34 -21.5 -56t-55.5 -22h-70v-236q0 -115 -54 -173.5
t-150 -58.5zM242 62q62 0 91 40t29 122v252q0 77 -28.5 119.5t-91.5 42.5t-91.5 -42.5t-28.5 -119.5v-252q0 -82 29.5 -122t90.5 -40zM213 774l66 118h90l-84 -118h-72z" />
    <glyph glyph-name="uni1EDB" unicode="&#x1edb;" 
d="M253 -14q-96 0 -154.5 67.5t-58.5 188.5v12q0 80 27 137.5t75 88t111 30.5q85 0 141.5 -54t68.5 -152h62q27 0 27 30v25q-7 -3 -17 -3q-28 0 -48.5 21t-20.5 49q0 29 21 49.5t49 20.5q29 0 49.5 -20.5t20.5 -49.5v-98q0 -34 -21.5 -56t-55.5 -22h-63v-8
q0 -121 -58.5 -188.5t-154.5 -67.5zM253 60q67 0 100 49t33 133v12q0 81 -33.5 131.5t-99.5 50.5t-99.5 -50.5t-33.5 -131.5v-12q0 -84 33 -133t100 -49zM216 570l66 118h90l-84 -118h-72z" />
    <glyph glyph-name="uni1EDC" unicode="&#x1edc;" 
d="M242 -14q-96 0 -150 58.5t-54 173.5v258q0 113 53.5 175.5t150.5 62.5q90 0 143 -54t60 -152h67q27 0 27 30v25q-7 -3 -17 -3q-28 0 -48.5 21t-20.5 49q0 29 21 49.5t49 20.5q29 0 49.5 -20.5t20.5 -49.5v-98q0 -34 -21.5 -56t-55.5 -22h-70v-236q0 -115 -54 -173.5
t-150 -58.5zM242 62q62 0 91 40t29 122v252q0 77 -28.5 119.5t-91.5 42.5t-91.5 -42.5t-28.5 -119.5v-252q0 -82 29.5 -122t90.5 -40zM208 774l-84 118h90l66 -118h-72z" />
    <glyph glyph-name="uni1EDD" unicode="&#x1edd;" 
d="M253 -14q-96 0 -154.5 67.5t-58.5 188.5v12q0 80 27 137.5t75 88t111 30.5q85 0 141.5 -54t68.5 -152h62q27 0 27 30v25q-7 -3 -17 -3q-28 0 -48.5 21t-20.5 49q0 29 21 49.5t49 20.5q29 0 49.5 -20.5t20.5 -49.5v-98q0 -34 -21.5 -56t-55.5 -22h-63v-8
q0 -121 -58.5 -188.5t-154.5 -67.5zM253 60q67 0 100 49t33 133v12q0 81 -33.5 131.5t-99.5 50.5t-99.5 -50.5t-33.5 -131.5v-12q0 -84 33 -133t100 -49zM211 570l-84 118h90l66 -118h-72z" />
    <glyph glyph-name="uni1EDE" unicode="&#x1ede;" 
d="M242 -14q-96 0 -150 58.5t-54 173.5v258q0 113 53.5 175.5t150.5 62.5q90 0 143 -54t60 -152h67q27 0 27 30v25q-7 -3 -17 -3q-28 0 -48.5 21t-20.5 49q0 29 21 49.5t49 20.5q29 0 49.5 -20.5t20.5 -49.5v-98q0 -34 -21.5 -56t-55.5 -22h-70v-236q0 -115 -54 -173.5
t-150 -58.5zM242 62q62 0 91 40t29 122v252q0 77 -28.5 119.5t-91.5 42.5t-91.5 -42.5t-28.5 -119.5v-252q0 -82 29.5 -122t90.5 -40zM208 750l-20 92v6h76q7 -14 25 -14q14 0 24.5 10t10.5 28q0 22 -12.5 32t-27.5 10q-22 0 -33.5 -12.5t-14.5 -27.5l-48 18q8 30 31 50
t66 20q39 0 66 -25t27 -66q0 -34 -20.5 -59.5t-55.5 -25.5q-41 0 -54 32h-6l15 -68h-49z" />
    <glyph glyph-name="uni1EDF" unicode="&#x1edf;" 
d="M253 -14q-96 0 -154.5 67.5t-58.5 188.5v12q0 80 27 137.5t75 88t111 30.5q85 0 141.5 -54t68.5 -152h62q27 0 27 30v25q-7 -3 -17 -3q-28 0 -48.5 21t-20.5 49q0 29 21 49.5t49 20.5q29 0 49.5 -20.5t20.5 -49.5v-98q0 -34 -21.5 -56t-55.5 -22h-63v-8
q0 -121 -58.5 -188.5t-154.5 -67.5zM253 60q67 0 100 49t33 133v12q0 81 -33.5 131.5t-99.5 50.5t-99.5 -50.5t-33.5 -131.5v-12q0 -84 33 -133t100 -49zM211 546l-20 92v6h76q7 -14 25 -14q14 0 24.5 10t10.5 28q0 22 -12.5 32t-27.5 10q-22 0 -33.5 -12.5t-14.5 -27.5
l-48 18q8 30 31 50t66 20q39 0 66 -25t27 -66q0 -34 -20.5 -59.5t-55.5 -25.5q-41 0 -54 32h-6l15 -68h-49z" />
    <glyph glyph-name="uni1EE0" unicode="&#x1ee0;" 
d="M242 -14q-96 0 -150 58.5t-54 173.5v258q0 113 53.5 175.5t150.5 62.5q90 0 143 -54t60 -152h67q27 0 27 30v25q-7 -3 -17 -3q-28 0 -48.5 21t-20.5 49q0 29 21 49.5t49 20.5q29 0 49.5 -20.5t20.5 -49.5v-98q0 -34 -21.5 -56t-55.5 -22h-70v-236q0 -115 -54 -173.5
t-150 -58.5zM242 62q62 0 91 40t29 122v252q0 77 -28.5 119.5t-91.5 42.5t-91.5 -42.5t-28.5 -119.5v-252q0 -82 29.5 -122t90.5 -40zM293 755q-25 0 -42 12t-31 35q-18 34 -33 34q-5 0 -11 -2.5t-15 -13.5l-41 -49l-49 42l42 49q14 17 32.5 29.5t45.5 12.5q29 0 44 -13
t28 -35q12 -19 19.5 -26t14.5 -7q5 0 10.5 3t12.5 12l43 50l49 -42l-41 -49q-15 -18 -34.5 -30t-43.5 -12z" />
    <glyph glyph-name="uni1EE1" unicode="&#x1ee1;" 
d="M253 -14q-96 0 -154.5 67.5t-58.5 188.5v12q0 80 27 137.5t75 88t111 30.5q85 0 141.5 -54t68.5 -152h62q27 0 27 30v25q-7 -3 -17 -3q-28 0 -48.5 21t-20.5 49q0 29 21 49.5t49 20.5q29 0 49.5 -20.5t20.5 -49.5v-98q0 -34 -21.5 -56t-55.5 -22h-63v-8
q0 -121 -58.5 -188.5t-154.5 -67.5zM253 60q67 0 100 49t33 133v12q0 81 -33.5 131.5t-99.5 50.5t-99.5 -50.5t-33.5 -131.5v-12q0 -84 33 -133t100 -49zM296 551q-25 0 -42 12t-31 35q-18 34 -33 34q-5 0 -11 -2.5t-15 -13.5l-41 -49l-49 42l42 49q14 17 32.5 29.5
t45.5 12.5q29 0 44 -13t28 -35q12 -19 19.5 -26t14.5 -7q5 0 10.5 3t12.5 12l43 50l49 -42l-41 -49q-15 -18 -34.5 -30t-43.5 -12z" />
    <glyph glyph-name="uni1EE2" unicode="&#x1ee2;" 
d="M242 -14q-96 0 -150 58.5t-54 173.5v258q0 113 53.5 175.5t150.5 62.5q90 0 143 -54t60 -152h67q27 0 27 30v25q-7 -3 -17 -3q-28 0 -48.5 21t-20.5 49q0 29 21 49.5t49 20.5q29 0 49.5 -20.5t20.5 -49.5v-98q0 -34 -21.5 -56t-55.5 -22h-70v-236q0 -115 -54 -173.5
t-150 -58.5zM242 62q62 0 91 40t29 122v252q0 77 -28.5 119.5t-91.5 42.5t-91.5 -42.5t-28.5 -119.5v-252q0 -82 29.5 -122t90.5 -40zM243 -204q-28 0 -49 21t-21 49q0 29 21 49.5t49 20.5q29 0 49.5 -20.5t20.5 -49.5q0 -28 -20.5 -49t-49.5 -21z" />
    <glyph glyph-name="uni1EE3" unicode="&#x1ee3;" 
d="M253 -14q-96 0 -154.5 67.5t-58.5 188.5v12q0 80 27 137.5t75 88t111 30.5q85 0 141.5 -54t68.5 -152h62q27 0 27 30v25q-7 -3 -17 -3q-28 0 -48.5 21t-20.5 49q0 29 21 49.5t49 20.5q29 0 49.5 -20.5t20.5 -49.5v-98q0 -34 -21.5 -56t-55.5 -22h-63v-8
q0 -121 -58.5 -188.5t-154.5 -67.5zM253 60q67 0 100 49t33 133v12q0 81 -33.5 131.5t-99.5 50.5t-99.5 -50.5t-33.5 -131.5v-12q0 -84 33 -133t100 -49zM252 -204q-28 0 -49 21t-21 49q0 29 21 49.5t49 20.5q29 0 49.5 -20.5t20.5 -49.5q0 -28 -20.5 -49t-49.5 -21z" />
    <glyph glyph-name="uni1EE4" unicode="&#x1ee4;" 
d="M306 -14q-111 0 -175.5 64.5t-64.5 185.5v464h84v-464q0 -84 40 -128t116 -44q77 0 116.5 44t39.5 128v464h84v-464q0 -121 -64.5 -185.5t-175.5 -64.5zM306 -204q-28 0 -49 21t-21 49q0 29 21 49.5t49 20.5q29 0 49.5 -20.5t20.5 -49.5q0 -28 -20.5 -49t-49.5 -21z" />
    <glyph glyph-name="uni1EE5" unicode="&#x1ee5;" 
d="M267 -14q-82 0 -134 54t-52 160v296h78v-286q0 -78 32 -114t98 -36q71 0 111.5 48.5t40.5 129.5v258h78v-496h-78v90h-12q-24 -48 -63 -76t-99 -28zM306 -204q-28 0 -49 21t-21 49q0 29 21 49.5t49 20.5q29 0 49.5 -20.5t20.5 -49.5q0 -28 -20.5 -49t-49.5 -21z" />
    <glyph glyph-name="uni1EE6" unicode="&#x1ee6;" 
d="M306 -14q-111 0 -175.5 64.5t-64.5 185.5v464h84v-464q0 -84 40 -128t116 -44q77 0 116.5 44t39.5 128v464h84v-464q0 -121 -64.5 -185.5t-175.5 -64.5zM272 750l-20 92v6h76q7 -14 25 -14q14 0 24.5 10t10.5 28q0 22 -12.5 32t-27.5 10q-22 0 -33.5 -12.5t-14.5 -27.5
l-48 18q8 30 31 50t66 20q39 0 66 -25t27 -66q0 -34 -20.5 -59.5t-55.5 -25.5q-41 0 -54 32h-6l15 -68h-49z" />
    <glyph glyph-name="uni1EE7" unicode="&#x1ee7;" 
d="M267 -14q-82 0 -134 54t-52 160v296h78v-286q0 -78 32 -114t98 -36q71 0 111.5 48.5t40.5 129.5v258h78v-496h-78v90h-12q-24 -48 -63 -76t-99 -28zM262 546l-20 92v6h76q7 -14 25 -14q14 0 24.5 10t10.5 28q0 22 -12.5 32t-27.5 10q-22 0 -33.5 -12.5t-14.5 -27.5
l-48 18q8 30 31 50t66 20q39 0 66 -25t27 -66q0 -34 -20.5 -59.5t-55.5 -25.5q-41 0 -54 32h-6l15 -68h-49z" />
    <glyph glyph-name="uni1EE8" unicode="&#x1ee8;" 
d="M238 -14q-94 0 -146 53.5t-52 162.5v498h84v-494q0 -76 29.5 -110t84.5 -34q56 0 85 34t29 110v494h84v-192h95q27 0 27 30v25q-7 -3 -17 -3q-28 0 -48.5 21t-20.5 49q0 29 21 49.5t49 20.5q29 0 49.5 -20.5t20.5 -49.5v-98q0 -34 -21.5 -56t-55.5 -22h-99v-252
q0 -109 -51.5 -162.5t-146.5 -53.5zM204 774l66 118h90l-84 -118h-72z" />
    <glyph glyph-name="uni1EE9" unicode="&#x1ee9;" 
d="M208 -14q-78 0 -123 46.5t-45 133.5v330h78v-316q0 -63 28 -91.5t80 -28.5q65 0 95.5 40.5t30.5 107.5v288h78v-192h95q27 0 27 30v25q-7 -3 -17 -3q-28 0 -48.5 21t-20.5 49q0 29 21 49.5t49 20.5q29 0 49.5 -20.5t20.5 -49.5v-98q0 -34 -21.5 -56t-55.5 -22h-99v-250
h-78v68h-12q-16 -36 -46 -59t-86 -23zM187 570l66 118h90l-84 -118h-72z" />
    <glyph glyph-name="uni1EEA" unicode="&#x1eea;" 
d="M238 -14q-94 0 -146 53.5t-52 162.5v498h84v-494q0 -76 29.5 -110t84.5 -34q56 0 85 34t29 110v494h84v-192h95q27 0 27 30v25q-7 -3 -17 -3q-28 0 -48.5 21t-20.5 49q0 29 21 49.5t49 20.5q29 0 49.5 -20.5t20.5 -49.5v-98q0 -34 -21.5 -56t-55.5 -22h-99v-252
q0 -109 -51.5 -162.5t-146.5 -53.5zM199 774l-84 118h90l66 -118h-72z" />
    <glyph glyph-name="uni1EEB" unicode="&#x1eeb;" 
d="M208 -14q-78 0 -123 46.5t-45 133.5v330h78v-316q0 -63 28 -91.5t80 -28.5q65 0 95.5 40.5t30.5 107.5v288h78v-192h95q27 0 27 30v25q-7 -3 -17 -3q-28 0 -48.5 21t-20.5 49q0 29 21 49.5t49 20.5q29 0 49.5 -20.5t20.5 -49.5v-98q0 -34 -21.5 -56t-55.5 -22h-99v-250
h-78v68h-12q-16 -36 -46 -59t-86 -23zM182 570l-84 118h90l66 -118h-72z" />
    <glyph glyph-name="uni1EEC" unicode="&#x1eec;" 
d="M238 -14q-94 0 -146 53.5t-52 162.5v498h84v-494q0 -76 29.5 -110t84.5 -34q56 0 85 34t29 110v494h84v-192h95q27 0 27 30v25q-7 -3 -17 -3q-28 0 -48.5 21t-20.5 49q0 29 21 49.5t49 20.5q29 0 49.5 -20.5t20.5 -49.5v-98q0 -34 -21.5 -56t-55.5 -22h-99v-252
q0 -109 -51.5 -162.5t-146.5 -53.5zM199 750l-20 92v6h76q7 -14 25 -14q14 0 24.5 10t10.5 28q0 22 -12.5 32t-27.5 10q-22 0 -33.5 -12.5t-14.5 -27.5l-48 18q8 30 31 50t66 20q39 0 66 -25t27 -66q0 -34 -20.5 -59.5t-55.5 -25.5q-41 0 -54 32h-6l15 -68h-49z" />
    <glyph glyph-name="uni1EED" unicode="&#x1eed;" 
d="M208 -14q-78 0 -123 46.5t-45 133.5v330h78v-316q0 -63 28 -91.5t80 -28.5q65 0 95.5 40.5t30.5 107.5v288h78v-192h95q27 0 27 30v25q-7 -3 -17 -3q-28 0 -48.5 21t-20.5 49q0 29 21 49.5t49 20.5q29 0 49.5 -20.5t20.5 -49.5v-98q0 -34 -21.5 -56t-55.5 -22h-99v-250
h-78v68h-12q-16 -36 -46 -59t-86 -23zM182 546l-20 92v6h76q7 -14 25 -14q14 0 24.5 10t10.5 28q0 22 -12.5 32t-27.5 10q-22 0 -33.5 -12.5t-14.5 -27.5l-48 18q8 30 31 50t66 20q39 0 66 -25t27 -66q0 -34 -20.5 -59.5t-55.5 -25.5q-41 0 -54 32h-6l15 -68h-49z" />
    <glyph glyph-name="uni1EEE" unicode="&#x1eee;" 
d="M238 -14q-94 0 -146 53.5t-52 162.5v498h84v-494q0 -76 29.5 -110t84.5 -34q56 0 85 34t29 110v494h84v-192h95q27 0 27 30v25q-7 -3 -17 -3q-28 0 -48.5 21t-20.5 49q0 29 21 49.5t49 20.5q29 0 49.5 -20.5t20.5 -49.5v-98q0 -34 -21.5 -56t-55.5 -22h-99v-252
q0 -109 -51.5 -162.5t-146.5 -53.5zM284 755q-25 0 -42 12t-31 35q-18 34 -33 34q-5 0 -11 -2.5t-15 -13.5l-41 -49l-49 42l42 49q14 17 32.5 29.5t45.5 12.5q29 0 44 -13t28 -35q12 -19 19.5 -26t14.5 -7q5 0 10.5 3t12.5 12l43 50l49 -42l-41 -49q-15 -18 -34.5 -30
t-43.5 -12z" />
    <glyph glyph-name="uni1EEF" unicode="&#x1eef;" 
d="M208 -14q-78 0 -123 46.5t-45 133.5v330h78v-316q0 -63 28 -91.5t80 -28.5q65 0 95.5 40.5t30.5 107.5v288h78v-192h95q27 0 27 30v25q-7 -3 -17 -3q-28 0 -48.5 21t-20.5 49q0 29 21 49.5t49 20.5q29 0 49.5 -20.5t20.5 -49.5v-98q0 -34 -21.5 -56t-55.5 -22h-99v-250
h-78v68h-12q-16 -36 -46 -59t-86 -23zM267 551q-25 0 -42 12t-31 35q-18 34 -33 34q-5 0 -11 -2.5t-15 -13.5l-41 -49l-49 42l42 49q14 17 32.5 29.5t45.5 12.5q29 0 44 -13t28 -35q12 -19 19.5 -26t14.5 -7q5 0 10.5 3t12.5 12l43 50l49 -42l-41 -49q-15 -18 -34.5 -30
t-43.5 -12z" />
    <glyph glyph-name="uni1EF0" unicode="&#x1ef0;" 
d="M238 -14q-94 0 -146 53.5t-52 162.5v498h84v-494q0 -76 29.5 -110t84.5 -34q56 0 85 34t29 110v494h84v-192h95q27 0 27 30v25q-7 -3 -17 -3q-28 0 -48.5 21t-20.5 49q0 29 21 49.5t49 20.5q29 0 49.5 -20.5t20.5 -49.5v-98q0 -34 -21.5 -56t-55.5 -22h-99v-252
q0 -109 -51.5 -162.5t-146.5 -53.5zM238 -204q-28 0 -49 21t-21 49q0 29 21 49.5t49 20.5q29 0 49.5 -20.5t20.5 -49.5q0 -28 -20.5 -49t-49.5 -21z" />
    <glyph glyph-name="uni1EF1" unicode="&#x1ef1;" 
d="M208 -14q-78 0 -123 46.5t-45 133.5v330h78v-316q0 -63 28 -91.5t80 -28.5q65 0 95.5 40.5t30.5 107.5v288h78v-192h95q27 0 27 30v25q-7 -3 -17 -3q-28 0 -48.5 21t-20.5 49q0 29 21 49.5t49 20.5q29 0 49.5 -20.5t20.5 -49.5v-98q0 -34 -21.5 -56t-55.5 -22h-99v-250
h-78v68h-12q-16 -36 -46 -59t-86 -23zM226 -204q-28 0 -49 21t-21 49q0 29 21 49.5t49 20.5q29 0 49.5 -20.5t20.5 -49.5q0 -28 -20.5 -49t-49.5 -21z" />
    <glyph glyph-name="Ygrave" unicode="&#x1ef2;" 
d="M264 0v246h-18l-219 454h94l179 -382h12l179 382h94l-219 -454h-18v-246h-84zM267 774l-84 118h90l66 -118h-72z" />
    <glyph glyph-name="ygrave" unicode="&#x1ef3;" 
d="M165 -200v72h255q27 0 27 30v188h-12q-24 -48 -63 -76t-99 -28q-82 0 -134 54t-52 160v296h78v-286q0 -78 32 -114t98 -36q71 0 111.5 48.5t40.5 129.5v258h78v-618q0 -34 -21.5 -56t-55.5 -22h-283zM262 570l-84 118h90l66 -118h-72z" />
    <glyph glyph-name="uni1EF4" unicode="&#x1ef4;" 
d="M264 0v246h-18l-219 454h94l179 -382h12l179 382h94l-219 -454h-18v-246h-84zM306 -204q-28 0 -49 21t-21 49q0 29 21 49.5t49 20.5q29 0 49.5 -20.5t20.5 -49.5q0 -28 -20.5 -49t-49.5 -21z" />
    <glyph glyph-name="uni1EF5" unicode="&#x1ef5;" 
d="M165 -200v72h255q27 0 27 30v188h-12q-24 -48 -63 -76t-99 -28q-82 0 -134 54t-52 160v296h78v-286q0 -78 32 -114t98 -36q71 0 111.5 48.5t40.5 129.5v258h78v-618q0 -34 -21.5 -56t-55.5 -22h-283zM157 -204q-28 0 -49 21t-21 49q0 29 21 49.5t49 20.5q29 0 49.5 -20.5
t20.5 -49.5q0 -28 -20.5 -49t-49.5 -21z" />
    <glyph glyph-name="uni1EF6" unicode="&#x1ef6;" 
d="M264 0v246h-18l-219 454h94l179 -382h12l179 382h94l-219 -454h-18v-246h-84zM267 750l-20 92v6h76q7 -14 25 -14q14 0 24.5 10t10.5 28q0 22 -12.5 32t-27.5 10q-22 0 -33.5 -12.5t-14.5 -27.5l-48 18q8 30 31 50t66 20q39 0 66 -25t27 -66q0 -34 -20.5 -59.5
t-55.5 -25.5q-41 0 -54 32h-6l15 -68h-49z" />
    <glyph glyph-name="uni1EF7" unicode="&#x1ef7;" 
d="M165 -200v72h255q27 0 27 30v188h-12q-24 -48 -63 -76t-99 -28q-82 0 -134 54t-52 160v296h78v-286q0 -78 32 -114t98 -36q71 0 111.5 48.5t40.5 129.5v258h78v-618q0 -34 -21.5 -56t-55.5 -22h-283zM262 546l-20 92v6h76q7 -14 25 -14q14 0 24.5 10t10.5 28
q0 22 -12.5 32t-27.5 10q-22 0 -33.5 -12.5t-14.5 -27.5l-48 18q8 30 31 50t66 20q39 0 66 -25t27 -66q0 -34 -20.5 -59.5t-55.5 -25.5q-41 0 -54 32h-6l15 -68h-49z" />
    <glyph glyph-name="uni1EF8" unicode="&#x1ef8;" 
d="M264 0v246h-18l-219 454h94l179 -382h12l179 382h94l-219 -454h-18v-246h-84zM352 755q-25 0 -42 12t-31 35q-18 34 -33 34q-5 0 -11 -2.5t-15 -13.5l-41 -49l-49 42l42 49q14 17 32.5 29.5t45.5 12.5q29 0 44 -13t28 -35q12 -19 19.5 -26t14.5 -7q5 0 10.5 3t12.5 12
l43 50l49 -42l-41 -49q-15 -18 -34.5 -30t-43.5 -12z" />
    <glyph glyph-name="uni1EF9" unicode="&#x1ef9;" 
d="M165 -200v72h255q27 0 27 30v188h-12q-24 -48 -63 -76t-99 -28q-82 0 -134 54t-52 160v296h78v-286q0 -78 32 -114t98 -36q71 0 111.5 48.5t40.5 129.5v258h78v-618q0 -34 -21.5 -56t-55.5 -22h-283zM347 551q-25 0 -42 12t-31 35q-18 34 -33 34q-5 0 -11 -2.5t-15 -13.5
l-41 -49l-49 42l42 49q14 17 32.5 29.5t45.5 12.5q29 0 44 -13t28 -35q12 -19 19.5 -26t14.5 -7q5 0 10.5 3t12.5 12l43 50l49 -42l-41 -49q-15 -18 -34.5 -30t-43.5 -12z" />
    <glyph glyph-name="endash" unicode="&#x2013;" 
d="M73 224v72h466v-72h-466z" />
    <glyph glyph-name="emdash" unicode="&#x2014;" 
d="M12 224v72h588v-72h-588z" />
    <glyph glyph-name="quoteleft" unicode="&#x2018;" 
d="M306 468q-28 0 -49 21t-21 49v98q0 34 21.5 56t55.5 22h51v-54h-47q-27 0 -27 -30v-25q8 3 17 3q28 0 48.5 -20.5t20.5 -49.5q0 -28 -20.5 -49t-49.5 -21z" />
    <glyph glyph-name="quoteright" unicode="&#x2019;" 
d="M248 468v54h47q27 0 27 30v25q-7 -3 -17 -3q-28 0 -48.5 21t-20.5 49q0 29 21 49.5t49 20.5q29 0 49.5 -20.5t20.5 -49.5v-98q0 -34 -21.5 -56t-55.5 -22h-51z" />
    <glyph glyph-name="quotesinglbase" unicode="&#x201a;" 
d="M248 -106v54h47q27 0 27 30v25q-7 -3 -17 -3q-28 0 -48.5 21t-20.5 49q0 29 21 49.5t49 20.5q29 0 49.5 -20.5t20.5 -49.5v-98q0 -34 -21.5 -56t-55.5 -22h-51z" />
    <glyph glyph-name="quotedblleft" unicode="&#x201c;" 
d="M397 468q-28 0 -49 21t-21 49v98q0 34 21.5 56t55.5 22h51v-54h-47q-27 0 -27 -30v-25q8 3 17 3q28 0 48.5 -20.5t20.5 -49.5q0 -28 -20.5 -49t-49.5 -21zM215 468q-28 0 -49 21t-21 49v98q0 34 21.5 56t55.5 22h51v-54h-47q-27 0 -27 -30v-25q8 3 17 3q28 0 48.5 -20.5
t20.5 -49.5q0 -28 -20.5 -49t-49.5 -21z" />
    <glyph glyph-name="quotedblright" unicode="&#x201d;" 
d="M339 468v54h47q27 0 27 30v25q-7 -3 -17 -3q-28 0 -48.5 21t-20.5 49q0 29 21 49.5t49 20.5q29 0 49.5 -20.5t20.5 -49.5v-98q0 -34 -21.5 -56t-55.5 -22h-51zM157 468v54h47q27 0 27 30v25q-7 -3 -17 -3q-28 0 -48.5 21t-20.5 49q0 29 21 49.5t49 20.5q29 0 49.5 -20.5
t20.5 -49.5v-98q0 -34 -21.5 -56t-55.5 -22h-51z" />
    <glyph glyph-name="quotedblbase" unicode="&#x201e;" 
d="M339 -106v54h47q27 0 27 30v25q-7 -3 -17 -3q-28 0 -48.5 21t-20.5 49q0 29 21 49.5t49 20.5q29 0 49.5 -20.5t20.5 -49.5v-98q0 -34 -21.5 -56t-55.5 -22h-51zM157 -106v54h47q27 0 27 30v25q-7 -3 -17 -3q-28 0 -48.5 21t-20.5 49q0 29 21 49.5t49 20.5
q29 0 49.5 -20.5t20.5 -49.5v-98q0 -34 -21.5 -56t-55.5 -22h-51z" />
    <glyph glyph-name="dagger" unicode="&#x2020;" 
d="M270 218v316h-114v70h114v110h72v-110h114v-70h-114v-316h-72z" />
    <glyph glyph-name="daggerdbl" unicode="&#x2021;" 
d="M270 218v110h-114v70h114v136h-114v70h114v110h72v-110h114v-70h-114v-136h114v-70h-114v-110h-72z" />
    <glyph glyph-name="bullet" unicode="&#x2022;" 
d="M306 232q-32 0 -59 16t-43 43t-16 59t16 59t43 43t59 16t59 -16t43 -43t16 -59t-16 -59t-43 -43t-59 -16z" />
    <glyph glyph-name="ellipsis" unicode="&#x2026;" 
d="M482 -14q-28 0 -49 21t-21 49q0 29 21 49.5t49 20.5q29 0 49.5 -20.5t20.5 -49.5q0 -28 -20.5 -49t-49.5 -21zM130 -14q-28 0 -49 21t-21 49q0 29 21 49.5t49 20.5q29 0 49.5 -20.5t20.5 -49.5q0 -28 -20.5 -49t-49.5 -21zM306 -14q-28 0 -49 21t-21 49q0 29 21 49.5
t49 20.5q29 0 49.5 -20.5t20.5 -49.5q0 -28 -20.5 -49t-49.5 -21z" />
    <glyph glyph-name="perthousand" unicode="&#x2030;" 
d="M191 406q-38 0 -72 17.5t-54.5 51.5t-20.5 81q0 48 20.5 81.5t54.5 51t72 17.5q39 0 72.5 -17.5t54 -51t20.5 -81.5q0 -47 -20.5 -81t-54 -51.5t-72.5 -17.5zM191 460q39 0 63 26.5t24 69.5t-24 69.5t-63 26.5t-63 -26.5t-24 -69.5q0 -47 24 -71.5t63 -24.5zM74 207
l-24 46l473 241l24 -46zM356 -6q-43 0 -65.5 26.5t-22.5 69.5v108q0 44 22.5 70t65.5 26t61 -30h6q18 30 61 30q44 0 66 -26t22 -70v-108q0 -43 -22 -69.5t-66 -26.5q-43 0 -61 30h-6q-18 -30 -61 -30zM359 48q20 0 25.5 14t5.5 30v104q0 17 -5.5 30.5t-25.5 13.5
q-19 0 -25 -13.5t-6 -30.5v-104q0 -16 6 -30t25 -14zM481 48q20 0 25.5 14t5.5 30v104q0 17 -5.5 30.5t-25.5 13.5q-19 0 -25 -13.5t-6 -30.5v-104q0 -16 6 -30t25 -14z" />
    <glyph glyph-name="minute" unicode="&#x2032;" 
d="M303 468l-53 11l24 106q-14 10 -23 25.5t-9 33.5q0 29 21 49.5t49 20.5q29 0 49.5 -20.5t20.5 -49.5q0 -25 -16 -44.5t-40 -24.5z" />
    <glyph glyph-name="second" unicode="&#x2033;" 
d="M393 468l-53 11l24 106q-14 10 -23 25.5t-9 33.5q0 29 21 49.5t49 20.5q29 0 49.5 -20.5t20.5 -49.5q0 -25 -16 -44.5t-40 -24.5zM211 468l-53 11l24 106q-14 10 -23 25.5t-9 33.5q0 29 21 49.5t49 20.5q29 0 49.5 -20.5t20.5 -49.5q0 -25 -16 -44.5t-40 -24.5z" />
    <glyph glyph-name="guilsinglleft" unicode="&#x2039;" 
d="M420 12l-234 158v156l234 158h6v-88l-210 -142v-12l210 -142v-88h-6z" />
    <glyph glyph-name="guilsinglright" unicode="&#x203a;" 
d="M186 12v88l210 142v12l-210 142v88h6l234 -158v-156l-234 -158h-6z" />
    <glyph glyph-name="fraction" unicode="&#x2044;" 
d="M82 207l-24 46l473 241l24 -46z" />
    <glyph glyph-name="uni2070" unicode="&#x2070;" 
d="M307 406q-49 0 -77 29.5t-28 75.5v90q0 46 28 75.5t77 29.5q50 0 76.5 -29.5t26.5 -75.5v-90q0 -46 -26.5 -75.5t-76.5 -29.5zM307 454q23 0 36 14.5t13 36.5v102q0 22 -13 36.5t-36 14.5t-37 -14.5t-14 -36.5v-102q0 -22 14 -36.5t37 -14.5zM306 525q-13 0 -22.5 9
t-9.5 22q0 14 9.5 23t22.5 9q14 0 22.5 -9t8.5 -23q0 -13 -8.5 -22t-22.5 -9z" />
    <glyph glyph-name="isuperior" unicode="&#x2071;" 
d="M319 740q-19 0 -32 13t-13 32t13 32t32 13t32 -13t13 -32t-13 -32t-32 -13zM196 412v48h96v192h-88v48h142v-240h90v-48h-240z" />
    <glyph glyph-name="uni2074" unicode="&#x2074;" 
d="M332 412v54h-130v66l85 168h99v-186h40v-48h-40v-54h-54zM250 514h82v156h-6l-76 -150v-6z" />
    <glyph glyph-name="uni2075" unicode="&#x2075;" 
d="M312 406q-57 0 -81.5 29t-24.5 64v6h54q0 -51 54 -51q50 0 50 60q0 23 -11.5 34t-26.5 11q-13 0 -20.5 -6t-9.5 -14h-84v161h188v-48h-134v-80h6q18 35 62 35q38 0 61 -24.5t23 -68.5q0 -46 -26 -77t-80 -31z" />
    <glyph glyph-name="uni2076" unicode="&#x2076;" 
d="M306 406q-44 0 -72 26.5t-28 69.5v108q0 45 27.5 70.5t70.5 25.5q44 0 70.5 -24t26.5 -66h-54q0 18 -11 30t-33 12q-21 0 -32 -13t-11 -35v-38h6q5 12 17.5 21t37.5 9q39 0 62 -27.5t23 -68.5q0 -46 -28.5 -73t-71.5 -27zM306 454q21 0 33.5 14t12.5 36q0 23 -12.5 36.5
t-33.5 13.5t-33.5 -13.5t-12.5 -36.5q0 -22 12.5 -36t33.5 -14z" />
    <glyph glyph-name="uni2077" unicode="&#x2077;" 
d="M239 412v15q0 16 6.5 28.5t18.5 30.5l106 158v6h-150v50h192v-88l-98 -149q-7 -11 -11.5 -19.5t-4.5 -19.5v-12h-59z" />
    <glyph glyph-name="uni2078" unicode="&#x2078;" 
d="M306 406q-39 0 -69.5 20.5t-30.5 63.5q0 30 17 47t36 21v6q-17 5 -32 20.5t-15 45.5q0 35 27 55.5t67 20.5q41 0 67.5 -20.5t26.5 -55.5q0 -30 -15 -45.5t-32 -20.5v-6q20 -4 36.5 -21t16.5 -47q0 -43 -30.5 -63.5t-69.5 -20.5zM306 586q19 0 32.5 9t13.5 27t-13.5 27
t-32.5 9t-32.5 -9t-13.5 -27t13.5 -27t32.5 -9zM306 454q20 0 33 11.5t13 30.5q0 20 -13 31t-33 11q-19 0 -32.5 -11t-13.5 -31q0 -19 13.5 -30.5t32.5 -11.5z" />
    <glyph glyph-name="uni2079" unicode="&#x2079;" 
d="M308 406q-43 0 -70 24t-27 66h54q0 -18 11 -30t33 -12q21 0 32 13t11 35v38h-6q-5 -12 -17.5 -21t-37.5 -9q-39 0 -62 28t-23 68q0 47 28.5 73.5t71.5 26.5q44 0 72 -26t28 -70v-108q0 -45 -27.5 -70.5t-70.5 -25.5zM306 558q21 0 33.5 14t12.5 36q0 23 -12.5 36.5
t-33.5 13.5t-33.5 -13.5t-12.5 -36.5q0 -22 12.5 -36t33.5 -14z" />
    <glyph glyph-name="uni207D" unicode="&#x207d;" 
d="M386 303q-48 0 -88.5 22.5t-65 65.5t-24.5 102v126q0 60 24.5 102.5t65 65t88.5 22.5h18v-48h-18q-36 0 -65.5 -18.5t-47 -50.5t-17.5 -75v-122q0 -42 17.5 -74.5t47 -51t65.5 -18.5h18v-48h-18z" />
    <glyph glyph-name="uni207E" unicode="&#x207e;" 
d="M208 303v48h18q36 0 65.5 18.5t47 51t17.5 74.5v122q0 43 -17.5 75t-47 50.5t-65.5 18.5h-18v48h18q48 0 88.5 -22.5t65 -65t24.5 -102.5v-126q0 -59 -24.5 -102t-65 -65.5t-88.5 -22.5h-18z" />
    <glyph glyph-name="uni207F" unicode="&#x207f;" 
d="M186 412v288h54v-40h6q11 21 32.5 33.5t51.5 12.5q51 0 79.5 -30t28.5 -90v-174h-54v164q0 82 -70 82q-39 0 -56.5 -25.5t-17.5 -66.5v-154h-54z" />
    <glyph glyph-name="uni2080" unicode="&#x2080;" 
d="M307 -206q-49 0 -77 29.5t-28 75.5v90q0 46 28 75.5t77 29.5q50 0 76.5 -29.5t26.5 -75.5v-90q0 -46 -26.5 -75.5t-76.5 -29.5zM307 -158q23 0 36 14.5t13 36.5v102q0 22 -13 36.5t-36 14.5t-37 -14.5t-14 -36.5v-102q0 -22 14 -36.5t37 -14.5zM306 -87q-13 0 -22.5 9
t-9.5 22q0 14 9.5 23t22.5 9q14 0 22.5 -9t8.5 -23q0 -13 -8.5 -22t-22.5 -9z" />
    <glyph glyph-name="uni2081" unicode="&#x2081;" 
d="M215 -200v48h78v210h-9l-22 -93h-53l32 123h106v-240h71v-48h-203z" />
    <glyph glyph-name="uni2082" unicode="&#x2082;" 
d="M210 -200v54q0 42 24 65t72 33q33 8 40.5 22t7.5 28q0 17 -11 30.5t-35 13.5q-22 0 -36 -14t-14 -40v-18h-54v18q0 42 27.5 72t78.5 30q48 0 73 -27.5t25 -62.5q0 -36 -18 -62t-66 -36q-36 -7 -48 -19.5t-12 -32.5v-6h141v-48h-195z" />
    <glyph glyph-name="uni2083" unicode="&#x2083;" 
d="M308 -206q-48 0 -76 28.5t-28 67.5v16h54v-14q0 -22 13 -36t35 -14q23 0 35.5 12.5t12.5 31.5q0 24 -14.5 34t-31.5 10h-32v76l82 28v6h-145v48h187v-84l-82 -28v-6h6q36 0 60 -20.5t24 -59.5q0 -43 -27.5 -69.5t-72.5 -26.5z" />
    <glyph glyph-name="uni2084" unicode="&#x2084;" 
d="M332 -200v54h-130v66l85 168h99v-186h40v-48h-40v-54h-54zM250 -98h82v156h-6l-76 -150v-6z" />
    <glyph glyph-name="uni2085" unicode="&#x2085;" 
d="M312 -206q-57 0 -81.5 29t-24.5 64v6h54q0 -51 54 -51q50 0 50 60q0 23 -11.5 34t-26.5 11q-13 0 -20.5 -6t-9.5 -14h-84v161h188v-48h-134v-80h6q18 35 62 35q38 0 61 -24.5t23 -68.5q0 -46 -26 -77t-80 -31z" />
    <glyph glyph-name="uni2086" unicode="&#x2086;" 
d="M306 -206q-44 0 -72 26.5t-28 69.5v108q0 45 27.5 70.5t70.5 25.5q44 0 70.5 -24t26.5 -66h-54q0 18 -11 30t-33 12q-21 0 -32 -13t-11 -35v-38h6q5 12 17.5 21t37.5 9q39 0 62 -27.5t23 -68.5q0 -46 -28.5 -73t-71.5 -27zM306 -158q21 0 33.5 14t12.5 36
q0 23 -12.5 36.5t-33.5 13.5t-33.5 -13.5t-12.5 -36.5q0 -22 12.5 -36t33.5 -14z" />
    <glyph glyph-name="uni2087" unicode="&#x2087;" 
d="M239 -200v15q0 16 6.5 28.5t18.5 30.5l106 158v6h-150v50h192v-88l-98 -149q-7 -11 -11.5 -19.5t-4.5 -19.5v-12h-59z" />
    <glyph glyph-name="uni2088" unicode="&#x2088;" 
d="M306 -206q-39 0 -69.5 20.5t-30.5 63.5q0 30 17 47t36 21v6q-17 5 -32 20.5t-15 45.5q0 35 27 55.5t67 20.5q41 0 67.5 -20.5t26.5 -55.5q0 -30 -15 -45.5t-32 -20.5v-6q20 -4 36.5 -21t16.5 -47q0 -43 -30.5 -63.5t-69.5 -20.5zM306 -26q19 0 32.5 9t13.5 27t-13.5 27
t-32.5 9t-32.5 -9t-13.5 -27t13.5 -27t32.5 -9zM306 -158q20 0 33 11.5t13 30.5q0 20 -13 31t-33 11q-19 0 -32.5 -11t-13.5 -31q0 -19 13.5 -30.5t32.5 -11.5z" />
    <glyph glyph-name="uni2089" unicode="&#x2089;" 
d="M308 -206q-43 0 -70 24t-27 66h54q0 -18 11 -30t33 -12q21 0 32 13t11 35v38h-6q-5 -12 -17.5 -21t-37.5 -9q-39 0 -62 28t-23 68q0 47 28.5 73.5t71.5 26.5q44 0 72 -26t28 -70v-108q0 -45 -27.5 -70.5t-70.5 -25.5zM306 -54q21 0 33.5 14t12.5 36q0 23 -12.5 36.5
t-33.5 13.5t-33.5 -13.5t-12.5 -36.5q0 -22 12.5 -36t33.5 -14z" />
    <glyph glyph-name="uni208D" unicode="&#x208d;" 
d="M386 -309q-48 0 -88.5 22.5t-65 65.5t-24.5 102v126q0 60 24.5 102.5t65 65t88.5 22.5h18v-48h-18q-36 0 -65.5 -18.5t-47 -50.5t-17.5 -75v-122q0 -42 17.5 -74.5t47 -51t65.5 -18.5h18v-48h-18z" />
    <glyph glyph-name="uni208E" unicode="&#x208e;" 
d="M208 -309v48h18q36 0 65.5 18.5t47 51t17.5 74.5v122q0 43 -17.5 75t-47 50.5t-65.5 18.5h-18v48h18q48 0 88.5 -22.5t65 -65t24.5 -102.5v-126q0 -59 -24.5 -102t-65 -65.5t-88.5 -22.5h-18z" />
    <glyph glyph-name="uni2094" unicode="&#x2094;" 
d="M303 -206q-47 0 -76.5 21.5t-43.5 52t-14 58.5v32h220q-1 41 -25.5 64.5t-58.5 23.5t-53 -17t-28 -40l-47 20q16 40 48 62.5t78 22.5q61 0 100.5 -39t39.5 -106v-14q0 -61 -39 -101t-101 -40zM303 -158q40 0 59.5 21.5t25.5 46.5h-165q3 -26 23.5 -47t56.5 -21z" />
    <glyph glyph-name="colonmonetary" unicode="&#x20a1;" 
d="M213 28l-70 15l18 87q-48 32 -77.5 85.5t-29.5 126.5v12q0 71 28 124t75.5 86.5t105.5 43.5l14 64l70 -15l-10 -47l18 -2t17 -3l14 67l70 -15l-17 -79q42 -25 69.5 -65.5t35.5 -90.5l-78 -18q-3 26 -14 50t-30 42l-71 -330q53 12 81.5 49.5t35.5 80.5l78 -18
q-14 -77 -69 -129.5t-142 -59.5l-13 -61l-70 15l10 48q-8 2 -17 4t-17 4zM278 164l78 368q-8 2 -16.5 3t-18.5 2l-77 -364q14 -6 34 -9zM180 215l66 312q-49 -19 -80.5 -65t-31.5 -108v-12q0 -40 12 -72t34 -55z" />
    <glyph glyph-name="lira" unicode="&#x20a4;" 
d="M110 102v72h60v48h-60v72h60v36h-60v72h60v38q0 83 44 127.5t122 44.5q75 0 120.5 -44.5t45.5 -127.5v-24h-78v24q0 51 -25 75.5t-63 24.5q-37 0 -62.5 -24.5t-25.5 -75.5v-38h90v-72h-90v-36h89v-72h-89v-48h242v-72h-380z" />
    <glyph glyph-name="uni20A6" unicode="&#x20a6;" 
d="M140 102v156h-60v72h60v36h-60v72h60v160h156l29 -160h67v160h78v-160h60v-72h-60v-36h60v-72h-60v-156h-156l-29 156h-67v-156h-78zM218 438h34l-22 118h-12v-118zM218 330h54l-7 36h-47v-36zM345 330h47v36h-53zM380 144h12v114h-33z" />
    <glyph glyph-name="peseta" unicode="&#x20a7;" 
d="M146 102v305h-60v72h60v119h172q66 0 105.5 -34.5t47.5 -84.5h63v-72h-63q-10 -49 -49 -84t-104 -35h-94v-186h-78zM224 479h166q-17 47 -78 47h-88v-47zM224 360h88q61 0 78 47h-166v-47z" />
    <glyph glyph-name="dong" unicode="&#x20ab;" 
d="M274 90q-70 0 -117 47.5t-47 137.5v6q0 57 23 98t61 63t84 22q38 0 63 -14.5t36 -37.5h9v84h-108v66h108v36h78v-36h54v-66h-54v-394h-78v44h-9q-11 -25 -39 -40.5t-64 -15.5zM287 162q45 0 72 31.5t27 83.5q0 53 -27 84t-72 31t-72 -31t-27 -84q0 -52 27 -83.5t72 -31.5
zM188 0v66h276v-66h-276z" />
    <glyph glyph-name="Euro" unicode="&#x20ac;" 
d="M340 88q-84 0 -151.5 44t-92.5 126h-60v72h48v36h-48v72h60q17 55 53 93.5t85.5 59.5t105.5 21q63 0 112.5 -24.5t81 -67.5t40.5 -98l-78 -18q-4 35 -23 65.5t-52.5 49.5t-82.5 19q-52 0 -93.5 -27t-62.5 -73h144v-72h-162v-36h162v-72h-145q22 -46 64 -71t95 -25
q49 0 82.5 19.5t52 50t23.5 64.5l78 -18q-10 -55 -41 -98t-80.5 -67.5t-114.5 -24.5z" />
    <glyph glyph-name="uni20B1" unicode="&#x20b1;" 
d="M146 102v186h-60v72h60v47h-60v72h60v119h172q66 0 105.5 -34.5t47.5 -84.5h63v-72h-63q-1 -11 -10 -23.5t-20 -17.5v-6h93v-72h-310v-186h-78zM224 479h166q-17 47 -78 47h-88v-47zM224 360h88q61 0 78 47h-166v-47z" />
    <glyph glyph-name="uni20B2" unicode="&#x20b2;" 
d="M266 28v61q-70 8 -106.5 59t-36.5 144v116q0 85 38 137.5t105 63.5v63h72v-63q70 -11 105 -60.5t35 -116.5v-12h-78v12q0 34 -15 62.5t-47 39.5v-186h140v-246h-72v56h-12q-11 -43 -56 -62v-68h-72zM266 165v369q-34 -10 -49.5 -42.5t-15.5 -79.5v-126q0 -46 16 -78
t49 -43zM338 165q30 9 48.5 35.5t18.5 69.5v6h-67v-111z" />
    <glyph glyph-name="uni20B5" unicode="&#x20b5;" 
d="M272 28v62q-68 11 -105.5 62.5t-37.5 141.5v112q0 86 38 139t105 64v63h72v-63q70 -11 104.5 -59.5t34.5 -111.5v-18h-78v18q0 33 -15 60t-46 37v-370q31 10 46 36.5t15 60.5v18h78v-18q0 -64 -34 -112t-105 -59v-63h-72zM272 165v369q-66 -22 -66 -126v-116
q0 -107 66 -127z" />
    <glyph glyph-name="uni20B9" unicode="&#x20b9;" 
d="M338 102v160q0 18 -8 28t-30 10h-172v72h142q62 0 79 41h-221v72h221q-17 41 -79 41h-142v72h366v-72h-79v-6q14 -14 17 -35h62v-72h-65q-6 -21 -21 -38t-38 -27v-12q21 -3 33.5 -16.5t12.5 -36.5v-181h-78z" />
    <glyph glyph-name="uni2113" unicode="&#x2113;" 
d="M307 0q-34 0 -55.5 22t-21.5 56v132q-17 -2 -35 -3t-37 -1h-84v72h84q19 0 37 1.5t35 3.5v293q0 59 34.5 98.5t97.5 39.5q51 0 84.5 -25.5t49.5 -69t16 -97.5q0 -115 -56 -188.5t-148 -105.5v-126q0 -30 27 -30h153v-72h-181zM308 306q62 28 95 80t33 124q0 132 -74 132
q-25 0 -39.5 -18t-14.5 -54v-264z" />
    <glyph glyph-name="uni2120" unicode="&#x2120;" 
d="M175 406q-55 0 -84 30.5t-29 75.5v10h54v-8q0 -27 14 -43.5t44 -16.5q24 0 35 11.5t11 26.5q0 19 -11.5 29t-40.5 14q-40 7 -67 25.5t-27 63.5q0 36 26.5 59t68.5 23q50 0 76 -25t26 -63v-14h-54v10q0 21 -13 32.5t-34 11.5q-19 0 -30.5 -9.5t-11.5 -24.5
q0 -16 11.5 -25.5t48.5 -16.5q47 -8 66.5 -29.5t19.5 -56.5q0 -41 -24.5 -65.5t-74.5 -24.5zM304 412v288h104l13 -213l2 -39h6l3 40l13 212h104v-288h-54v258h-6l-2 -31l-16 -227h-90l-15 228l-2 30h-6v-258h-54z" />
    <glyph glyph-name="trademark" unicode="&#x2122;" 
d="M290 412v288h104l12 -210l3 -42h6l3 42l13 210h104v-288h-54v258h-6l-3 -45l-15 -213h-90l-14 217l-3 41h-6v-258h-54zM137 412v240h-75v48h204v-48h-75v-240h-54z" />
    <glyph glyph-name="uni2126" unicode="&#x2126;" 
d="M48 0v78h98v12q-39 20 -62.5 69t-23.5 125v150q0 87 30.5 150t86 96.5t129.5 33.5t129.5 -33.5t86 -96.5t30.5 -150v-150q0 -76 -23.5 -125t-62.5 -69v-12h98v-78h-216v84q60 20 90 66t30 140v136q0 92 -40.5 151t-121.5 59t-121.5 -59t-40.5 -151v-136q0 -94 30 -140
t90 -66v-84h-216z" />
    <glyph glyph-name="estimated" unicode="&#x212e;" 
d="M308 88q-71 0 -125.5 32.5t-85.5 90t-31 133.5v24q0 70 32 125t87.5 87t124.5 32q61 0 105.5 -22t73 -56t42 -72.5t13.5 -71.5v-64h-386v-82q15 -36 53.5 -62t98.5 -26q50 0 82 15t50.5 39t27.5 52l68 -18q-21 -69 -77.5 -112.5t-152.5 -43.5zM158 392h296v70
q-16 35 -55 58.5t-89 23.5q-57 0 -97.5 -27.5t-54.5 -61.5v-63z" />
    <glyph glyph-name="uni2153" unicode="&#x2153;" 
d="M57 412v48h78v210h-9l-22 -93h-53l32 123h106v-240h71v-48h-203zM82 207l-24 46l473 241l24 -46zM463 -6q-48 0 -76 28.5t-28 67.5v16h54v-14q0 -22 13 -36t35 -14q23 0 35.5 12.5t12.5 31.5q0 24 -14.5 34t-31.5 10h-32v76l82 28v6h-145v48h187v-84l-82 -28v-6h6
q36 0 60 -20.5t24 -59.5q0 -43 -27.5 -69.5t-72.5 -26.5z" />
    <glyph glyph-name="uni2154" unicode="&#x2154;" 
d="M82 207l-24 46l473 241l24 -46zM58 412v54q0 42 24 65t72 33q33 8 40.5 22t7.5 28q0 17 -11 30.5t-35 13.5q-22 0 -36 -14t-14 -40v-18h-54v18q0 42 27.5 72t78.5 30q48 0 73 -27.5t25 -62.5q0 -36 -18 -62t-66 -36q-36 -7 -48 -19.5t-12 -32.5v-6h141v-48h-195zM463 -6
q-48 0 -76 28.5t-28 67.5v16h54v-14q0 -22 13 -36t35 -14q23 0 35.5 12.5t12.5 31.5q0 24 -14.5 34t-31.5 10h-32v76l82 28v6h-145v48h187v-84l-82 -28v-6h6q36 0 60 -20.5t24 -59.5q0 -43 -27.5 -69.5t-72.5 -26.5z" />
    <glyph glyph-name="oneeighth" unicode="&#x215b;" 
d="M82 207l-24 46l473 241l24 -46zM57 412v48h78v210h-9l-22 -93h-53l32 123h106v-240h71v-48h-203zM455 -6q-39 0 -69.5 20.5t-30.5 63.5q0 30 17 47t36 21v6q-17 5 -32 20.5t-15 45.5q0 35 27 55.5t67 20.5q41 0 67.5 -20.5t26.5 -55.5q0 -30 -15 -45.5t-32 -20.5v-6
q20 -4 36.5 -21t16.5 -47q0 -43 -30.5 -63.5t-69.5 -20.5zM455 174q19 0 32.5 9t13.5 27t-13.5 27t-32.5 9t-32.5 -9t-13.5 -27t13.5 -27t32.5 -9zM455 42q20 0 33 11.5t13 30.5q0 20 -13 31t-33 11q-19 0 -32.5 -11t-13.5 -31q0 -19 13.5 -30.5t32.5 -11.5z" />
    <glyph glyph-name="threeeighths" unicode="&#x215c;" 
d="M82 207l-24 46l473 241l24 -46zM153 406q-48 0 -76 28.5t-28 67.5v16h54v-14q0 -22 13 -36t35 -14q23 0 35.5 12.5t12.5 31.5q0 24 -14.5 34t-31.5 10h-32v76l82 28v6h-145v48h187v-84l-82 -28v-6h6q36 0 60 -20.5t24 -59.5q0 -43 -27.5 -69.5t-72.5 -26.5zM455 -6
q-39 0 -69.5 20.5t-30.5 63.5q0 30 17 47t36 21v6q-17 5 -32 20.5t-15 45.5q0 35 27 55.5t67 20.5q41 0 67.5 -20.5t26.5 -55.5q0 -30 -15 -45.5t-32 -20.5v-6q20 -4 36.5 -21t16.5 -47q0 -43 -30.5 -63.5t-69.5 -20.5zM455 174q19 0 32.5 9t13.5 27t-13.5 27t-32.5 9
t-32.5 -9t-13.5 -27t13.5 -27t32.5 -9zM455 42q20 0 33 11.5t13 30.5q0 20 -13 31t-33 11q-19 0 -32.5 -11t-13.5 -31q0 -19 13.5 -30.5t32.5 -11.5z" />
    <glyph glyph-name="fiveeighths" unicode="&#x215d;" 
d="M82 207l-24 46l473 241l24 -46zM455 -6q-39 0 -69.5 20.5t-30.5 63.5q0 30 17 47t36 21v6q-17 5 -32 20.5t-15 45.5q0 35 27 55.5t67 20.5q41 0 67.5 -20.5t26.5 -55.5q0 -30 -15 -45.5t-32 -20.5v-6q20 -4 36.5 -21t16.5 -47q0 -43 -30.5 -63.5t-69.5 -20.5zM455 174
q19 0 32.5 9t13.5 27t-13.5 27t-32.5 9t-32.5 -9t-13.5 -27t13.5 -27t32.5 -9zM455 42q20 0 33 11.5t13 30.5q0 20 -13 31t-33 11q-19 0 -32.5 -11t-13.5 -31q0 -19 13.5 -30.5t32.5 -11.5zM158 406q-57 0 -81.5 29t-24.5 64v6h54q0 -51 54 -51q50 0 50 60q0 23 -11.5 34
t-26.5 11q-13 0 -20.5 -6t-9.5 -14h-84v161h188v-48h-134v-80h6q18 35 62 35q38 0 61 -24.5t23 -68.5q0 -46 -26 -77t-80 -31z" />
    <glyph glyph-name="seveneighths" unicode="&#x215e;" 
d="M89 412v15q0 16 6.5 28.5t18.5 30.5l106 158v6h-150v50h192v-88l-98 -149q-7 -11 -11.5 -19.5t-4.5 -19.5v-12h-59zM82 207l-24 46l473 241l24 -46zM455 -6q-39 0 -69.5 20.5t-30.5 63.5q0 30 17 47t36 21v6q-17 5 -32 20.5t-15 45.5q0 35 27 55.5t67 20.5
q41 0 67.5 -20.5t26.5 -55.5q0 -30 -15 -45.5t-32 -20.5v-6q20 -4 36.5 -21t16.5 -47q0 -43 -30.5 -63.5t-69.5 -20.5zM455 174q19 0 32.5 9t13.5 27t-13.5 27t-32.5 9t-32.5 -9t-13.5 -27t13.5 -27t32.5 -9zM455 42q20 0 33 11.5t13 30.5q0 20 -13 31t-33 11
q-19 0 -32.5 -11t-13.5 -31q0 -19 13.5 -30.5t32.5 -11.5z" />
    <glyph glyph-name="arrowleft" unicode="&#x2190;" 
d="M189 149l-153 153v96l153 153l51 -51l-88 -88l-50 -28l5 -12l45 14h424v-72h-424l-45 14l-5 -12l50 -28l88 -88z" />
    <glyph glyph-name="arrowup" unicode="&#x2191;" 
d="M270 80v424l14 45l-12 5l-28 -50l-88 -88l-51 51l153 153h96l153 -153l-51 -51l-88 88l-28 50l-12 -5l14 -45v-424h-72z" />
    <glyph glyph-name="arrowright" unicode="&#x2192;" 
d="M423 149l-51 51l88 88l50 28l-5 12l-45 -14h-424v72h424l45 -14l5 12l-50 28l-88 88l51 51l153 -153v-96z" />
    <glyph glyph-name="arrowdown" unicode="&#x2193;" 
d="M258 80l-153 153l51 51l88 -88l28 -50l12 5l-14 45v424h72v-424l-14 -45l12 -5l28 50l88 88l51 -51l-153 -153h-96z" />
    <glyph glyph-name="arrowboth" unicode="&#x2194;" 
d="M189 149l-153 153v96l153 153l51 -51l-88 -88l-50 -28l5 -12l45 14h308l45 -14l5 12l-50 28l-88 88l51 51l153 -153v-96l-153 -153l-51 51l88 88l50 28l-5 12l-45 -14h-308l-45 14l-5 -12l50 -28l88 -88z" />
    <glyph glyph-name="arrowupdn" unicode="&#x2195;" 
d="M258 80l-153 153l51 51l88 -88l28 -50l12 5l-14 45v308l14 45l-12 5l-28 -50l-88 -88l-51 51l153 153h96l153 -153l-51 -51l-88 88l-28 50l-12 -5l14 -45v-308l-14 -45l12 -5l28 50l88 88l51 -51l-153 -153h-96z" />
    <glyph glyph-name="uni2196" unicode="&#x2196;" 
d="M471 134l-299 299l-22 42l-12 -5l15 -55v-124h-72v216l68 68h216v-72h-124l-55 15l-5 -12l42 -22l299 -299z" />
    <glyph glyph-name="uni2197" unicode="&#x2197;" 
d="M132 134l-51 51l299 299l42 22l-5 12l-55 -15h-124v72h216l68 -68v-216h-72v124l15 55l-12 5l-22 -42z" />
    <glyph glyph-name="uni2198" unicode="&#x2198;" 
d="M238 134v72h124l55 -15l5 12l-42 22l-299 299l51 51l299 -299l22 -42l12 5l-15 55v124h72v-216l-68 -68h-216z" />
    <glyph glyph-name="uni2199" unicode="&#x2199;" 
d="M149 134l-68 68v216h72v-124l-15 -55l12 -5l22 42l299 299l51 -51l-299 -299l-42 -22l5 -12l55 15h124v-72h-216z" />
    <glyph glyph-name="partialdiff" unicode="&#x2202;" 
d="M306 -14q-66 0 -122.5 30t-91.5 87t-35 139v12q0 81 34 138.5t88.5 87.5t114.5 30q51 0 87.5 -20t54.5 -50h12q-16 61 -61.5 103.5t-105.5 66.5t-121 30l18 74q178 -23 277.5 -136t99.5 -303q0 -98 -33.5 -162t-90 -95.5t-125.5 -31.5zM306 60q48 0 86 22.5t60.5 66
t22.5 105.5q0 54 -22.5 95t-61 64t-85.5 23t-85.5 -23t-61 -64t-22.5 -95v-12q0 -56 22.5 -97t61 -63t85.5 -22z" />
    <glyph glyph-name="uni2206" unicode="&#x2206;" 
d="M15 0l212 700h158l212 -700h-582zM128 78h356l-172 585h-12z" />
    <glyph glyph-name="product" unicode="&#x220f;" 
d="M73 0v700h466v-700h-84v622h-298v-622h-84z" />
    <glyph glyph-name="summation" unicode="&#x2211;" 
d="M72 0v128l244 216v12l-244 216v128h468v-78h-396v-12l244 -218v-84l-244 -218v-12h396v-78h-468z" />
    <glyph glyph-name="minus" unicode="&#x2212;" 
d="M97 314v72h418v-72h-418z" />
    <glyph glyph-name="uni2215" unicode="&#x2215;" 
d="M128 -106l-67 31l424 881l66 -31z" />
    <glyph glyph-name="uni2219" unicode="&#x2219;" 
d="M306 256q-38 0 -66 28t-28 66t28 66t66 28t66 -28t28 -66t-28 -66t-66 -28z" />
    <glyph glyph-name="radical" unicode="&#x221a;" 
d="M215 0l-76 314h-96v72h160l84 -350h12l196 820h81l-205 -856h-156z" />
    <glyph glyph-name="infinity" unicode="&#x221e;" 
d="M194 205q-38 0 -70.5 19.5t-52 52.5t-19.5 73t19.5 73t52 52.5t70.5 19.5q35 0 61.5 -15.5t41.5 -38.5h18q15 23 42 38.5t61 15.5q38 0 70.5 -19.5t52 -52.5t19.5 -73t-19.5 -73t-52 -52.5t-70.5 -19.5q-34 0 -61 15.5t-42 38.5h-18q-15 -23 -41.5 -38.5t-61.5 -15.5z
M197 277q30 0 51.5 21.5t21.5 51.5t-21.5 51.5t-51.5 21.5t-51.5 -21.5t-21.5 -51.5t21.5 -51.5t51.5 -21.5zM415 277q30 0 51.5 21.5t21.5 51.5t-21.5 51.5t-51.5 21.5t-51.5 -21.5t-21.5 -51.5t21.5 -51.5t51.5 -21.5z" />
    <glyph glyph-name="integral" unicode="&#x222b;" 
d="M147 -200v72h93q27 0 27 30v720q0 34 21.5 56t55.5 22h121v-72h-93q-27 0 -27 -30v-720q0 -34 -21.5 -56t-55.5 -22h-121z" />
    <glyph glyph-name="approxequal" unicode="&#x2248;" 
d="M357 331q-39 0 -56 21t-28 55q-2 9 -6.5 18.5t-16.5 9.5q-9 0 -23 -11l-103 -76l-39 50l101 77q15 12 31 19.5t37 7.5q38 0 56 -21.5t28 -57.5q2 -8 7.5 -16.5t15.5 -8.5q8 0 20 9l107 79l39 -50l-102 -78q-13 -10 -29 -18.5t-39 -8.5zM357 160q-39 0 -56 21t-28 55
q-2 9 -6.5 18.5t-16.5 9.5q-9 0 -23 -11l-103 -76l-39 50l101 77q15 12 31 19.5t37 7.5q38 0 56 -21.5t28 -57.5q2 -8 7.5 -16.5t15.5 -8.5q8 0 20 9l107 79l39 -50l-102 -78q-13 -10 -29 -18.5t-39 -8.5z" />
    <glyph glyph-name="notequal" unicode="&#x2260;" 
d="M272 126l-71 22l31 94h-135v72h158l24 72h-182v72h206l35 106l70 -22l-28 -84h135v-72h-158l-24 -72h182v-72h-205z" />
    <glyph glyph-name="lessequal" unicode="&#x2264;" 
d="M515 130l-418 144v152l418 144v-84l-388 -130v-12l388 -130v-84zM97 0v72h418v-72h-418z" />
    <glyph glyph-name="greaterequal" unicode="&#x2265;" 
d="M97 130v84l388 130v12l-388 130v84l418 -144v-152zM97 0v72h418v-72h-418z" />
    <glyph glyph-name="lozenge" unicode="&#x25ca;" 
d="M228 0l-174 350l174 350h156l174 -350l-174 -350h-156zM300 36h12l156 314l-156 314h-12l-156 -314z" />
    <glyph glyph-name="fi" unicode="&#xfb01;" 
d="M454 574q-28 0 -49 21t-21 49q0 29 21 49.5t49 20.5q29 0 49.5 -20.5t20.5 -49.5q0 -28 -20.5 -49t-49.5 -21zM165 0v424h-117v72h117v106q0 34 21.5 56t55.5 22h106v-72h-78q-27 0 -27 -30v-82h251v-496h-78v424h-173v-424h-78z" />
    <glyph glyph-name="fl" unicode="&#xfb02;" 
d="M165 0v424h-117v72h117v126q0 34 21.5 56t55.5 22h252v-700h-78v628h-146q-27 0 -27 -30v-102h125v-72h-125v-424h-78z" />
    <glyph glyph-name="B.ss01" 
d="M90 0v700h235q101 0 154 -52t53 -130v-12q0 -57 -34 -96t-84 -53v-12q50 -13 84 -53.5t34 -96.5v-12q0 -79 -53 -131t-154 -52h-235zM174 390h148q60 0 95 31t35 85v6q0 51 -37 80.5t-96 29.5h-145v-232zM174 78h145q59 0 96 29.5t37 81.5v6q0 53 -35 85t-95 32h-148
v-234z" />
    <glyph glyph-name="uni0243.ss01" 
d="M96 0v156h-60v78h60v466h235q101 0 154 -52t53 -130v-12q0 -57 -34 -96t-84 -53v-12q50 -13 84 -53.5t34 -96.5v-12q0 -79 -53 -131t-154 -52h-235zM180 390h148q60 0 95 31t35 85v6q0 51 -37 80.5t-96 29.5h-145v-232zM180 78h145q59 0 96 29.5t37 81.5v6q0 53 -35 85
t-95 32h-148v-78h108v-78h-108v-78z" />
    <glyph glyph-name="D.ss01" 
d="M98 0v700h182q129 0 189.5 -62.5t60.5 -197.5v-180q0 -135 -60.5 -197.5t-189.5 -62.5h-182zM182 78h86q61 0 100.5 16.5t58.5 57.5t19 114v168q0 73 -19 114t-58.5 57.5t-100.5 16.5h-86v-544z" />
    <glyph glyph-name="Dcaron.ss01" 
d="M98 0v700h182q129 0 189.5 -62.5t60.5 -197.5v-180q0 -135 -60.5 -197.5t-189.5 -62.5h-182zM182 78h86q61 0 100.5 16.5t58.5 57.5t19 114v168q0 73 -19 114t-58.5 57.5t-100.5 16.5h-86v-544zM217 774l-80 118h84l52 -88h12l52 88h84l-80 -118h-124z" />
    <glyph glyph-name="Dcroat.ss01" 
d="M108 0v311h-60v78h60v311h182q129 0 189.5 -62.5t60.5 -197.5v-180q0 -135 -60.5 -197.5t-189.5 -62.5h-182zM192 78h86q61 0 100.5 16.5t58.5 57.5t19 114v168q0 73 -19 114t-58.5 57.5t-100.5 16.5h-86v-233h108v-78h-108v-233z" />
    <glyph glyph-name="uni1E0C.ss01" 
d="M98 0v700h182q129 0 189.5 -62.5t60.5 -197.5v-180q0 -135 -60.5 -197.5t-189.5 -62.5h-182zM182 78h86q61 0 100.5 16.5t58.5 57.5t19 114v168q0 73 -19 114t-58.5 57.5t-100.5 16.5h-86v-544zM266 -204q-28 0 -49 21t-21 49q0 29 21 49.5t49 20.5q29 0 49.5 -20.5
t20.5 -49.5q0 -28 -20.5 -49t-49.5 -21z" />
    <glyph glyph-name="uni1E0E.ss01" 
d="M98 0v700h182q129 0 189.5 -62.5t60.5 -197.5v-180q0 -135 -60.5 -197.5t-189.5 -62.5h-182zM182 78h86q61 0 100.5 16.5t58.5 57.5t19 114v168q0 73 -19 114t-58.5 57.5t-100.5 16.5h-86v-544zM125 -130v66h282v-66h-282z" />
    <glyph glyph-name="Eth.ss01" 
d="M108 0v311h-60v78h60v311h182q129 0 189.5 -62.5t60.5 -197.5v-180q0 -135 -60.5 -197.5t-189.5 -62.5h-182zM192 78h86q61 0 100.5 16.5t58.5 57.5t19 114v168q0 73 -19 114t-58.5 57.5t-100.5 16.5h-86v-233h108v-78h-108v-233z" />
    <glyph glyph-name="IJ.ss01" 
d="M312 -14q-102 0 -162 58t-60 166v54h84v-54q0 -66 34 -106t104 -40t98 40t28 106v490h84v-490q0 -108 -54 -166t-156 -58zM90 342v358h84v-358h-84z" />
    <glyph glyph-name="J.ss01" 
d="M304 -14q-102 0 -162 58t-60 166v54h84v-54q0 -66 34 -107t104 -41t98 41t28 107v490h84v-490q0 -108 -54 -166t-156 -58z" />
    <glyph glyph-name="Jcircumflex.ss01" 
d="M304 -14q-102 0 -162 58t-60 166v54h84v-54q0 -66 34 -107t104 -41t98 41t28 107v490h84v-490q0 -108 -54 -166t-156 -58zM329 774l80 118h124l80 -118h-84l-52 88h-12l-52 -88h-84z" />
    <glyph glyph-name="a.ss02" 
d="M255 -14q-55 0 -94 20.5t-59.5 54.5t-20.5 75v12q0 47 23 81t63 52.5t90 18.5h163v20q0 29 -13 56t-41.5 44.5t-73.5 17.5q-52 0 -84.5 -27.5t-40.5 -80.5l-74 18q8 44 32.5 80.5t66 59t100.5 22.5q61 0 107.5 -24.5t72.5 -67t26 -97.5v-219q0 -30 27 -30h25v-72h-53
q-34 0 -55.5 22t-21.5 56v6h-12q-19 -45 -57.5 -71.5t-95.5 -26.5zM262 58q77 0 117 44t40 114v12h-153q-50 0 -79 -21t-29 -65q0 -37 27.5 -60.5t76.5 -23.5z" />
    <glyph glyph-name="aacute.ss02" 
d="M255 -14q-55 0 -94 20.5t-59.5 54.5t-20.5 75v12q0 47 23 81t63 52.5t90 18.5h163v20q0 29 -13 56t-41.5 44.5t-73.5 17.5q-52 0 -84.5 -27.5t-40.5 -80.5l-74 18q8 44 32.5 80.5t66 59t100.5 22.5q61 0 107.5 -24.5t72.5 -67t26 -97.5v-219q0 -30 27 -30h25v-72h-53
q-34 0 -55.5 22t-21.5 56v6h-12q-19 -45 -57.5 -71.5t-95.5 -26.5zM262 58q77 0 117 44t40 114v12h-153q-50 0 -79 -21t-29 -65q0 -37 27.5 -60.5t76.5 -23.5zM263 570l66 118h90l-84 -118h-72z" />
    <glyph glyph-name="abreve.ss02" 
d="M255 -14q-55 0 -94 20.5t-59.5 54.5t-20.5 75v12q0 47 23 81t63 52.5t90 18.5h163v20q0 29 -13 56t-41.5 44.5t-73.5 17.5q-52 0 -84.5 -27.5t-40.5 -80.5l-74 18q8 44 32.5 80.5t66 59t100.5 22.5q61 0 107.5 -24.5t72.5 -67t26 -97.5v-219q0 -30 27 -30h25v-72h-53
q-34 0 -55.5 22t-21.5 56v6h-12q-19 -45 -57.5 -71.5t-95.5 -26.5zM262 58q77 0 117 44t40 114v12h-153q-50 0 -79 -21t-29 -65q0 -37 27.5 -60.5t76.5 -23.5zM292 570q-49 0 -78.5 30t-29.5 78v10h69v-12q0 -16 10 -27.5t29 -11.5t29 11.5t10 27.5v12h69v-10q0 -48 -29 -78
t-79 -30z" />
    <glyph glyph-name="uni1EAF.ss02" 
d="M255 -14q-55 0 -94 20.5t-59.5 54.5t-20.5 75v12q0 47 23 81t63 52.5t90 18.5h163v20q0 29 -13 56t-41.5 44.5t-73.5 17.5q-52 0 -84.5 -27.5t-40.5 -80.5l-74 18q8 44 32.5 80.5t66 59t100.5 22.5q61 0 107.5 -24.5t72.5 -67t26 -97.5v-219q0 -30 27 -30h25v-72h-53
q-34 0 -55.5 22t-21.5 56v6h-12q-19 -45 -57.5 -71.5t-95.5 -26.5zM262 58q77 0 117 44t40 114v12h-153q-50 0 -79 -21t-29 -65q0 -37 27.5 -60.5t76.5 -23.5zM292 570q-49 0 -78.5 30t-29.5 78v10h69v-12q0 -16 10 -27.5t29 -11.5t29 11.5t10 27.5v12h69v-10q0 -48 -29 -78
t-79 -30zM267 737l66 118h90l-84 -118h-72z" />
    <glyph glyph-name="uni1EB7.ss02" 
d="M255 -14q-55 0 -94 20.5t-59.5 54.5t-20.5 75v12q0 47 23 81t63 52.5t90 18.5h163v20q0 29 -13 56t-41.5 44.5t-73.5 17.5q-52 0 -84.5 -27.5t-40.5 -80.5l-74 18q8 44 32.5 80.5t66 59t100.5 22.5q61 0 107.5 -24.5t72.5 -67t26 -97.5v-219q0 -30 27 -30h25v-72h-53
q-34 0 -55.5 22t-21.5 56v6h-12q-19 -45 -57.5 -71.5t-95.5 -26.5zM262 58q77 0 117 44t40 114v12h-153q-50 0 -79 -21t-29 -65q0 -37 27.5 -60.5t76.5 -23.5zM306 -204q-28 0 -49 21t-21 49q0 29 21 49.5t49 20.5q29 0 49.5 -20.5t20.5 -49.5q0 -28 -20.5 -49t-49.5 -21z
M292 570q-49 0 -78.5 30t-29.5 78v10h69v-12q0 -16 10 -27.5t29 -11.5t29 11.5t10 27.5v12h69v-10q0 -48 -29 -78t-79 -30z" />
    <glyph glyph-name="uni1EB1.ss02" 
d="M255 -14q-55 0 -94 20.5t-59.5 54.5t-20.5 75v12q0 47 23 81t63 52.5t90 18.5h163v20q0 29 -13 56t-41.5 44.5t-73.5 17.5q-52 0 -84.5 -27.5t-40.5 -80.5l-74 18q8 44 32.5 80.5t66 59t100.5 22.5q61 0 107.5 -24.5t72.5 -67t26 -97.5v-219q0 -30 27 -30h25v-72h-53
q-34 0 -55.5 22t-21.5 56v6h-12q-19 -45 -57.5 -71.5t-95.5 -26.5zM262 58q77 0 117 44t40 114v12h-153q-50 0 -79 -21t-29 -65q0 -37 27.5 -60.5t76.5 -23.5zM292 570q-49 0 -78.5 30t-29.5 78v10h69v-12q0 -16 10 -27.5t29 -11.5t29 11.5t10 27.5v12h69v-10q0 -48 -29 -78
t-79 -30zM262 737l-84 118h90l66 -118h-72z" />
    <glyph glyph-name="uni1EB3.ss02" 
d="M255 -14q-55 0 -94 20.5t-59.5 54.5t-20.5 75v12q0 47 23 81t63 52.5t90 18.5h163v20q0 29 -13 56t-41.5 44.5t-73.5 17.5q-52 0 -84.5 -27.5t-40.5 -80.5l-74 18q8 44 32.5 80.5t66 59t100.5 22.5q61 0 107.5 -24.5t72.5 -67t26 -97.5v-219q0 -30 27 -30h25v-72h-53
q-34 0 -55.5 22t-21.5 56v6h-12q-19 -45 -57.5 -71.5t-95.5 -26.5zM262 58q77 0 117 44t40 114v12h-153q-50 0 -79 -21t-29 -65q0 -37 27.5 -60.5t76.5 -23.5zM292 570q-49 0 -78.5 30t-29.5 78v10h69v-12q0 -16 10 -27.5t29 -11.5t29 11.5t10 27.5v12h69v-10q0 -48 -29 -78
t-79 -30zM262 713l-20 92v6h76q7 -14 25 -14q14 0 24.5 10t10.5 28q0 22 -12.5 32t-27.5 10q-22 0 -33.5 -12.5t-14.5 -27.5l-48 18q8 30 31 50t66 20q39 0 66 -25t27 -66q0 -34 -20.5 -59.5t-55.5 -25.5q-41 0 -54 32h-6l15 -68h-49z" />
    </font>
</defs>
</svg>
